<?xml version="1.0" standalone="no"?>
 <!DOCTYPE svg PUBLIC "-//W3C//DTD SVG 1.1//EN" 
 "http://www.w3.org/Graphics/SVG/1.1/DTD/svg11.dtd"> 
<svg
  xmlns:svg="http://www.w3.org/2000/svg"
  xmlns="http://www.w3.org/2000/svg"
  xmlns:xlink="http://www.w3.org/1999/xlink"
  version="1.1"
  width="12.768580cm" height="13.335000cm" viewBox="0 0 50270 52500">
<title>SVG Picture created as keyboard_right-brd.svg date 2022/03/27 15:55:22 </title>
  <desc>Picture generated by PCBNEW </desc>
<g style="fill:#000000; fill-opacity:1;stroke:#000000; stroke-opacity:1;
stroke-linecap:round; stroke-linejoin:round;"
 transform="translate(0 0) scale(1 1)">
</g>
<g style="fill:#000000; fill-opacity:0.0; 
stroke:#000000; stroke-width:-0.000393701; stroke-opacity:1; 
stroke-linecap:round; stroke-linejoin:round;">
</g>
<g style="fill:#C2C2C2; fill-opacity:0.0; 
stroke:#C2C2C2; stroke-width:-0.000393701; stroke-opacity:1; 
stroke-linecap:round; stroke-linejoin:round;">
</g>
<g style="fill:#C2C2C2; fill-opacity:0.0; 
stroke:#C2C2C2; stroke-width:19.685; stroke-opacity:1; 
stroke-linecap:round; stroke-linejoin:round;">
<circle cx="45275.9" cy="40003" r="1791.34" /> 
<circle cx="4650.94" cy="40003" r="1791.34" /> 
<circle cx="3713.44" cy="10091.5" r="1791.34" /> 
<circle cx="45686.9" cy="10091.5" r="1791.34" /> 
<g >
</g>
<g >
</g>
<g >
</g>
<g >
</g>
<g >
</g>
<g >
</g>
<g >
</g>
<g >
</g>
<g >
</g>
<g >
</g>
<g >
</g>
<g >
</g>
<g >
</g>
<g >
</g>
<g >
</g>
<g >
</g>
<g >
</g>
<g >
</g>
<g >
</g>
<g >
</g>
<g >
</g>
<g >
</g>
<g >
</g>
<g >
</g>
<g >
</g>
<g >
</g>
<g >
</g>
<g >
</g>
<g >
</g>
<g >
</g>
<g >
</g>
<g >
</g>
<g >
</g>
<g >
</g>
<g >
</g>
<g >
</g>
<g >
</g>
<g >
</g>
<g >
</g>
<g >
</g>
<g >
</g>
<g >
</g>
<g >
</g>
<g >
</g>
<g >
</g>
<g >
</g>
<g >
</g>
<g >
</g>
<g >
</g>
<g >
</g>
<g >
</g>
<g >
</g>
<g >
</g>
<g >
</g>
<g >
</g>
<g >
</g>
<g >
</g>
<g >
</g>
<g >
</g>
<g >
</g>
<g >
</g>
<g >
</g>
<g >
</g>
<g >
</g>
<g >
</g>
<g >
</g>
<g >
</g>
<g >
</g>
<g >
</g>
<g >
</g>
<g >
</g>
<g >
</g>
<g >
</g>
<g >
</g>
</g>
<g style="fill:#000000; fill-opacity:0.0; 
stroke:#000000; stroke-width:19.685; stroke-opacity:1; 
stroke-linecap:round; stroke-linejoin:round;">
</g>
<g style="fill:#C2C2C2; fill-opacity:0.0; 
stroke:#C2C2C2; stroke-width:19.685; stroke-opacity:1; 
stroke-linecap:round; stroke-linejoin:round;">
</g>
<g style="fill:#C2C2C2; fill-opacity:0.0; 
stroke:#C2C2C2; stroke-width:78.7402; stroke-opacity:1; 
stroke-linecap:round; stroke-linejoin:round;">
<path d="M37125 7340
L37125 4440
" />
<path d="M37125 4440
L39125 4440
" />
<path d="M39125 4440
L39125 7340
" />
<path d="M39125 7340
L37125 7340
" />
</g>
<g style="fill:#C2C2C2; fill-opacity:0.0; 
stroke:#C2C2C2; stroke-width:59.0551; stroke-opacity:1; 
stroke-linecap:round; stroke-linejoin:round;">
<path d="M4478 43435
L3176 36049
" />
<path d="M19250 40831
L4478 43435
" />
<path d="M17948 33445
L19250 40831
" />
<path d="M3176 36049
L17948 33445
" />
<path d="M8020 36204
L8157 36980
" />
<path d="M8796 36068
L8020 36204
" />
<path d="M8977 41633
L9753 41496
" />
<path d="M8841 40857
L8977 41633
" />
<path d="M14406 40675
L14269 39900
" />
<path d="M13630 40812
L14406 40675
" />
<path d="M13448 35247
L13585 36023
" />
<path d="M12673 35384
L13448 35247
" />
</g>
<g style="fill:#C2C2C2; fill-opacity:0.0; 
stroke:#C2C2C2; stroke-width:60; stroke-opacity:1; 
stroke-linecap:round; stroke-linejoin:round;">
<path d="M15284 41120
L8305 42351
" />
<path d="M8305 42351
L7142 35760
" />
<path d="M7142 35760
L14121 34529
" />
<path d="M14121 34529
L15284 41120
" />
</g>
<g style="fill:#C2C2C2; fill-opacity:0.0; 
stroke:#C2C2C2; stroke-width:59.0551; stroke-opacity:1; 
stroke-linecap:round; stroke-linejoin:round;">
<path d="M12833 35156
L13608 35019
" />
<path d="M13608 35019
L13745 35795
" />
<path d="M7792 36045
L7929 36820
" />
<path d="M8568 35908
L7792 36045
" />
<path d="M13858 40972
L14634 40835
" />
<path d="M9593 41724
L8818 41861
" />
<path d="M14634 40835
L14497 40060
" />
<path d="M8818 41861
L8681 41085
" />
<path d="M20135 39518
L20135 38730
" />
<path d="M26041 39518
L26041 38730
" />
<path d="M20923 39518
L20135 39518
" />
<path d="M25253 39518
L26041 39518
" />
<path d="M20923 33612
L20135 33612
" />
<path d="M20135 33612
L20135 34400
" />
<path d="M26041 33612
L26041 34400
" />
<path d="M25253 33612
L26041 33612
" />
</g>
<g style="fill:#C2C2C2; fill-opacity:0.0; 
stroke:#C2C2C2; stroke-width:60; stroke-opacity:1; 
stroke-linecap:round; stroke-linejoin:round;">
<path d="M26631 33218
L26631 39911
" />
<path d="M19545 33218
L26631 33218
" />
<path d="M19545 39911
L19545 33218
" />
<path d="M26631 39911
L19545 39911
" />
<path d="M34131 41786
L27045 41786
" />
<path d="M27045 41786
L27045 35093
" />
<path d="M27045 35093
L34131 35093
" />
<path d="M34131 35093
L34131 41786
" />
</g>
<g style="fill:#C2C2C2; fill-opacity:0.0; 
stroke:#C2C2C2; stroke-width:59.0551; stroke-opacity:1; 
stroke-linecap:round; stroke-linejoin:round;">
<path d="M32753 35487
L33541 35487
" />
<path d="M33541 35487
L33541 36275
" />
<path d="M27635 35487
L27635 36275
" />
<path d="M28423 35487
L27635 35487
" />
<path d="M32753 41393
L33541 41393
" />
<path d="M28423 41393
L27635 41393
" />
<path d="M33541 41393
L33541 40605
" />
<path d="M27635 41393
L27635 40605
" />
<path d="M35135 43268
L35135 42480
" />
<path d="M41041 43268
L41041 42480
" />
<path d="M35923 43268
L35135 43268
" />
<path d="M40253 43268
L41041 43268
" />
<path d="M35923 37362
L35135 37362
" />
<path d="M35135 37362
L35135 38150
" />
<path d="M41041 37362
L41041 38150
" />
<path d="M40253 37362
L41041 37362
" />
</g>
<g style="fill:#C2C2C2; fill-opacity:0.0; 
stroke:#C2C2C2; stroke-width:60; stroke-opacity:1; 
stroke-linecap:round; stroke-linejoin:round;">
<path d="M41631 36968
L41631 43661
" />
<path d="M34545 36968
L41631 36968
" />
<path d="M34545 43661
L34545 36968
" />
<path d="M41631 43661
L34545 43661
" />
<path d="M47256 36161
L40170 36161
" />
<path d="M40170 36161
L40170 29468
" />
<path d="M40170 29468
L47256 29468
" />
<path d="M47256 29468
L47256 36161
" />
</g>
<g style="fill:#C2C2C2; fill-opacity:0.0; 
stroke:#C2C2C2; stroke-width:59.0551; stroke-opacity:1; 
stroke-linecap:round; stroke-linejoin:round;">
<path d="M45878 29862
L46666 29862
" />
<path d="M46666 29862
L46666 30650
" />
<path d="M40760 29862
L40760 30650
" />
<path d="M41548 29862
L40760 29862
" />
<path d="M45878 35768
L46666 35768
" />
<path d="M41548 35768
L40760 35768
" />
<path d="M46666 35768
L46666 34980
" />
<path d="M40760 35768
L40760 34980
" />
<path d="M33260 33893
L33260 33105
" />
<path d="M39166 33893
L39166 33105
" />
<path d="M34048 33893
L33260 33893
" />
<path d="M38378 33893
L39166 33893
" />
<path d="M34048 27987
L33260 27987
" />
<path d="M33260 27987
L33260 28775
" />
<path d="M39166 27987
L39166 28775
" />
<path d="M38378 27987
L39166 27987
" />
</g>
<g style="fill:#C2C2C2; fill-opacity:0.0; 
stroke:#C2C2C2; stroke-width:60; stroke-opacity:1; 
stroke-linecap:round; stroke-linejoin:round;">
<path d="M39756 27593
L39756 34286
" />
<path d="M32670 27593
L39756 27593
" />
<path d="M32670 34286
L32670 27593
" />
<path d="M39756 34286
L32670 34286
" />
<path d="M32256 32411
L25170 32411
" />
<path d="M25170 32411
L25170 25718
" />
<path d="M25170 25718
L32256 25718
" />
<path d="M32256 25718
L32256 32411
" />
</g>
<g style="fill:#C2C2C2; fill-opacity:0.0; 
stroke:#C2C2C2; stroke-width:59.0551; stroke-opacity:1; 
stroke-linecap:round; stroke-linejoin:round;">
<path d="M30878 26112
L31666 26112
" />
<path d="M31666 26112
L31666 26900
" />
<path d="M25760 26112
L25760 26900
" />
<path d="M26548 26112
L25760 26112
" />
<path d="M30878 32018
L31666 32018
" />
<path d="M26548 32018
L25760 32018
" />
<path d="M31666 32018
L31666 31230
" />
<path d="M25760 32018
L25760 31230
" />
<path d="M18260 30143
L18260 29355
" />
<path d="M24166 30143
L24166 29355
" />
<path d="M19048 30143
L18260 30143
" />
<path d="M23378 30143
L24166 30143
" />
<path d="M19048 24237
L18260 24237
" />
<path d="M18260 24237
L18260 25025
" />
<path d="M24166 24237
L24166 25025
" />
<path d="M23378 24237
L24166 24237
" />
</g>
<g style="fill:#C2C2C2; fill-opacity:0.0; 
stroke:#C2C2C2; stroke-width:60; stroke-opacity:1; 
stroke-linecap:round; stroke-linejoin:round;">
<path d="M24756 23843
L24756 30536
" />
<path d="M17670 23843
L24756 23843
" />
<path d="M17670 30536
L17670 23843
" />
<path d="M24756 30536
L17670 30536
" />
<path d="M17256 32411
L10170 32411
" />
<path d="M10170 32411
L10170 25718
" />
<path d="M10170 25718
L17256 25718
" />
<path d="M17256 25718
L17256 32411
" />
</g>
<g style="fill:#C2C2C2; fill-opacity:0.0; 
stroke:#C2C2C2; stroke-width:59.0551; stroke-opacity:1; 
stroke-linecap:round; stroke-linejoin:round;">
<path d="M15878 26112
L16666 26112
" />
<path d="M16666 26112
L16666 26900
" />
<path d="M10760 26112
L10760 26900
" />
<path d="M11548 26112
L10760 26112
" />
<path d="M15878 32018
L16666 32018
" />
<path d="M11548 32018
L10760 32018
" />
<path d="M16666 32018
L16666 31230
" />
<path d="M10760 32018
L10760 31230
" />
<path d="M3260 33893
L3260 33105
" />
<path d="M9166 33893
L9166 33105
" />
<path d="M4048 33893
L3260 33893
" />
<path d="M8378 33893
L9166 33893
" />
<path d="M4048 27987
L3260 27987
" />
<path d="M3260 27987
L3260 28775
" />
<path d="M9166 27987
L9166 28775
" />
<path d="M8378 27987
L9166 27987
" />
</g>
<g style="fill:#C2C2C2; fill-opacity:0.0; 
stroke:#C2C2C2; stroke-width:60; stroke-opacity:1; 
stroke-linecap:round; stroke-linejoin:round;">
<path d="M9756 27593
L9756 34286
" />
<path d="M2670 27593
L9756 27593
" />
<path d="M2670 34286
L2670 27593
" />
<path d="M9756 34286
L2670 34286
" />
<path d="M9756 26786
L2670 26786
" />
<path d="M2670 26786
L2670 20093
" />
<path d="M2670 20093
L9756 20093
" />
<path d="M9756 20093
L9756 26786
" />
</g>
<g style="fill:#C2C2C2; fill-opacity:0.0; 
stroke:#C2C2C2; stroke-width:59.0551; stroke-opacity:1; 
stroke-linecap:round; stroke-linejoin:round;">
<path d="M8378 20487
L9166 20487
" />
<path d="M9166 20487
L9166 21275
" />
<path d="M3260 20487
L3260 21275
" />
<path d="M4048 20487
L3260 20487
" />
<path d="M8378 26393
L9166 26393
" />
<path d="M4048 26393
L3260 26393
" />
<path d="M9166 26393
L9166 25605
" />
<path d="M3260 26393
L3260 25605
" />
<path d="M10760 24518
L10760 23730
" />
<path d="M16666 24518
L16666 23730
" />
<path d="M11548 24518
L10760 24518
" />
<path d="M15878 24518
L16666 24518
" />
<path d="M11548 18612
L10760 18612
" />
<path d="M10760 18612
L10760 19400
" />
<path d="M16666 18612
L16666 19400
" />
<path d="M15878 18612
L16666 18612
" />
</g>
<g style="fill:#C2C2C2; fill-opacity:0.0; 
stroke:#C2C2C2; stroke-width:60; stroke-opacity:1; 
stroke-linecap:round; stroke-linejoin:round;">
<path d="M17256 18218
L17256 24911
" />
<path d="M10170 18218
L17256 18218
" />
<path d="M10170 24911
L10170 18218
" />
<path d="M17256 24911
L10170 24911
" />
<path d="M24756 23036
L17670 23036
" />
<path d="M17670 23036
L17670 16343
" />
<path d="M17670 16343
L24756 16343
" />
<path d="M24756 16343
L24756 23036
" />
</g>
<g style="fill:#C2C2C2; fill-opacity:0.0; 
stroke:#C2C2C2; stroke-width:59.0551; stroke-opacity:1; 
stroke-linecap:round; stroke-linejoin:round;">
<path d="M23378 16737
L24166 16737
" />
<path d="M24166 16737
L24166 17525
" />
<path d="M18260 16737
L18260 17525
" />
<path d="M19048 16737
L18260 16737
" />
<path d="M23378 22643
L24166 22643
" />
<path d="M19048 22643
L18260 22643
" />
<path d="M24166 22643
L24166 21855
" />
<path d="M18260 22643
L18260 21855
" />
<path d="M25760 24518
L25760 23730
" />
<path d="M31666 24518
L31666 23730
" />
<path d="M26548 24518
L25760 24518
" />
<path d="M30878 24518
L31666 24518
" />
<path d="M26548 18612
L25760 18612
" />
<path d="M25760 18612
L25760 19400
" />
<path d="M31666 18612
L31666 19400
" />
<path d="M30878 18612
L31666 18612
" />
</g>
<g style="fill:#C2C2C2; fill-opacity:0.0; 
stroke:#C2C2C2; stroke-width:60; stroke-opacity:1; 
stroke-linecap:round; stroke-linejoin:round;">
<path d="M32256 18218
L32256 24911
" />
<path d="M25170 18218
L32256 18218
" />
<path d="M25170 24911
L25170 18218
" />
<path d="M32256 24911
L25170 24911
" />
<path d="M39756 26786
L32670 26786
" />
<path d="M32670 26786
L32670 20093
" />
<path d="M32670 20093
L39756 20093
" />
<path d="M39756 20093
L39756 26786
" />
</g>
<g style="fill:#C2C2C2; fill-opacity:0.0; 
stroke:#C2C2C2; stroke-width:59.0551; stroke-opacity:1; 
stroke-linecap:round; stroke-linejoin:round;">
<path d="M38378 20487
L39166 20487
" />
<path d="M39166 20487
L39166 21275
" />
<path d="M33260 20487
L33260 21275
" />
<path d="M34048 20487
L33260 20487
" />
<path d="M38378 26393
L39166 26393
" />
<path d="M34048 26393
L33260 26393
" />
<path d="M39166 26393
L39166 25605
" />
<path d="M33260 26393
L33260 25605
" />
<path d="M40760 28268
L40760 27480
" />
<path d="M46666 28268
L46666 27480
" />
<path d="M41548 28268
L40760 28268
" />
<path d="M45878 28268
L46666 28268
" />
<path d="M41548 22362
L40760 22362
" />
<path d="M40760 22362
L40760 23150
" />
<path d="M46666 22362
L46666 23150
" />
<path d="M45878 22362
L46666 22362
" />
</g>
<g style="fill:#C2C2C2; fill-opacity:0.0; 
stroke:#C2C2C2; stroke-width:60; stroke-opacity:1; 
stroke-linecap:round; stroke-linejoin:round;">
<path d="M47256 21968
L47256 28661
" />
<path d="M40170 21968
L47256 21968
" />
<path d="M40170 28661
L40170 21968
" />
<path d="M47256 28661
L40170 28661
" />
<path d="M47256 21161
L40170 21161
" />
<path d="M40170 21161
L40170 14468
" />
<path d="M40170 14468
L47256 14468
" />
<path d="M47256 14468
L47256 21161
" />
</g>
<g style="fill:#C2C2C2; fill-opacity:0.0; 
stroke:#C2C2C2; stroke-width:59.0551; stroke-opacity:1; 
stroke-linecap:round; stroke-linejoin:round;">
<path d="M45878 14862
L46666 14862
" />
<path d="M46666 14862
L46666 15650
" />
<path d="M40760 14862
L40760 15650
" />
<path d="M41548 14862
L40760 14862
" />
<path d="M45878 20768
L46666 20768
" />
<path d="M41548 20768
L40760 20768
" />
<path d="M46666 20768
L46666 19980
" />
<path d="M40760 20768
L40760 19980
" />
<path d="M33260 18893
L33260 18105
" />
<path d="M39166 18893
L39166 18105
" />
<path d="M34048 18893
L33260 18893
" />
<path d="M38378 18893
L39166 18893
" />
<path d="M34048 12987
L33260 12987
" />
<path d="M33260 12987
L33260 13775
" />
<path d="M39166 12987
L39166 13775
" />
<path d="M38378 12987
L39166 12987
" />
</g>
<g style="fill:#C2C2C2; fill-opacity:0.0; 
stroke:#C2C2C2; stroke-width:60; stroke-opacity:1; 
stroke-linecap:round; stroke-linejoin:round;">
<path d="M39756 12593
L39756 19286
" />
<path d="M32670 12593
L39756 12593
" />
<path d="M32670 19286
L32670 12593
" />
<path d="M39756 19286
L32670 19286
" />
<path d="M32256 17411
L25170 17411
" />
<path d="M25170 17411
L25170 10718
" />
<path d="M25170 10718
L32256 10718
" />
<path d="M32256 10718
L32256 17411
" />
</g>
<g style="fill:#C2C2C2; fill-opacity:0.0; 
stroke:#C2C2C2; stroke-width:59.0551; stroke-opacity:1; 
stroke-linecap:round; stroke-linejoin:round;">
<path d="M30878 11112
L31666 11112
" />
<path d="M31666 11112
L31666 11900
" />
<path d="M25760 11112
L25760 11900
" />
<path d="M26548 11112
L25760 11112
" />
<path d="M30878 17018
L31666 17018
" />
<path d="M26548 17018
L25760 17018
" />
<path d="M31666 17018
L31666 16230
" />
<path d="M25760 17018
L25760 16230
" />
<path d="M18260 15143
L18260 14355
" />
<path d="M24166 15143
L24166 14355
" />
<path d="M19048 15143
L18260 15143
" />
<path d="M23378 15143
L24166 15143
" />
<path d="M19048 9237
L18260 9237
" />
<path d="M18260 9237
L18260 10025
" />
<path d="M24166 9237
L24166 10025
" />
<path d="M23378 9237
L24166 9237
" />
</g>
<g style="fill:#C2C2C2; fill-opacity:0.0; 
stroke:#C2C2C2; stroke-width:60; stroke-opacity:1; 
stroke-linecap:round; stroke-linejoin:round;">
<path d="M24756 8843
L24756 15536
" />
<path d="M17670 8843
L24756 8843
" />
<path d="M17670 15536
L17670 8843
" />
<path d="M24756 15536
L17670 15536
" />
<path d="M17256 17411
L10170 17411
" />
<path d="M10170 17411
L10170 10718
" />
<path d="M10170 10718
L17256 10718
" />
<path d="M17256 10718
L17256 17411
" />
</g>
<g style="fill:#C2C2C2; fill-opacity:0.0; 
stroke:#C2C2C2; stroke-width:59.0551; stroke-opacity:1; 
stroke-linecap:round; stroke-linejoin:round;">
<path d="M15878 11112
L16666 11112
" />
<path d="M16666 11112
L16666 11900
" />
<path d="M10760 11112
L10760 11900
" />
<path d="M11548 11112
L10760 11112
" />
<path d="M15878 17018
L16666 17018
" />
<path d="M11548 17018
L10760 17018
" />
<path d="M16666 17018
L16666 16230
" />
<path d="M10760 17018
L10760 16230
" />
</g>
<g style="fill:#C2C2C2; fill-opacity:0.0; 
stroke:#C2C2C2; stroke-width:60; stroke-opacity:1; 
stroke-linecap:round; stroke-linejoin:round;">
<path d="M9756 19286
L2670 19286
" />
<path d="M2670 19286
L2670 12593
" />
<path d="M2670 12593
L9756 12593
" />
<path d="M9756 12593
L9756 19286
" />
</g>
<g style="fill:#C2C2C2; fill-opacity:0.0; 
stroke:#C2C2C2; stroke-width:59.0551; stroke-opacity:1; 
stroke-linecap:round; stroke-linejoin:round;">
<path d="M8378 12987
L9166 12987
" />
<path d="M9166 12987
L9166 13775
" />
<path d="M3260 12987
L3260 13775
" />
<path d="M4048 12987
L3260 12987
" />
<path d="M8378 18893
L9166 18893
" />
<path d="M4048 18893
L3260 18893
" />
<path d="M9166 18893
L9166 18105
" />
<path d="M3260 18893
L3260 18105
" />
<path d="M19338 40315
L19338 32815
" />
<path d="M26838 40315
L19338 40315
" />
<path d="M26838 32815
L26838 40315
" />
<path d="M19338 32815
L26838 32815
" />
<path d="M20332 33809
L20332 34596
" />
<path d="M21119 33809
L20332 33809
" />
<path d="M20332 39321
L21119 39321
" />
<path d="M20332 38533
L20332 39321
" />
<path d="M25844 39321
L25844 38533
" />
<path d="M25056 39321
L25844 39321
" />
<path d="M25844 33809
L25844 34596
" />
<path d="M25056 33809
L25844 33809
" />
<path d="M26838 42190
L26838 34690
" />
<path d="M34338 42190
L26838 42190
" />
<path d="M34338 34690
L34338 42190
" />
<path d="M26838 34690
L34338 34690
" />
<path d="M27832 35684
L27832 36471
" />
<path d="M28619 35684
L27832 35684
" />
<path d="M27832 41196
L28619 41196
" />
<path d="M27832 40408
L27832 41196
" />
<path d="M33344 41196
L33344 40408
" />
<path d="M32556 41196
L33344 41196
" />
<path d="M33344 35684
L33344 36471
" />
<path d="M32556 35684
L33344 35684
" />
<path d="M34338 44065
L34338 36565
" />
<path d="M41838 44065
L34338 44065
" />
<path d="M41838 36565
L41838 44065
" />
<path d="M34338 36565
L41838 36565
" />
<path d="M35332 37559
L35332 38346
" />
<path d="M36119 37559
L35332 37559
" />
<path d="M35332 43071
L36119 43071
" />
<path d="M35332 42283
L35332 43071
" />
<path d="M40844 43071
L40844 42283
" />
<path d="M40056 43071
L40844 43071
" />
<path d="M40844 37559
L40844 38346
" />
<path d="M40056 37559
L40844 37559
" />
<path d="M2463 34690
L2463 27190
" />
<path d="M9963 34690
L2463 34690
" />
<path d="M9963 27190
L9963 34690
" />
<path d="M2463 27190
L9963 27190
" />
<path d="M3457 28184
L3457 28971
" />
<path d="M4244 28184
L3457 28184
" />
<path d="M3457 33696
L4244 33696
" />
<path d="M3457 32908
L3457 33696
" />
<path d="M8969 33696
L8969 32908
" />
<path d="M8181 33696
L8969 33696
" />
<path d="M8969 28184
L8969 28971
" />
<path d="M8181 28184
L8969 28184
" />
<path d="M9963 32815
L9963 25315
" />
<path d="M17463 32815
L9963 32815
" />
<path d="M17463 25315
L17463 32815
" />
<path d="M9963 25315
L17463 25315
" />
<path d="M10957 26309
L10957 27096
" />
<path d="M11744 26309
L10957 26309
" />
<path d="M10957 31821
L11744 31821
" />
<path d="M10957 31033
L10957 31821
" />
<path d="M16469 31821
L16469 31033
" />
<path d="M15681 31821
L16469 31821
" />
<path d="M16469 26309
L16469 27096
" />
<path d="M15681 26309
L16469 26309
" />
<path d="M17463 30940
L17463 23440
" />
<path d="M24963 30940
L17463 30940
" />
<path d="M24963 23440
L24963 30940
" />
<path d="M17463 23440
L24963 23440
" />
<path d="M18457 24434
L18457 25221
" />
<path d="M19244 24434
L18457 24434
" />
<path d="M18457 29946
L19244 29946
" />
<path d="M18457 29158
L18457 29946
" />
<path d="M23969 29946
L23969 29158
" />
<path d="M23181 29946
L23969 29946
" />
<path d="M23969 24434
L23969 25221
" />
<path d="M23181 24434
L23969 24434
" />
<path d="M24963 32815
L24963 25315
" />
<path d="M32463 32815
L24963 32815
" />
<path d="M32463 25315
L32463 32815
" />
<path d="M24963 25315
L32463 25315
" />
<path d="M25957 26309
L25957 27096
" />
<path d="M26744 26309
L25957 26309
" />
<path d="M25957 31821
L26744 31821
" />
<path d="M25957 31033
L25957 31821
" />
<path d="M31469 31821
L31469 31033
" />
<path d="M30681 31821
L31469 31821
" />
<path d="M31469 26309
L31469 27096
" />
<path d="M30681 26309
L31469 26309
" />
<path d="M32463 34690
L32463 27190
" />
<path d="M39963 34690
L32463 34690
" />
<path d="M39963 27190
L39963 34690
" />
<path d="M32463 27190
L39963 27190
" />
<path d="M33457 28184
L33457 28971
" />
<path d="M34244 28184
L33457 28184
" />
<path d="M33457 33696
L34244 33696
" />
<path d="M33457 32908
L33457 33696
" />
<path d="M38969 33696
L38969 32908
" />
<path d="M38181 33696
L38969 33696
" />
<path d="M38969 28184
L38969 28971
" />
<path d="M38181 28184
L38969 28184
" />
<path d="M39963 36565
L39963 29065
" />
<path d="M47463 36565
L39963 36565
" />
<path d="M47463 29065
L47463 36565
" />
<path d="M39963 29065
L47463 29065
" />
<path d="M40957 30059
L40957 30846
" />
<path d="M41744 30059
L40957 30059
" />
<path d="M40957 35571
L41744 35571
" />
<path d="M40957 34783
L40957 35571
" />
<path d="M46469 35571
L46469 34783
" />
<path d="M45681 35571
L46469 35571
" />
<path d="M46469 30059
L46469 30846
" />
<path d="M45681 30059
L46469 30059
" />
<path d="M2463 27190
L2463 19690
" />
<path d="M9963 27190
L2463 27190
" />
<path d="M9963 19690
L9963 27190
" />
<path d="M2463 19690
L9963 19690
" />
<path d="M3457 20684
L3457 21471
" />
<path d="M4244 20684
L3457 20684
" />
<path d="M3457 26196
L4244 26196
" />
<path d="M3457 25408
L3457 26196
" />
<path d="M8969 26196
L8969 25408
" />
<path d="M8181 26196
L8969 26196
" />
<path d="M8969 20684
L8969 21471
" />
<path d="M8181 20684
L8969 20684
" />
<path d="M9963 25315
L9963 17815
" />
<path d="M17463 25315
L9963 25315
" />
<path d="M17463 17815
L17463 25315
" />
<path d="M9963 17815
L17463 17815
" />
<path d="M10957 18809
L10957 19596
" />
<path d="M11744 18809
L10957 18809
" />
<path d="M10957 24321
L11744 24321
" />
<path d="M10957 23533
L10957 24321
" />
<path d="M16469 24321
L16469 23533
" />
<path d="M15681 24321
L16469 24321
" />
<path d="M16469 18809
L16469 19596
" />
<path d="M15681 18809
L16469 18809
" />
<path d="M17463 23440
L17463 15940
" />
<path d="M24963 23440
L17463 23440
" />
<path d="M24963 15940
L24963 23440
" />
<path d="M17463 15940
L24963 15940
" />
<path d="M18457 16934
L18457 17721
" />
<path d="M19244 16934
L18457 16934
" />
<path d="M18457 22446
L19244 22446
" />
<path d="M18457 21658
L18457 22446
" />
<path d="M23969 22446
L23969 21658
" />
<path d="M23181 22446
L23969 22446
" />
<path d="M23969 16934
L23969 17721
" />
<path d="M23181 16934
L23969 16934
" />
<path d="M24963 25315
L24963 17815
" />
<path d="M32463 25315
L24963 25315
" />
<path d="M32463 17815
L32463 25315
" />
<path d="M24963 17815
L32463 17815
" />
<path d="M25957 18809
L25957 19596
" />
<path d="M26744 18809
L25957 18809
" />
<path d="M25957 24321
L26744 24321
" />
<path d="M25957 23533
L25957 24321
" />
<path d="M31469 24321
L31469 23533
" />
<path d="M30681 24321
L31469 24321
" />
<path d="M31469 18809
L31469 19596
" />
<path d="M30681 18809
L31469 18809
" />
<path d="M32463 27190
L32463 19690
" />
<path d="M39963 27190
L32463 27190
" />
<path d="M39963 19690
L39963 27190
" />
<path d="M32463 19690
L39963 19690
" />
<path d="M33457 20684
L33457 21471
" />
<path d="M34244 20684
L33457 20684
" />
<path d="M33457 26196
L34244 26196
" />
<path d="M33457 25408
L33457 26196
" />
<path d="M38969 26196
L38969 25408
" />
<path d="M38181 26196
L38969 26196
" />
<path d="M38969 20684
L38969 21471
" />
<path d="M38181 20684
L38969 20684
" />
<path d="M39963 29065
L39963 21565
" />
<path d="M47463 29065
L39963 29065
" />
<path d="M47463 21565
L47463 29065
" />
<path d="M39963 21565
L47463 21565
" />
<path d="M40957 22559
L40957 23346
" />
<path d="M41744 22559
L40957 22559
" />
<path d="M40957 28071
L41744 28071
" />
<path d="M40957 27283
L40957 28071
" />
<path d="M46469 28071
L46469 27283
" />
<path d="M45681 28071
L46469 28071
" />
<path d="M46469 22559
L46469 23346
" />
<path d="M45681 22559
L46469 22559
" />
<path d="M2463 19690
L2463 12190
" />
<path d="M9963 19690
L2463 19690
" />
<path d="M9963 12190
L9963 19690
" />
<path d="M2463 12190
L9963 12190
" />
<path d="M3457 13184
L3457 13971
" />
<path d="M4244 13184
L3457 13184
" />
<path d="M3457 18696
L4244 18696
" />
<path d="M3457 17908
L3457 18696
" />
<path d="M8969 18696
L8969 17908
" />
<path d="M8181 18696
L8969 18696
" />
<path d="M8969 13184
L8969 13971
" />
<path d="M8181 13184
L8969 13184
" />
<path d="M9963 17815
L9963 10315
" />
<path d="M17463 17815
L9963 17815
" />
<path d="M17463 10315
L17463 17815
" />
<path d="M9963 10315
L17463 10315
" />
<path d="M10957 11309
L10957 12096
" />
<path d="M11744 11309
L10957 11309
" />
<path d="M10957 16821
L11744 16821
" />
<path d="M10957 16033
L10957 16821
" />
<path d="M16469 16821
L16469 16033
" />
<path d="M15681 16821
L16469 16821
" />
<path d="M16469 11309
L16469 12096
" />
<path d="M15681 11309
L16469 11309
" />
<path d="M17463 15940
L17463 8440
" />
<path d="M24963 15940
L17463 15940
" />
<path d="M24963 8440
L24963 15940
" />
<path d="M17463 8440
L24963 8440
" />
<path d="M18457 9434
L18457 10221
" />
<path d="M19244 9434
L18457 9434
" />
<path d="M18457 14946
L19244 14946
" />
<path d="M18457 14158
L18457 14946
" />
<path d="M23969 14946
L23969 14158
" />
<path d="M23181 14946
L23969 14946
" />
<path d="M23969 9434
L23969 10221
" />
<path d="M23181 9434
L23969 9434
" />
<path d="M24963 17815
L24963 10315
" />
<path d="M32463 17815
L24963 17815
" />
<path d="M32463 10315
L32463 17815
" />
<path d="M24963 10315
L32463 10315
" />
<path d="M25957 11309
L25957 12096
" />
<path d="M26744 11309
L25957 11309
" />
<path d="M25957 16821
L26744 16821
" />
<path d="M25957 16033
L25957 16821
" />
<path d="M31469 16821
L31469 16033
" />
<path d="M30681 16821
L31469 16821
" />
<path d="M31469 11309
L31469 12096
" />
<path d="M30681 11309
L31469 11309
" />
<path d="M32463 19690
L32463 12190
" />
<path d="M39963 19690
L32463 19690
" />
<path d="M39963 12190
L39963 19690
" />
<path d="M32463 12190
L39963 12190
" />
<path d="M33457 13184
L33457 13971
" />
<path d="M34244 13184
L33457 13184
" />
<path d="M33457 18696
L34244 18696
" />
<path d="M33457 17908
L33457 18696
" />
<path d="M38969 18696
L38969 17908
" />
<path d="M38181 18696
L38969 18696
" />
<path d="M38969 13184
L38969 13971
" />
<path d="M38181 13184
L38969 13184
" />
<path d="M39963 21565
L39963 14065
" />
<path d="M47463 21565
L39963 21565
" />
<path d="M47463 14065
L47463 21565
" />
<path d="M39963 14065
L47463 14065
" />
<path d="M40957 15059
L40957 15846
" />
<path d="M41744 15059
L40957 15059
" />
<path d="M40957 20571
L41744 20571
" />
<path d="M40957 19783
L40957 20571
" />
<path d="M46469 20571
L46469 19783
" />
<path d="M45681 20571
L46469 20571
" />
<path d="M46469 15059
L46469 15846
" />
<path d="M45681 15059
L46469 15059
" />
<g >
</g>
<g >
</g>
<g >
</g>
<g >
</g>
<g >
</g>
<g >
</g>
<g >
</g>
<g >
</g>
<g >
</g>
<g >
</g>
<g >
</g>
<g >
</g>
<g >
</g>
<g >
</g>
<g >
</g>
<g >
</g>
<g >
</g>
<g >
</g>
<g >
</g>
<g >
</g>
<g >
</g>
<g >
</g>
<g >
</g>
<g >
</g>
<g >
</g>
<g >
</g>
<g >
</g>
<g >
</g>
<g >
</g>
<g >
</g>
<g >
</g>
<g >
</g>
<g >
</g>
<g >
</g>
<g >
</g>
<g >
</g>
<g >
</g>
<g >
</g>
<g >
</g>
<g >
</g>
<g >
</g>
<g >
</g>
<g >
</g>
<g >
</g>
<g >
</g>
<g >
</g>
<g >
</g>
<g >
</g>
<g >
</g>
<g >
</g>
<g >
</g>
<g >
</g>
<g >
</g>
<g >
</g>
<g >
</g>
<g >
</g>
<g >
</g>
<g >
</g>
<g >
</g>
<g >
</g>
<g >
</g>
<g >
</g>
<g >
</g>
<g >
</g>
<g >
</g>
<g >
</g>
<g >
</g>
<g >
</g>
<g >
</g>
<g >
</g>
<g >
</g>
<g >
</g>
<g >
</g>
</g>
<g style="fill:#C2C2C2; fill-opacity:0.0; 
stroke:#C2C2C2; stroke-width:59.0551; stroke-opacity:1; 
stroke-linecap:round; stroke-linejoin:round;">
<text x="12150.9" y="8290.35"
textLength="787.402" font-size="524.934" lengthAdjust="spacingAndGlyphs"
text-anchor="middle" opacity="0">U2</text>
<path d="M11850 7877
L11850 8196
L11869 8234
L11888 8252
L11925 8271
L12000 8271
L12038 8252
L12057 8234
L12075 8196
L12075 7877
" />
<path d="M12244 7915
L12263 7896
L12300 7877
L12394 7877
L12432 7896
L12450 7915
L12469 7952
L12469 7990
L12450 8046
L12225 8271
L12469 8271
" />
<g transform="rotate(-10 10670.8 35362.9)">
<text x="10670.8" y="35559.8"
textLength="1989.03" font-size="524.934" lengthAdjust="spacingAndGlyphs"
text-anchor="middle" opacity="0">KEYSW</text>
</g>
<path d="M9852 35688
L9784 35300
" />
<path d="M10073 35649
L9868 35456
" />
<path d="M10005 35261
L9823 35521
" />
<path d="M10204 35416
L10333 35393
" />
<path d="M10424 35587
L10240 35619
L10171 35231
L10356 35199
" />
<path d="M10632 35360
L10664 35544
" />
<path d="M10467 35179
L10632 35360
L10725 35134
" />
<path d="M10901 35484
L10960 35492
L11052 35476
L11086 35451
L11101 35429
L11113 35389
L11106 35352
L11081 35319
L11060 35303
L11019 35291
L10942 35286
L10902 35274
L10880 35259
L10855 35225
L10849 35188
L10861 35148
L10876 35126
L10910 35101
L11002 35085
L11061 35094
" />
<path d="M11187 35052
L11347 35424
L11372 35134
L11495 35398
L11519 34994
" />
</g>
<g style="fill:#C2C2C2; fill-opacity:0.0; 
stroke:#C2C2C2; stroke-width:78.7402; stroke-opacity:1; 
stroke-linecap:round; stroke-linejoin:round;">
<g transform="rotate(-10 10725.1 35670.7)">
<text x="10725.1" y="35867.5"
textLength="807.93" font-size="524.934" lengthAdjust="spacingAndGlyphs"
text-anchor="middle" opacity="0">1u</text>
</g>
<path d="M10691 35857
L10469 35896
" />
<path d="M10580 35877
L10512 35489
L10485 35551
L10454 35594
L10420 35619
" />
<path d="M10978 35540
L11023 35798
" />
<path d="M10811 35569
L10847 35772
L10872 35806
L10912 35818
L10968 35808
L11001 35783
L11017 35761
" />
</g>
<g style="fill:#C2C2C2; fill-opacity:0.0; 
stroke:#C2C2C2; stroke-width:59.0551; stroke-opacity:1; 
stroke-linecap:round; stroke-linejoin:round;">
<g transform="rotate(-10 11396.3 39477.6)">
<text x="11396.3" y="39674.5"
textLength="1789.65" font-size="524.934" lengthAdjust="spacingAndGlyphs"
text-anchor="middle" opacity="0">REF**</text>
</g>
<path d="M10910 39744
L10748 39582
" />
<path d="M10688 39783
L10620 39395
L10768 39369
L10808 39381
L10829 39396
L10854 39430
L10864 39485
L10852 39525
L10837 39547
L10803 39572
L10656 39598
" />
<path d="M11040 39511
L11169 39488
" />
<path d="M11261 39682
L11076 39714
L11008 39327
L11192 39294
" />
<path d="M11520 39427
L11391 39449
" />
<path d="M11427 39653
L11358 39265
L11543 39232
" />
<path d="M11746 39196
L11762 39289
" />
<path d="M11664 39268
L11762 39289
L11848 39236
" />
<path d="M11720 39372
L11762 39289
L11831 39353
" />
<path d="M12042 39144
L12058 39237
" />
<path d="M11959 39216
L12058 39237
L12144 39183
" />
<path d="M12015 39320
L12058 39237
L12126 39301
" />
</g>
<g style="fill:#C2C2C2; fill-opacity:0.0; 
stroke:#C2C2C2; stroke-width:78.7402; stroke-opacity:1; 
stroke-linecap:round; stroke-linejoin:round;">
<text x="23088.4" y="33949.8"
textLength="807.93" font-size="524.934" lengthAdjust="spacingAndGlyphs"
text-anchor="middle" opacity="0">1u</text>
<path d="M23022 33931
L22797 33931
" />
<path d="M22910 33931
L22910 33537
L22872 33593
L22835 33631
L22797 33649
" />
<path d="M23360 33668
L23360 33931
" />
<path d="M23191 33668
L23191 33874
L23210 33912
L23247 33931
L23304 33931
L23341 33912
L23360 33893
" />
</g>
<g style="fill:#C2C2C2; fill-opacity:0.0; 
stroke:#C2C2C2; stroke-width:59.0551; stroke-opacity:1; 
stroke-linecap:round; stroke-linejoin:round;">
<text x="23088.4" y="37815.5"
textLength="1789.65" font-size="524.934" lengthAdjust="spacingAndGlyphs"
text-anchor="middle" opacity="0">REF**</text>
<path d="M22563 37796
L22432 37609
" />
<path d="M22338 37796
L22338 37403
L22488 37403
L22526 37421
L22544 37440
L22563 37477
L22563 37534
L22544 37571
L22526 37590
L22488 37609
L22338 37609
" />
<path d="M22732 37590
L22863 37590
" />
<path d="M22919 37796
L22732 37796
L22732 37403
L22919 37403
" />
<path d="M23219 37590
L23088 37590
" />
<path d="M23088 37796
L23088 37403
L23275 37403
" />
<path d="M23482 37403
L23482 37496
" />
<path d="M23388 37459
L23482 37496
L23575 37459
" />
<path d="M23425 37571
L23482 37496
L23538 37571
" />
<path d="M23782 37403
L23782 37496
" />
<path d="M23688 37459
L23782 37496
L23875 37459
" />
<path d="M23725 37571
L23782 37496
L23838 37571
" />
</g>
<g style="fill:#C2C2C2; fill-opacity:0.0; 
stroke:#C2C2C2; stroke-width:78.7402; stroke-opacity:1; 
stroke-linecap:round; stroke-linejoin:round;">
<text x="30588.4" y="35824.8"
textLength="807.93" font-size="524.934" lengthAdjust="spacingAndGlyphs"
text-anchor="middle" opacity="0">1u</text>
<path d="M30522 35806
L30297 35806
" />
<path d="M30410 35806
L30410 35412
L30372 35468
L30335 35506
L30297 35524
" />
<path d="M30860 35543
L30860 35806
" />
<path d="M30691 35543
L30691 35749
L30710 35787
L30747 35806
L30804 35806
L30841 35787
L30860 35768
" />
</g>
<g style="fill:#C2C2C2; fill-opacity:0.0; 
stroke:#C2C2C2; stroke-width:59.0551; stroke-opacity:1; 
stroke-linecap:round; stroke-linejoin:round;">
<text x="30588.4" y="39690.5"
textLength="1789.65" font-size="524.934" lengthAdjust="spacingAndGlyphs"
text-anchor="middle" opacity="0">REF**</text>
<path d="M30063 39671
L29932 39484
" />
<path d="M29838 39671
L29838 39278
L29988 39278
L30026 39296
L30044 39315
L30063 39352
L30063 39409
L30044 39446
L30026 39465
L29988 39484
L29838 39484
" />
<path d="M30232 39465
L30363 39465
" />
<path d="M30419 39671
L30232 39671
L30232 39278
L30419 39278
" />
<path d="M30719 39465
L30588 39465
" />
<path d="M30588 39671
L30588 39278
L30775 39278
" />
<path d="M30982 39278
L30982 39371
" />
<path d="M30888 39334
L30982 39371
L31075 39334
" />
<path d="M30925 39446
L30982 39371
L31038 39446
" />
<path d="M31282 39278
L31282 39371
" />
<path d="M31188 39334
L31282 39371
L31375 39334
" />
<path d="M31225 39446
L31282 39371
L31338 39446
" />
</g>
<g style="fill:#C2C2C2; fill-opacity:0.0; 
stroke:#C2C2C2; stroke-width:78.7402; stroke-opacity:1; 
stroke-linecap:round; stroke-linejoin:round;">
<text x="38088.4" y="37699.8"
textLength="807.93" font-size="524.934" lengthAdjust="spacingAndGlyphs"
text-anchor="middle" opacity="0">1u</text>
<path d="M38022 37681
L37797 37681
" />
<path d="M37910 37681
L37910 37287
L37872 37343
L37835 37381
L37797 37399
" />
<path d="M38360 37418
L38360 37681
" />
<path d="M38191 37418
L38191 37624
L38210 37662
L38247 37681
L38304 37681
L38341 37662
L38360 37643
" />
</g>
<g style="fill:#C2C2C2; fill-opacity:0.0; 
stroke:#C2C2C2; stroke-width:59.0551; stroke-opacity:1; 
stroke-linecap:round; stroke-linejoin:round;">
<text x="38088.4" y="41565.5"
textLength="1789.65" font-size="524.934" lengthAdjust="spacingAndGlyphs"
text-anchor="middle" opacity="0">REF**</text>
<path d="M37563 41546
L37432 41359
" />
<path d="M37338 41546
L37338 41153
L37488 41153
L37526 41171
L37544 41190
L37563 41227
L37563 41284
L37544 41321
L37526 41340
L37488 41359
L37338 41359
" />
<path d="M37732 41340
L37863 41340
" />
<path d="M37919 41546
L37732 41546
L37732 41153
L37919 41153
" />
<path d="M38219 41340
L38088 41340
" />
<path d="M38088 41546
L38088 41153
L38275 41153
" />
<path d="M38482 41153
L38482 41246
" />
<path d="M38388 41209
L38482 41246
L38575 41209
" />
<path d="M38425 41321
L38482 41246
L38538 41321
" />
<path d="M38782 41153
L38782 41246
" />
<path d="M38688 41209
L38782 41246
L38875 41209
" />
<path d="M38725 41321
L38782 41246
L38838 41321
" />
</g>
<g style="fill:#C2C2C2; fill-opacity:0.0; 
stroke:#C2C2C2; stroke-width:78.7402; stroke-opacity:1; 
stroke-linecap:round; stroke-linejoin:round;">
<text x="43713.4" y="30199.8"
textLength="807.93" font-size="524.934" lengthAdjust="spacingAndGlyphs"
text-anchor="middle" opacity="0">1u</text>
<path d="M43647 30181
L43422 30181
" />
<path d="M43535 30181
L43535 29787
L43497 29843
L43460 29881
L43422 29899
" />
<path d="M43985 29918
L43985 30181
" />
<path d="M43816 29918
L43816 30124
L43835 30162
L43872 30181
L43929 30181
L43966 30162
L43985 30143
" />
</g>
<g style="fill:#C2C2C2; fill-opacity:0.0; 
stroke:#C2C2C2; stroke-width:59.0551; stroke-opacity:1; 
stroke-linecap:round; stroke-linejoin:round;">
<text x="43713.4" y="34065.5"
textLength="1789.65" font-size="524.934" lengthAdjust="spacingAndGlyphs"
text-anchor="middle" opacity="0">REF**</text>
<path d="M43188 34046
L43057 33859
" />
<path d="M42963 34046
L42963 33653
L43113 33653
L43151 33671
L43169 33690
L43188 33727
L43188 33784
L43169 33821
L43151 33840
L43113 33859
L42963 33859
" />
<path d="M43357 33840
L43488 33840
" />
<path d="M43544 34046
L43357 34046
L43357 33653
L43544 33653
" />
<path d="M43844 33840
L43713 33840
" />
<path d="M43713 34046
L43713 33653
L43900 33653
" />
<path d="M44107 33653
L44107 33746
" />
<path d="M44013 33709
L44107 33746
L44200 33709
" />
<path d="M44050 33821
L44107 33746
L44163 33821
" />
<path d="M44407 33653
L44407 33746
" />
<path d="M44313 33709
L44407 33746
L44500 33709
" />
<path d="M44350 33821
L44407 33746
L44463 33821
" />
</g>
<g style="fill:#C2C2C2; fill-opacity:0.0; 
stroke:#C2C2C2; stroke-width:78.7402; stroke-opacity:1; 
stroke-linecap:round; stroke-linejoin:round;">
<text x="36213.4" y="28324.8"
textLength="807.93" font-size="524.934" lengthAdjust="spacingAndGlyphs"
text-anchor="middle" opacity="0">1u</text>
<path d="M36147 28306
L35922 28306
" />
<path d="M36035 28306
L36035 27912
L35997 27968
L35960 28006
L35922 28024
" />
<path d="M36485 28043
L36485 28306
" />
<path d="M36316 28043
L36316 28249
L36335 28287
L36372 28306
L36429 28306
L36466 28287
L36485 28268
" />
</g>
<g style="fill:#C2C2C2; fill-opacity:0.0; 
stroke:#C2C2C2; stroke-width:59.0551; stroke-opacity:1; 
stroke-linecap:round; stroke-linejoin:round;">
<text x="36213.4" y="32190.5"
textLength="1789.65" font-size="524.934" lengthAdjust="spacingAndGlyphs"
text-anchor="middle" opacity="0">REF**</text>
<path d="M35688 32171
L35557 31984
" />
<path d="M35463 32171
L35463 31778
L35613 31778
L35651 31796
L35669 31815
L35688 31852
L35688 31909
L35669 31946
L35651 31965
L35613 31984
L35463 31984
" />
<path d="M35857 31965
L35988 31965
" />
<path d="M36044 32171
L35857 32171
L35857 31778
L36044 31778
" />
<path d="M36344 31965
L36213 31965
" />
<path d="M36213 32171
L36213 31778
L36400 31778
" />
<path d="M36607 31778
L36607 31871
" />
<path d="M36513 31834
L36607 31871
L36700 31834
" />
<path d="M36550 31946
L36607 31871
L36663 31946
" />
<path d="M36907 31778
L36907 31871
" />
<path d="M36813 31834
L36907 31871
L37000 31834
" />
<path d="M36850 31946
L36907 31871
L36963 31946
" />
</g>
<g style="fill:#C2C2C2; fill-opacity:0.0; 
stroke:#C2C2C2; stroke-width:78.7402; stroke-opacity:1; 
stroke-linecap:round; stroke-linejoin:round;">
<text x="28713.4" y="26449.8"
textLength="807.93" font-size="524.934" lengthAdjust="spacingAndGlyphs"
text-anchor="middle" opacity="0">1u</text>
<path d="M28647 26431
L28422 26431
" />
<path d="M28535 26431
L28535 26037
L28497 26093
L28460 26131
L28422 26149
" />
<path d="M28985 26168
L28985 26431
" />
<path d="M28816 26168
L28816 26374
L28835 26412
L28872 26431
L28929 26431
L28966 26412
L28985 26393
" />
</g>
<g style="fill:#C2C2C2; fill-opacity:0.0; 
stroke:#C2C2C2; stroke-width:59.0551; stroke-opacity:1; 
stroke-linecap:round; stroke-linejoin:round;">
<text x="28713.4" y="30315.5"
textLength="1789.65" font-size="524.934" lengthAdjust="spacingAndGlyphs"
text-anchor="middle" opacity="0">REF**</text>
<path d="M28188 30296
L28057 30109
" />
<path d="M27963 30296
L27963 29903
L28113 29903
L28151 29921
L28169 29940
L28188 29977
L28188 30034
L28169 30071
L28151 30090
L28113 30109
L27963 30109
" />
<path d="M28357 30090
L28488 30090
" />
<path d="M28544 30296
L28357 30296
L28357 29903
L28544 29903
" />
<path d="M28844 30090
L28713 30090
" />
<path d="M28713 30296
L28713 29903
L28900 29903
" />
<path d="M29107 29903
L29107 29996
" />
<path d="M29013 29959
L29107 29996
L29200 29959
" />
<path d="M29050 30071
L29107 29996
L29163 30071
" />
<path d="M29407 29903
L29407 29996
" />
<path d="M29313 29959
L29407 29996
L29500 29959
" />
<path d="M29350 30071
L29407 29996
L29463 30071
" />
</g>
<g style="fill:#C2C2C2; fill-opacity:0.0; 
stroke:#C2C2C2; stroke-width:78.7402; stroke-opacity:1; 
stroke-linecap:round; stroke-linejoin:round;">
<text x="21213.4" y="24574.8"
textLength="807.93" font-size="524.934" lengthAdjust="spacingAndGlyphs"
text-anchor="middle" opacity="0">1u</text>
<path d="M21147 24556
L20922 24556
" />
<path d="M21035 24556
L21035 24162
L20997 24218
L20960 24256
L20922 24274
" />
<path d="M21485 24293
L21485 24556
" />
<path d="M21316 24293
L21316 24499
L21335 24537
L21372 24556
L21429 24556
L21466 24537
L21485 24518
" />
</g>
<g style="fill:#C2C2C2; fill-opacity:0.0; 
stroke:#C2C2C2; stroke-width:59.0551; stroke-opacity:1; 
stroke-linecap:round; stroke-linejoin:round;">
<text x="21213.4" y="28440.5"
textLength="1789.65" font-size="524.934" lengthAdjust="spacingAndGlyphs"
text-anchor="middle" opacity="0">REF**</text>
<path d="M20688 28421
L20557 28234
" />
<path d="M20463 28421
L20463 28028
L20613 28028
L20651 28046
L20669 28065
L20688 28102
L20688 28159
L20669 28196
L20651 28215
L20613 28234
L20463 28234
" />
<path d="M20857 28215
L20988 28215
" />
<path d="M21044 28421
L20857 28421
L20857 28028
L21044 28028
" />
<path d="M21344 28215
L21213 28215
" />
<path d="M21213 28421
L21213 28028
L21400 28028
" />
<path d="M21607 28028
L21607 28121
" />
<path d="M21513 28084
L21607 28121
L21700 28084
" />
<path d="M21550 28196
L21607 28121
L21663 28196
" />
<path d="M21907 28028
L21907 28121
" />
<path d="M21813 28084
L21907 28121
L22000 28084
" />
<path d="M21850 28196
L21907 28121
L21963 28196
" />
</g>
<g style="fill:#C2C2C2; fill-opacity:0.0; 
stroke:#C2C2C2; stroke-width:78.7402; stroke-opacity:1; 
stroke-linecap:round; stroke-linejoin:round;">
<text x="13713.4" y="26449.8"
textLength="807.93" font-size="524.934" lengthAdjust="spacingAndGlyphs"
text-anchor="middle" opacity="0">1u</text>
<path d="M13647 26431
L13422 26431
" />
<path d="M13535 26431
L13535 26037
L13497 26093
L13460 26131
L13422 26149
" />
<path d="M13985 26168
L13985 26431
" />
<path d="M13816 26168
L13816 26374
L13835 26412
L13872 26431
L13929 26431
L13966 26412
L13985 26393
" />
</g>
<g style="fill:#C2C2C2; fill-opacity:0.0; 
stroke:#C2C2C2; stroke-width:59.0551; stroke-opacity:1; 
stroke-linecap:round; stroke-linejoin:round;">
<text x="13713.4" y="30315.5"
textLength="1789.65" font-size="524.934" lengthAdjust="spacingAndGlyphs"
text-anchor="middle" opacity="0">REF**</text>
<path d="M13188 30296
L13057 30109
" />
<path d="M12963 30296
L12963 29903
L13113 29903
L13151 29921
L13169 29940
L13188 29977
L13188 30034
L13169 30071
L13151 30090
L13113 30109
L12963 30109
" />
<path d="M13357 30090
L13488 30090
" />
<path d="M13544 30296
L13357 30296
L13357 29903
L13544 29903
" />
<path d="M13844 30090
L13713 30090
" />
<path d="M13713 30296
L13713 29903
L13900 29903
" />
<path d="M14107 29903
L14107 29996
" />
<path d="M14013 29959
L14107 29996
L14200 29959
" />
<path d="M14050 30071
L14107 29996
L14163 30071
" />
<path d="M14407 29903
L14407 29996
" />
<path d="M14313 29959
L14407 29996
L14500 29959
" />
<path d="M14350 30071
L14407 29996
L14463 30071
" />
</g>
<g style="fill:#C2C2C2; fill-opacity:0.0; 
stroke:#C2C2C2; stroke-width:78.7402; stroke-opacity:1; 
stroke-linecap:round; stroke-linejoin:round;">
<text x="6213.44" y="28324.8"
textLength="807.93" font-size="524.934" lengthAdjust="spacingAndGlyphs"
text-anchor="middle" opacity="0">1u</text>
<path d="M6147 28306
L5922 28306
" />
<path d="M6035 28306
L6035 27912
L5997 27968
L5960 28006
L5922 28024
" />
<path d="M6485 28043
L6485 28306
" />
<path d="M6316 28043
L6316 28249
L6335 28287
L6372 28306
L6429 28306
L6466 28287
L6485 28268
" />
</g>
<g style="fill:#C2C2C2; fill-opacity:0.0; 
stroke:#C2C2C2; stroke-width:59.0551; stroke-opacity:1; 
stroke-linecap:round; stroke-linejoin:round;">
<text x="6213.44" y="32190.5"
textLength="1789.65" font-size="524.934" lengthAdjust="spacingAndGlyphs"
text-anchor="middle" opacity="0">REF**</text>
<path d="M5688 32171
L5557 31984
" />
<path d="M5463 32171
L5463 31778
L5613 31778
L5651 31796
L5669 31815
L5688 31852
L5688 31909
L5669 31946
L5651 31965
L5613 31984
L5463 31984
" />
<path d="M5857 31965
L5988 31965
" />
<path d="M6044 32171
L5857 32171
L5857 31778
L6044 31778
" />
<path d="M6344 31965
L6213 31965
" />
<path d="M6213 32171
L6213 31778
L6400 31778
" />
<path d="M6607 31778
L6607 31871
" />
<path d="M6513 31834
L6607 31871
L6700 31834
" />
<path d="M6550 31946
L6607 31871
L6663 31946
" />
<path d="M6907 31778
L6907 31871
" />
<path d="M6813 31834
L6907 31871
L7000 31834
" />
<path d="M6850 31946
L6907 31871
L6963 31946
" />
</g>
<g style="fill:#C2C2C2; fill-opacity:0.0; 
stroke:#C2C2C2; stroke-width:78.7402; stroke-opacity:1; 
stroke-linecap:round; stroke-linejoin:round;">
<text x="6213.44" y="20824.8"
textLength="807.93" font-size="524.934" lengthAdjust="spacingAndGlyphs"
text-anchor="middle" opacity="0">1u</text>
<path d="M6147 20806
L5922 20806
" />
<path d="M6035 20806
L6035 20412
L5997 20468
L5960 20506
L5922 20524
" />
<path d="M6485 20543
L6485 20806
" />
<path d="M6316 20543
L6316 20749
L6335 20787
L6372 20806
L6429 20806
L6466 20787
L6485 20768
" />
</g>
<g style="fill:#C2C2C2; fill-opacity:0.0; 
stroke:#C2C2C2; stroke-width:59.0551; stroke-opacity:1; 
stroke-linecap:round; stroke-linejoin:round;">
<text x="6213.44" y="24690.5"
textLength="1789.65" font-size="524.934" lengthAdjust="spacingAndGlyphs"
text-anchor="middle" opacity="0">REF**</text>
<path d="M5688 24671
L5557 24484
" />
<path d="M5463 24671
L5463 24278
L5613 24278
L5651 24296
L5669 24315
L5688 24352
L5688 24409
L5669 24446
L5651 24465
L5613 24484
L5463 24484
" />
<path d="M5857 24465
L5988 24465
" />
<path d="M6044 24671
L5857 24671
L5857 24278
L6044 24278
" />
<path d="M6344 24465
L6213 24465
" />
<path d="M6213 24671
L6213 24278
L6400 24278
" />
<path d="M6607 24278
L6607 24371
" />
<path d="M6513 24334
L6607 24371
L6700 24334
" />
<path d="M6550 24446
L6607 24371
L6663 24446
" />
<path d="M6907 24278
L6907 24371
" />
<path d="M6813 24334
L6907 24371
L7000 24334
" />
<path d="M6850 24446
L6907 24371
L6963 24446
" />
</g>
<g style="fill:#C2C2C2; fill-opacity:0.0; 
stroke:#C2C2C2; stroke-width:78.7402; stroke-opacity:1; 
stroke-linecap:round; stroke-linejoin:round;">
<text x="13713.4" y="18949.8"
textLength="807.93" font-size="524.934" lengthAdjust="spacingAndGlyphs"
text-anchor="middle" opacity="0">1u</text>
<path d="M13647 18931
L13422 18931
" />
<path d="M13535 18931
L13535 18537
L13497 18593
L13460 18631
L13422 18649
" />
<path d="M13985 18668
L13985 18931
" />
<path d="M13816 18668
L13816 18874
L13835 18912
L13872 18931
L13929 18931
L13966 18912
L13985 18893
" />
</g>
<g style="fill:#C2C2C2; fill-opacity:0.0; 
stroke:#C2C2C2; stroke-width:59.0551; stroke-opacity:1; 
stroke-linecap:round; stroke-linejoin:round;">
<text x="13713.4" y="22815.5"
textLength="1789.65" font-size="524.934" lengthAdjust="spacingAndGlyphs"
text-anchor="middle" opacity="0">REF**</text>
<path d="M13188 22796
L13057 22609
" />
<path d="M12963 22796
L12963 22403
L13113 22403
L13151 22421
L13169 22440
L13188 22477
L13188 22534
L13169 22571
L13151 22590
L13113 22609
L12963 22609
" />
<path d="M13357 22590
L13488 22590
" />
<path d="M13544 22796
L13357 22796
L13357 22403
L13544 22403
" />
<path d="M13844 22590
L13713 22590
" />
<path d="M13713 22796
L13713 22403
L13900 22403
" />
<path d="M14107 22403
L14107 22496
" />
<path d="M14013 22459
L14107 22496
L14200 22459
" />
<path d="M14050 22571
L14107 22496
L14163 22571
" />
<path d="M14407 22403
L14407 22496
" />
<path d="M14313 22459
L14407 22496
L14500 22459
" />
<path d="M14350 22571
L14407 22496
L14463 22571
" />
</g>
<g style="fill:#C2C2C2; fill-opacity:0.0; 
stroke:#C2C2C2; stroke-width:78.7402; stroke-opacity:1; 
stroke-linecap:round; stroke-linejoin:round;">
<text x="21213.4" y="17074.8"
textLength="807.93" font-size="524.934" lengthAdjust="spacingAndGlyphs"
text-anchor="middle" opacity="0">1u</text>
<path d="M21147 17056
L20922 17056
" />
<path d="M21035 17056
L21035 16662
L20997 16718
L20960 16756
L20922 16774
" />
<path d="M21485 16793
L21485 17056
" />
<path d="M21316 16793
L21316 16999
L21335 17037
L21372 17056
L21429 17056
L21466 17037
L21485 17018
" />
</g>
<g style="fill:#C2C2C2; fill-opacity:0.0; 
stroke:#C2C2C2; stroke-width:59.0551; stroke-opacity:1; 
stroke-linecap:round; stroke-linejoin:round;">
<text x="21213.4" y="20940.5"
textLength="1789.65" font-size="524.934" lengthAdjust="spacingAndGlyphs"
text-anchor="middle" opacity="0">REF**</text>
<path d="M20688 20921
L20557 20734
" />
<path d="M20463 20921
L20463 20528
L20613 20528
L20651 20546
L20669 20565
L20688 20602
L20688 20659
L20669 20696
L20651 20715
L20613 20734
L20463 20734
" />
<path d="M20857 20715
L20988 20715
" />
<path d="M21044 20921
L20857 20921
L20857 20528
L21044 20528
" />
<path d="M21344 20715
L21213 20715
" />
<path d="M21213 20921
L21213 20528
L21400 20528
" />
<path d="M21607 20528
L21607 20621
" />
<path d="M21513 20584
L21607 20621
L21700 20584
" />
<path d="M21550 20696
L21607 20621
L21663 20696
" />
<path d="M21907 20528
L21907 20621
" />
<path d="M21813 20584
L21907 20621
L22000 20584
" />
<path d="M21850 20696
L21907 20621
L21963 20696
" />
</g>
<g style="fill:#C2C2C2; fill-opacity:0.0; 
stroke:#C2C2C2; stroke-width:78.7402; stroke-opacity:1; 
stroke-linecap:round; stroke-linejoin:round;">
<text x="28713.4" y="18949.8"
textLength="807.93" font-size="524.934" lengthAdjust="spacingAndGlyphs"
text-anchor="middle" opacity="0">1u</text>
<path d="M28647 18931
L28422 18931
" />
<path d="M28535 18931
L28535 18537
L28497 18593
L28460 18631
L28422 18649
" />
<path d="M28985 18668
L28985 18931
" />
<path d="M28816 18668
L28816 18874
L28835 18912
L28872 18931
L28929 18931
L28966 18912
L28985 18893
" />
</g>
<g style="fill:#C2C2C2; fill-opacity:0.0; 
stroke:#C2C2C2; stroke-width:59.0551; stroke-opacity:1; 
stroke-linecap:round; stroke-linejoin:round;">
<text x="28713.4" y="22815.5"
textLength="1789.65" font-size="524.934" lengthAdjust="spacingAndGlyphs"
text-anchor="middle" opacity="0">REF**</text>
<path d="M28188 22796
L28057 22609
" />
<path d="M27963 22796
L27963 22403
L28113 22403
L28151 22421
L28169 22440
L28188 22477
L28188 22534
L28169 22571
L28151 22590
L28113 22609
L27963 22609
" />
<path d="M28357 22590
L28488 22590
" />
<path d="M28544 22796
L28357 22796
L28357 22403
L28544 22403
" />
<path d="M28844 22590
L28713 22590
" />
<path d="M28713 22796
L28713 22403
L28900 22403
" />
<path d="M29107 22403
L29107 22496
" />
<path d="M29013 22459
L29107 22496
L29200 22459
" />
<path d="M29050 22571
L29107 22496
L29163 22571
" />
<path d="M29407 22403
L29407 22496
" />
<path d="M29313 22459
L29407 22496
L29500 22459
" />
<path d="M29350 22571
L29407 22496
L29463 22571
" />
</g>
<g style="fill:#C2C2C2; fill-opacity:0.0; 
stroke:#C2C2C2; stroke-width:78.7402; stroke-opacity:1; 
stroke-linecap:round; stroke-linejoin:round;">
<text x="36213.4" y="20824.8"
textLength="807.93" font-size="524.934" lengthAdjust="spacingAndGlyphs"
text-anchor="middle" opacity="0">1u</text>
<path d="M36147 20806
L35922 20806
" />
<path d="M36035 20806
L36035 20412
L35997 20468
L35960 20506
L35922 20524
" />
<path d="M36485 20543
L36485 20806
" />
<path d="M36316 20543
L36316 20749
L36335 20787
L36372 20806
L36429 20806
L36466 20787
L36485 20768
" />
</g>
<g style="fill:#C2C2C2; fill-opacity:0.0; 
stroke:#C2C2C2; stroke-width:59.0551; stroke-opacity:1; 
stroke-linecap:round; stroke-linejoin:round;">
<text x="36213.4" y="24690.5"
textLength="1789.65" font-size="524.934" lengthAdjust="spacingAndGlyphs"
text-anchor="middle" opacity="0">REF**</text>
<path d="M35688 24671
L35557 24484
" />
<path d="M35463 24671
L35463 24278
L35613 24278
L35651 24296
L35669 24315
L35688 24352
L35688 24409
L35669 24446
L35651 24465
L35613 24484
L35463 24484
" />
<path d="M35857 24465
L35988 24465
" />
<path d="M36044 24671
L35857 24671
L35857 24278
L36044 24278
" />
<path d="M36344 24465
L36213 24465
" />
<path d="M36213 24671
L36213 24278
L36400 24278
" />
<path d="M36607 24278
L36607 24371
" />
<path d="M36513 24334
L36607 24371
L36700 24334
" />
<path d="M36550 24446
L36607 24371
L36663 24446
" />
<path d="M36907 24278
L36907 24371
" />
<path d="M36813 24334
L36907 24371
L37000 24334
" />
<path d="M36850 24446
L36907 24371
L36963 24446
" />
</g>
<g style="fill:#C2C2C2; fill-opacity:0.0; 
stroke:#C2C2C2; stroke-width:78.7402; stroke-opacity:1; 
stroke-linecap:round; stroke-linejoin:round;">
<text x="43713.4" y="22699.8"
textLength="807.93" font-size="524.934" lengthAdjust="spacingAndGlyphs"
text-anchor="middle" opacity="0">1u</text>
<path d="M43647 22681
L43422 22681
" />
<path d="M43535 22681
L43535 22287
L43497 22343
L43460 22381
L43422 22399
" />
<path d="M43985 22418
L43985 22681
" />
<path d="M43816 22418
L43816 22624
L43835 22662
L43872 22681
L43929 22681
L43966 22662
L43985 22643
" />
</g>
<g style="fill:#C2C2C2; fill-opacity:0.0; 
stroke:#C2C2C2; stroke-width:59.0551; stroke-opacity:1; 
stroke-linecap:round; stroke-linejoin:round;">
<text x="43713.4" y="26565.5"
textLength="1789.65" font-size="524.934" lengthAdjust="spacingAndGlyphs"
text-anchor="middle" opacity="0">REF**</text>
<path d="M43188 26546
L43057 26359
" />
<path d="M42963 26546
L42963 26153
L43113 26153
L43151 26171
L43169 26190
L43188 26227
L43188 26284
L43169 26321
L43151 26340
L43113 26359
L42963 26359
" />
<path d="M43357 26340
L43488 26340
" />
<path d="M43544 26546
L43357 26546
L43357 26153
L43544 26153
" />
<path d="M43844 26340
L43713 26340
" />
<path d="M43713 26546
L43713 26153
L43900 26153
" />
<path d="M44107 26153
L44107 26246
" />
<path d="M44013 26209
L44107 26246
L44200 26209
" />
<path d="M44050 26321
L44107 26246
L44163 26321
" />
<path d="M44407 26153
L44407 26246
" />
<path d="M44313 26209
L44407 26246
L44500 26209
" />
<path d="M44350 26321
L44407 26246
L44463 26321
" />
</g>
<g style="fill:#C2C2C2; fill-opacity:0.0; 
stroke:#C2C2C2; stroke-width:78.7402; stroke-opacity:1; 
stroke-linecap:round; stroke-linejoin:round;">
<text x="43713.4" y="15199.8"
textLength="807.93" font-size="524.934" lengthAdjust="spacingAndGlyphs"
text-anchor="middle" opacity="0">1u</text>
<path d="M43647 15181
L43422 15181
" />
<path d="M43535 15181
L43535 14787
L43497 14843
L43460 14881
L43422 14899
" />
<path d="M43985 14918
L43985 15181
" />
<path d="M43816 14918
L43816 15124
L43835 15162
L43872 15181
L43929 15181
L43966 15162
L43985 15143
" />
</g>
<g style="fill:#C2C2C2; fill-opacity:0.0; 
stroke:#C2C2C2; stroke-width:59.0551; stroke-opacity:1; 
stroke-linecap:round; stroke-linejoin:round;">
<text x="43713.4" y="19065.5"
textLength="1789.65" font-size="524.934" lengthAdjust="spacingAndGlyphs"
text-anchor="middle" opacity="0">REF**</text>
<path d="M43188 19046
L43057 18859
" />
<path d="M42963 19046
L42963 18653
L43113 18653
L43151 18671
L43169 18690
L43188 18727
L43188 18784
L43169 18821
L43151 18840
L43113 18859
L42963 18859
" />
<path d="M43357 18840
L43488 18840
" />
<path d="M43544 19046
L43357 19046
L43357 18653
L43544 18653
" />
<path d="M43844 18840
L43713 18840
" />
<path d="M43713 19046
L43713 18653
L43900 18653
" />
<path d="M44107 18653
L44107 18746
" />
<path d="M44013 18709
L44107 18746
L44200 18709
" />
<path d="M44050 18821
L44107 18746
L44163 18821
" />
<path d="M44407 18653
L44407 18746
" />
<path d="M44313 18709
L44407 18746
L44500 18709
" />
<path d="M44350 18821
L44407 18746
L44463 18821
" />
</g>
<g style="fill:#C2C2C2; fill-opacity:0.0; 
stroke:#C2C2C2; stroke-width:78.7402; stroke-opacity:1; 
stroke-linecap:round; stroke-linejoin:round;">
<text x="36213.4" y="13324.8"
textLength="807.93" font-size="524.934" lengthAdjust="spacingAndGlyphs"
text-anchor="middle" opacity="0">1u</text>
<path d="M36147 13306
L35922 13306
" />
<path d="M36035 13306
L36035 12912
L35997 12968
L35960 13006
L35922 13024
" />
<path d="M36485 13043
L36485 13306
" />
<path d="M36316 13043
L36316 13249
L36335 13287
L36372 13306
L36429 13306
L36466 13287
L36485 13268
" />
</g>
<g style="fill:#C2C2C2; fill-opacity:0.0; 
stroke:#C2C2C2; stroke-width:59.0551; stroke-opacity:1; 
stroke-linecap:round; stroke-linejoin:round;">
<text x="36213.4" y="17190.5"
textLength="1789.65" font-size="524.934" lengthAdjust="spacingAndGlyphs"
text-anchor="middle" opacity="0">REF**</text>
<path d="M35688 17171
L35557 16984
" />
<path d="M35463 17171
L35463 16778
L35613 16778
L35651 16796
L35669 16815
L35688 16852
L35688 16909
L35669 16946
L35651 16965
L35613 16984
L35463 16984
" />
<path d="M35857 16965
L35988 16965
" />
<path d="M36044 17171
L35857 17171
L35857 16778
L36044 16778
" />
<path d="M36344 16965
L36213 16965
" />
<path d="M36213 17171
L36213 16778
L36400 16778
" />
<path d="M36607 16778
L36607 16871
" />
<path d="M36513 16834
L36607 16871
L36700 16834
" />
<path d="M36550 16946
L36607 16871
L36663 16946
" />
<path d="M36907 16778
L36907 16871
" />
<path d="M36813 16834
L36907 16871
L37000 16834
" />
<path d="M36850 16946
L36907 16871
L36963 16946
" />
</g>
<g style="fill:#C2C2C2; fill-opacity:0.0; 
stroke:#C2C2C2; stroke-width:78.7402; stroke-opacity:1; 
stroke-linecap:round; stroke-linejoin:round;">
<text x="28713.4" y="11449.8"
textLength="807.93" font-size="524.934" lengthAdjust="spacingAndGlyphs"
text-anchor="middle" opacity="0">1u</text>
<path d="M28647 11431
L28422 11431
" />
<path d="M28535 11431
L28535 11037
L28497 11093
L28460 11131
L28422 11149
" />
<path d="M28985 11168
L28985 11431
" />
<path d="M28816 11168
L28816 11374
L28835 11412
L28872 11431
L28929 11431
L28966 11412
L28985 11393
" />
</g>
<g style="fill:#C2C2C2; fill-opacity:0.0; 
stroke:#C2C2C2; stroke-width:59.0551; stroke-opacity:1; 
stroke-linecap:round; stroke-linejoin:round;">
<text x="28713.4" y="15315.5"
textLength="1789.65" font-size="524.934" lengthAdjust="spacingAndGlyphs"
text-anchor="middle" opacity="0">REF**</text>
<path d="M28188 15296
L28057 15109
" />
<path d="M27963 15296
L27963 14903
L28113 14903
L28151 14921
L28169 14940
L28188 14977
L28188 15034
L28169 15071
L28151 15090
L28113 15109
L27963 15109
" />
<path d="M28357 15090
L28488 15090
" />
<path d="M28544 15296
L28357 15296
L28357 14903
L28544 14903
" />
<path d="M28844 15090
L28713 15090
" />
<path d="M28713 15296
L28713 14903
L28900 14903
" />
<path d="M29107 14903
L29107 14996
" />
<path d="M29013 14959
L29107 14996
L29200 14959
" />
<path d="M29050 15071
L29107 14996
L29163 15071
" />
<path d="M29407 14903
L29407 14996
" />
<path d="M29313 14959
L29407 14996
L29500 14959
" />
<path d="M29350 15071
L29407 14996
L29463 15071
" />
</g>
<g style="fill:#C2C2C2; fill-opacity:0.0; 
stroke:#C2C2C2; stroke-width:78.7402; stroke-opacity:1; 
stroke-linecap:round; stroke-linejoin:round;">
<text x="21213.4" y="9574.8"
textLength="807.93" font-size="524.934" lengthAdjust="spacingAndGlyphs"
text-anchor="middle" opacity="0">1u</text>
<path d="M21147 9556
L20922 9556
" />
<path d="M21035 9556
L21035 9162
L20997 9218
L20960 9256
L20922 9274
" />
<path d="M21485 9293
L21485 9556
" />
<path d="M21316 9293
L21316 9499
L21335 9537
L21372 9556
L21429 9556
L21466 9537
L21485 9518
" />
</g>
<g style="fill:#C2C2C2; fill-opacity:0.0; 
stroke:#C2C2C2; stroke-width:59.0551; stroke-opacity:1; 
stroke-linecap:round; stroke-linejoin:round;">
<text x="21213.4" y="13440.5"
textLength="1789.65" font-size="524.934" lengthAdjust="spacingAndGlyphs"
text-anchor="middle" opacity="0">REF**</text>
<path d="M20688 13421
L20557 13234
" />
<path d="M20463 13421
L20463 13028
L20613 13028
L20651 13046
L20669 13065
L20688 13102
L20688 13159
L20669 13196
L20651 13215
L20613 13234
L20463 13234
" />
<path d="M20857 13215
L20988 13215
" />
<path d="M21044 13421
L20857 13421
L20857 13028
L21044 13028
" />
<path d="M21344 13215
L21213 13215
" />
<path d="M21213 13421
L21213 13028
L21400 13028
" />
<path d="M21607 13028
L21607 13121
" />
<path d="M21513 13084
L21607 13121
L21700 13084
" />
<path d="M21550 13196
L21607 13121
L21663 13196
" />
<path d="M21907 13028
L21907 13121
" />
<path d="M21813 13084
L21907 13121
L22000 13084
" />
<path d="M21850 13196
L21907 13121
L21963 13196
" />
</g>
<g style="fill:#C2C2C2; fill-opacity:0.0; 
stroke:#C2C2C2; stroke-width:78.7402; stroke-opacity:1; 
stroke-linecap:round; stroke-linejoin:round;">
<text x="13713.4" y="11449.8"
textLength="807.93" font-size="524.934" lengthAdjust="spacingAndGlyphs"
text-anchor="middle" opacity="0">1u</text>
<path d="M13647 11431
L13422 11431
" />
<path d="M13535 11431
L13535 11037
L13497 11093
L13460 11131
L13422 11149
" />
<path d="M13985 11168
L13985 11431
" />
<path d="M13816 11168
L13816 11374
L13835 11412
L13872 11431
L13929 11431
L13966 11412
L13985 11393
" />
</g>
<g style="fill:#C2C2C2; fill-opacity:0.0; 
stroke:#C2C2C2; stroke-width:59.0551; stroke-opacity:1; 
stroke-linecap:round; stroke-linejoin:round;">
<text x="13713.4" y="15315.5"
textLength="1789.65" font-size="524.934" lengthAdjust="spacingAndGlyphs"
text-anchor="middle" opacity="0">REF**</text>
<path d="M13188 15296
L13057 15109
" />
<path d="M12963 15296
L12963 14903
L13113 14903
L13151 14921
L13169 14940
L13188 14977
L13188 15034
L13169 15071
L13151 15090
L13113 15109
L12963 15109
" />
<path d="M13357 15090
L13488 15090
" />
<path d="M13544 15296
L13357 15296
L13357 14903
L13544 14903
" />
<path d="M13844 15090
L13713 15090
" />
<path d="M13713 15296
L13713 14903
L13900 14903
" />
<path d="M14107 14903
L14107 14996
" />
<path d="M14013 14959
L14107 14996
L14200 14959
" />
<path d="M14050 15071
L14107 14996
L14163 15071
" />
<path d="M14407 14903
L14407 14996
" />
<path d="M14313 14959
L14407 14996
L14500 14959
" />
<path d="M14350 15071
L14407 14996
L14463 15071
" />
</g>
<g style="fill:#C2C2C2; fill-opacity:0.0; 
stroke:#C2C2C2; stroke-width:78.7402; stroke-opacity:1; 
stroke-linecap:round; stroke-linejoin:round;">
<text x="6213.44" y="13324.8"
textLength="807.93" font-size="524.934" lengthAdjust="spacingAndGlyphs"
text-anchor="middle" opacity="0">1u</text>
<path d="M6147 13306
L5922 13306
" />
<path d="M6035 13306
L6035 12912
L5997 12968
L5960 13006
L5922 13024
" />
<path d="M6485 13043
L6485 13306
" />
<path d="M6316 13043
L6316 13249
L6335 13287
L6372 13306
L6429 13306
L6466 13287
L6485 13268
" />
</g>
<g style="fill:#C2C2C2; fill-opacity:0.0; 
stroke:#C2C2C2; stroke-width:59.0551; stroke-opacity:1; 
stroke-linecap:round; stroke-linejoin:round;">
<text x="6213.44" y="17190.5"
textLength="1789.65" font-size="524.934" lengthAdjust="spacingAndGlyphs"
text-anchor="middle" opacity="0">REF**</text>
<path d="M5688 17171
L5557 16984
" />
<path d="M5463 17171
L5463 16778
L5613 16778
L5651 16796
L5669 16815
L5688 16852
L5688 16909
L5669 16946
L5651 16965
L5613 16984
L5463 16984
" />
<path d="M5857 16965
L5988 16965
" />
<path d="M6044 17171
L5857 17171
L5857 16778
L6044 16778
" />
<path d="M6344 16965
L6213 16965
" />
<path d="M6213 17171
L6213 16778
L6400 16778
" />
<path d="M6607 16778
L6607 16871
" />
<path d="M6513 16834
L6607 16871
L6700 16834
" />
<path d="M6550 16946
L6607 16871
L6663 16946
" />
<path d="M6907 16778
L6907 16871
" />
<path d="M6813 16834
L6907 16871
L7000 16834
" />
<path d="M6850 16946
L6907 16871
L6963 16946
" />
<text x="23088.4" y="33637.3"
textLength="1989.03" font-size="524.934" lengthAdjust="spacingAndGlyphs"
text-anchor="middle" opacity="0">KEYSW</text>
<path d="M22226 33618
L22226 33224
" />
<path d="M22451 33618
L22282 33393
" />
<path d="M22451 33224
L22226 33449
" />
<path d="M22619 33412
L22750 33412
" />
<path d="M22807 33618
L22619 33618
L22619 33224
L22807 33224
" />
<path d="M23050 33431
L23050 33618
" />
<path d="M22919 33224
L23050 33431
L23182 33224
" />
<path d="M23294 33599
L23350 33618
L23444 33618
L23482 33599
L23500 33581
L23519 33543
L23519 33506
L23500 33468
L23482 33449
L23444 33431
L23369 33412
L23332 33393
L23313 33374
L23294 33337
L23294 33299
L23313 33262
L23332 33243
L23369 33224
L23463 33224
L23519 33243
" />
<path d="M23650 33224
L23744 33618
L23819 33337
L23894 33618
L23988 33224
" />
<text x="30588.4" y="35512.3"
textLength="1989.03" font-size="524.934" lengthAdjust="spacingAndGlyphs"
text-anchor="middle" opacity="0">KEYSW</text>
<path d="M29726 35493
L29726 35099
" />
<path d="M29951 35493
L29782 35268
" />
<path d="M29951 35099
L29726 35324
" />
<path d="M30119 35287
L30250 35287
" />
<path d="M30307 35493
L30119 35493
L30119 35099
L30307 35099
" />
<path d="M30550 35306
L30550 35493
" />
<path d="M30419 35099
L30550 35306
L30682 35099
" />
<path d="M30794 35474
L30850 35493
L30944 35493
L30982 35474
L31000 35456
L31019 35418
L31019 35381
L31000 35343
L30982 35324
L30944 35306
L30869 35287
L30832 35268
L30813 35249
L30794 35212
L30794 35174
L30813 35137
L30832 35118
L30869 35099
L30963 35099
L31019 35118
" />
<path d="M31150 35099
L31244 35493
L31319 35212
L31394 35493
L31488 35099
" />
<text x="38088.4" y="37387.3"
textLength="1989.03" font-size="524.934" lengthAdjust="spacingAndGlyphs"
text-anchor="middle" opacity="0">KEYSW</text>
<path d="M37226 37368
L37226 36974
" />
<path d="M37451 37368
L37282 37143
" />
<path d="M37451 36974
L37226 37199
" />
<path d="M37619 37162
L37750 37162
" />
<path d="M37807 37368
L37619 37368
L37619 36974
L37807 36974
" />
<path d="M38050 37181
L38050 37368
" />
<path d="M37919 36974
L38050 37181
L38182 36974
" />
<path d="M38294 37349
L38350 37368
L38444 37368
L38482 37349
L38500 37331
L38519 37293
L38519 37256
L38500 37218
L38482 37199
L38444 37181
L38369 37162
L38332 37143
L38313 37124
L38294 37087
L38294 37049
L38313 37012
L38332 36993
L38369 36974
L38463 36974
L38519 36993
" />
<path d="M38650 36974
L38744 37368
L38819 37087
L38894 37368
L38988 36974
" />
<text x="6213.44" y="28012.3"
textLength="1989.03" font-size="524.934" lengthAdjust="spacingAndGlyphs"
text-anchor="middle" opacity="0">KEYSW</text>
<path d="M5351 27993
L5351 27599
" />
<path d="M5576 27993
L5407 27768
" />
<path d="M5576 27599
L5351 27824
" />
<path d="M5744 27787
L5875 27787
" />
<path d="M5932 27993
L5744 27993
L5744 27599
L5932 27599
" />
<path d="M6175 27806
L6175 27993
" />
<path d="M6044 27599
L6175 27806
L6307 27599
" />
<path d="M6419 27974
L6475 27993
L6569 27993
L6607 27974
L6625 27956
L6644 27918
L6644 27881
L6625 27843
L6607 27824
L6569 27806
L6494 27787
L6457 27768
L6438 27749
L6419 27712
L6419 27674
L6438 27637
L6457 27618
L6494 27599
L6588 27599
L6644 27618
" />
<path d="M6775 27599
L6869 27993
L6944 27712
L7019 27993
L7113 27599
" />
<text x="13713.4" y="26137.3"
textLength="1989.03" font-size="524.934" lengthAdjust="spacingAndGlyphs"
text-anchor="middle" opacity="0">KEYSW</text>
<path d="M12851 26118
L12851 25724
" />
<path d="M13076 26118
L12907 25893
" />
<path d="M13076 25724
L12851 25949
" />
<path d="M13244 25912
L13375 25912
" />
<path d="M13432 26118
L13244 26118
L13244 25724
L13432 25724
" />
<path d="M13675 25931
L13675 26118
" />
<path d="M13544 25724
L13675 25931
L13807 25724
" />
<path d="M13919 26099
L13975 26118
L14069 26118
L14107 26099
L14125 26081
L14144 26043
L14144 26006
L14125 25968
L14107 25949
L14069 25931
L13994 25912
L13957 25893
L13938 25874
L13919 25837
L13919 25799
L13938 25762
L13957 25743
L13994 25724
L14088 25724
L14144 25743
" />
<path d="M14275 25724
L14369 26118
L14444 25837
L14519 26118
L14613 25724
" />
<text x="21213.4" y="24262.3"
textLength="1989.03" font-size="524.934" lengthAdjust="spacingAndGlyphs"
text-anchor="middle" opacity="0">KEYSW</text>
<path d="M20351 24243
L20351 23849
" />
<path d="M20576 24243
L20407 24018
" />
<path d="M20576 23849
L20351 24074
" />
<path d="M20744 24037
L20875 24037
" />
<path d="M20932 24243
L20744 24243
L20744 23849
L20932 23849
" />
<path d="M21175 24056
L21175 24243
" />
<path d="M21044 23849
L21175 24056
L21307 23849
" />
<path d="M21419 24224
L21475 24243
L21569 24243
L21607 24224
L21625 24206
L21644 24168
L21644 24131
L21625 24093
L21607 24074
L21569 24056
L21494 24037
L21457 24018
L21438 23999
L21419 23962
L21419 23924
L21438 23887
L21457 23868
L21494 23849
L21588 23849
L21644 23868
" />
<path d="M21775 23849
L21869 24243
L21944 23962
L22019 24243
L22113 23849
" />
<text x="28713.4" y="26137.3"
textLength="1989.03" font-size="524.934" lengthAdjust="spacingAndGlyphs"
text-anchor="middle" opacity="0">KEYSW</text>
<path d="M27851 26118
L27851 25724
" />
<path d="M28076 26118
L27907 25893
" />
<path d="M28076 25724
L27851 25949
" />
<path d="M28244 25912
L28375 25912
" />
<path d="M28432 26118
L28244 26118
L28244 25724
L28432 25724
" />
<path d="M28675 25931
L28675 26118
" />
<path d="M28544 25724
L28675 25931
L28807 25724
" />
<path d="M28919 26099
L28975 26118
L29069 26118
L29107 26099
L29125 26081
L29144 26043
L29144 26006
L29125 25968
L29107 25949
L29069 25931
L28994 25912
L28957 25893
L28938 25874
L28919 25837
L28919 25799
L28938 25762
L28957 25743
L28994 25724
L29088 25724
L29144 25743
" />
<path d="M29275 25724
L29369 26118
L29444 25837
L29519 26118
L29613 25724
" />
<text x="36213.4" y="28012.3"
textLength="1989.03" font-size="524.934" lengthAdjust="spacingAndGlyphs"
text-anchor="middle" opacity="0">KEYSW</text>
<path d="M35351 27993
L35351 27599
" />
<path d="M35576 27993
L35407 27768
" />
<path d="M35576 27599
L35351 27824
" />
<path d="M35744 27787
L35875 27787
" />
<path d="M35932 27993
L35744 27993
L35744 27599
L35932 27599
" />
<path d="M36175 27806
L36175 27993
" />
<path d="M36044 27599
L36175 27806
L36307 27599
" />
<path d="M36419 27974
L36475 27993
L36569 27993
L36607 27974
L36625 27956
L36644 27918
L36644 27881
L36625 27843
L36607 27824
L36569 27806
L36494 27787
L36457 27768
L36438 27749
L36419 27712
L36419 27674
L36438 27637
L36457 27618
L36494 27599
L36588 27599
L36644 27618
" />
<path d="M36775 27599
L36869 27993
L36944 27712
L37019 27993
L37113 27599
" />
<text x="43713.4" y="29887.3"
textLength="1989.03" font-size="524.934" lengthAdjust="spacingAndGlyphs"
text-anchor="middle" opacity="0">KEYSW</text>
<path d="M42851 29868
L42851 29474
" />
<path d="M43076 29868
L42907 29643
" />
<path d="M43076 29474
L42851 29699
" />
<path d="M43244 29662
L43375 29662
" />
<path d="M43432 29868
L43244 29868
L43244 29474
L43432 29474
" />
<path d="M43675 29681
L43675 29868
" />
<path d="M43544 29474
L43675 29681
L43807 29474
" />
<path d="M43919 29849
L43975 29868
L44069 29868
L44107 29849
L44125 29831
L44144 29793
L44144 29756
L44125 29718
L44107 29699
L44069 29681
L43994 29662
L43957 29643
L43938 29624
L43919 29587
L43919 29549
L43938 29512
L43957 29493
L43994 29474
L44088 29474
L44144 29493
" />
<path d="M44275 29474
L44369 29868
L44444 29587
L44519 29868
L44613 29474
" />
<text x="6213.44" y="20512.3"
textLength="1989.03" font-size="524.934" lengthAdjust="spacingAndGlyphs"
text-anchor="middle" opacity="0">KEYSW</text>
<path d="M5351 20493
L5351 20099
" />
<path d="M5576 20493
L5407 20268
" />
<path d="M5576 20099
L5351 20324
" />
<path d="M5744 20287
L5875 20287
" />
<path d="M5932 20493
L5744 20493
L5744 20099
L5932 20099
" />
<path d="M6175 20306
L6175 20493
" />
<path d="M6044 20099
L6175 20306
L6307 20099
" />
<path d="M6419 20474
L6475 20493
L6569 20493
L6607 20474
L6625 20456
L6644 20418
L6644 20381
L6625 20343
L6607 20324
L6569 20306
L6494 20287
L6457 20268
L6438 20249
L6419 20212
L6419 20174
L6438 20137
L6457 20118
L6494 20099
L6588 20099
L6644 20118
" />
<path d="M6775 20099
L6869 20493
L6944 20212
L7019 20493
L7113 20099
" />
<text x="13713.4" y="18637.3"
textLength="1989.03" font-size="524.934" lengthAdjust="spacingAndGlyphs"
text-anchor="middle" opacity="0">KEYSW</text>
<path d="M12851 18618
L12851 18224
" />
<path d="M13076 18618
L12907 18393
" />
<path d="M13076 18224
L12851 18449
" />
<path d="M13244 18412
L13375 18412
" />
<path d="M13432 18618
L13244 18618
L13244 18224
L13432 18224
" />
<path d="M13675 18431
L13675 18618
" />
<path d="M13544 18224
L13675 18431
L13807 18224
" />
<path d="M13919 18599
L13975 18618
L14069 18618
L14107 18599
L14125 18581
L14144 18543
L14144 18506
L14125 18468
L14107 18449
L14069 18431
L13994 18412
L13957 18393
L13938 18374
L13919 18337
L13919 18299
L13938 18262
L13957 18243
L13994 18224
L14088 18224
L14144 18243
" />
<path d="M14275 18224
L14369 18618
L14444 18337
L14519 18618
L14613 18224
" />
<text x="21213.4" y="16762.3"
textLength="1989.03" font-size="524.934" lengthAdjust="spacingAndGlyphs"
text-anchor="middle" opacity="0">KEYSW</text>
<path d="M20351 16743
L20351 16349
" />
<path d="M20576 16743
L20407 16518
" />
<path d="M20576 16349
L20351 16574
" />
<path d="M20744 16537
L20875 16537
" />
<path d="M20932 16743
L20744 16743
L20744 16349
L20932 16349
" />
<path d="M21175 16556
L21175 16743
" />
<path d="M21044 16349
L21175 16556
L21307 16349
" />
<path d="M21419 16724
L21475 16743
L21569 16743
L21607 16724
L21625 16706
L21644 16668
L21644 16631
L21625 16593
L21607 16574
L21569 16556
L21494 16537
L21457 16518
L21438 16499
L21419 16462
L21419 16424
L21438 16387
L21457 16368
L21494 16349
L21588 16349
L21644 16368
" />
<path d="M21775 16349
L21869 16743
L21944 16462
L22019 16743
L22113 16349
" />
<text x="28713.4" y="18637.3"
textLength="1989.03" font-size="524.934" lengthAdjust="spacingAndGlyphs"
text-anchor="middle" opacity="0">KEYSW</text>
<path d="M27851 18618
L27851 18224
" />
<path d="M28076 18618
L27907 18393
" />
<path d="M28076 18224
L27851 18449
" />
<path d="M28244 18412
L28375 18412
" />
<path d="M28432 18618
L28244 18618
L28244 18224
L28432 18224
" />
<path d="M28675 18431
L28675 18618
" />
<path d="M28544 18224
L28675 18431
L28807 18224
" />
<path d="M28919 18599
L28975 18618
L29069 18618
L29107 18599
L29125 18581
L29144 18543
L29144 18506
L29125 18468
L29107 18449
L29069 18431
L28994 18412
L28957 18393
L28938 18374
L28919 18337
L28919 18299
L28938 18262
L28957 18243
L28994 18224
L29088 18224
L29144 18243
" />
<path d="M29275 18224
L29369 18618
L29444 18337
L29519 18618
L29613 18224
" />
<text x="36213.4" y="20512.3"
textLength="1989.03" font-size="524.934" lengthAdjust="spacingAndGlyphs"
text-anchor="middle" opacity="0">KEYSW</text>
<path d="M35351 20493
L35351 20099
" />
<path d="M35576 20493
L35407 20268
" />
<path d="M35576 20099
L35351 20324
" />
<path d="M35744 20287
L35875 20287
" />
<path d="M35932 20493
L35744 20493
L35744 20099
L35932 20099
" />
<path d="M36175 20306
L36175 20493
" />
<path d="M36044 20099
L36175 20306
L36307 20099
" />
<path d="M36419 20474
L36475 20493
L36569 20493
L36607 20474
L36625 20456
L36644 20418
L36644 20381
L36625 20343
L36607 20324
L36569 20306
L36494 20287
L36457 20268
L36438 20249
L36419 20212
L36419 20174
L36438 20137
L36457 20118
L36494 20099
L36588 20099
L36644 20118
" />
<path d="M36775 20099
L36869 20493
L36944 20212
L37019 20493
L37113 20099
" />
<text x="43713.4" y="22387.3"
textLength="1989.03" font-size="524.934" lengthAdjust="spacingAndGlyphs"
text-anchor="middle" opacity="0">KEYSW</text>
<path d="M42851 22368
L42851 21974
" />
<path d="M43076 22368
L42907 22143
" />
<path d="M43076 21974
L42851 22199
" />
<path d="M43244 22162
L43375 22162
" />
<path d="M43432 22368
L43244 22368
L43244 21974
L43432 21974
" />
<path d="M43675 22181
L43675 22368
" />
<path d="M43544 21974
L43675 22181
L43807 21974
" />
<path d="M43919 22349
L43975 22368
L44069 22368
L44107 22349
L44125 22331
L44144 22293
L44144 22256
L44125 22218
L44107 22199
L44069 22181
L43994 22162
L43957 22143
L43938 22124
L43919 22087
L43919 22049
L43938 22012
L43957 21993
L43994 21974
L44088 21974
L44144 21993
" />
<path d="M44275 21974
L44369 22368
L44444 22087
L44519 22368
L44613 21974
" />
<text x="6213.44" y="13012.3"
textLength="1989.03" font-size="524.934" lengthAdjust="spacingAndGlyphs"
text-anchor="middle" opacity="0">KEYSW</text>
<path d="M5351 12993
L5351 12599
" />
<path d="M5576 12993
L5407 12768
" />
<path d="M5576 12599
L5351 12824
" />
<path d="M5744 12787
L5875 12787
" />
<path d="M5932 12993
L5744 12993
L5744 12599
L5932 12599
" />
<path d="M6175 12806
L6175 12993
" />
<path d="M6044 12599
L6175 12806
L6307 12599
" />
<path d="M6419 12974
L6475 12993
L6569 12993
L6607 12974
L6625 12956
L6644 12918
L6644 12881
L6625 12843
L6607 12824
L6569 12806
L6494 12787
L6457 12768
L6438 12749
L6419 12712
L6419 12674
L6438 12637
L6457 12618
L6494 12599
L6588 12599
L6644 12618
" />
<path d="M6775 12599
L6869 12993
L6944 12712
L7019 12993
L7113 12599
" />
<text x="13713.4" y="11137.3"
textLength="1989.03" font-size="524.934" lengthAdjust="spacingAndGlyphs"
text-anchor="middle" opacity="0">KEYSW</text>
<path d="M12851 11118
L12851 10724
" />
<path d="M13076 11118
L12907 10893
" />
<path d="M13076 10724
L12851 10949
" />
<path d="M13244 10912
L13375 10912
" />
<path d="M13432 11118
L13244 11118
L13244 10724
L13432 10724
" />
<path d="M13675 10931
L13675 11118
" />
<path d="M13544 10724
L13675 10931
L13807 10724
" />
<path d="M13919 11099
L13975 11118
L14069 11118
L14107 11099
L14125 11081
L14144 11043
L14144 11006
L14125 10968
L14107 10949
L14069 10931
L13994 10912
L13957 10893
L13938 10874
L13919 10837
L13919 10799
L13938 10762
L13957 10743
L13994 10724
L14088 10724
L14144 10743
" />
<path d="M14275 10724
L14369 11118
L14444 10837
L14519 11118
L14613 10724
" />
<text x="21213.4" y="9262.3"
textLength="1989.03" font-size="524.934" lengthAdjust="spacingAndGlyphs"
text-anchor="middle" opacity="0">KEYSW</text>
<path d="M20351 9243
L20351 8849
" />
<path d="M20576 9243
L20407 9018
" />
<path d="M20576 8849
L20351 9074
" />
<path d="M20744 9037
L20875 9037
" />
<path d="M20932 9243
L20744 9243
L20744 8849
L20932 8849
" />
<path d="M21175 9056
L21175 9243
" />
<path d="M21044 8849
L21175 9056
L21307 8849
" />
<path d="M21419 9224
L21475 9243
L21569 9243
L21607 9224
L21625 9206
L21644 9168
L21644 9131
L21625 9093
L21607 9074
L21569 9056
L21494 9037
L21457 9018
L21438 8999
L21419 8962
L21419 8924
L21438 8887
L21457 8868
L21494 8849
L21588 8849
L21644 8868
" />
<path d="M21775 8849
L21869 9243
L21944 8962
L22019 9243
L22113 8849
" />
<text x="28713.4" y="11137.3"
textLength="1989.03" font-size="524.934" lengthAdjust="spacingAndGlyphs"
text-anchor="middle" opacity="0">KEYSW</text>
<path d="M27851 11118
L27851 10724
" />
<path d="M28076 11118
L27907 10893
" />
<path d="M28076 10724
L27851 10949
" />
<path d="M28244 10912
L28375 10912
" />
<path d="M28432 11118
L28244 11118
L28244 10724
L28432 10724
" />
<path d="M28675 10931
L28675 11118
" />
<path d="M28544 10724
L28675 10931
L28807 10724
" />
<path d="M28919 11099
L28975 11118
L29069 11118
L29107 11099
L29125 11081
L29144 11043
L29144 11006
L29125 10968
L29107 10949
L29069 10931
L28994 10912
L28957 10893
L28938 10874
L28919 10837
L28919 10799
L28938 10762
L28957 10743
L28994 10724
L29088 10724
L29144 10743
" />
<path d="M29275 10724
L29369 11118
L29444 10837
L29519 11118
L29613 10724
" />
<text x="36213.4" y="13012.3"
textLength="1989.03" font-size="524.934" lengthAdjust="spacingAndGlyphs"
text-anchor="middle" opacity="0">KEYSW</text>
<path d="M35351 12993
L35351 12599
" />
<path d="M35576 12993
L35407 12768
" />
<path d="M35576 12599
L35351 12824
" />
<path d="M35744 12787
L35875 12787
" />
<path d="M35932 12993
L35744 12993
L35744 12599
L35932 12599
" />
<path d="M36175 12806
L36175 12993
" />
<path d="M36044 12599
L36175 12806
L36307 12599
" />
<path d="M36419 12974
L36475 12993
L36569 12993
L36607 12974
L36625 12956
L36644 12918
L36644 12881
L36625 12843
L36607 12824
L36569 12806
L36494 12787
L36457 12768
L36438 12749
L36419 12712
L36419 12674
L36438 12637
L36457 12618
L36494 12599
L36588 12599
L36644 12618
" />
<path d="M36775 12599
L36869 12993
L36944 12712
L37019 12993
L37113 12599
" />
<text x="43713.4" y="14887.3"
textLength="1989.03" font-size="524.934" lengthAdjust="spacingAndGlyphs"
text-anchor="middle" opacity="0">KEYSW</text>
<path d="M42851 14868
L42851 14474
" />
<path d="M43076 14868
L42907 14643
" />
<path d="M43076 14474
L42851 14699
" />
<path d="M43244 14662
L43375 14662
" />
<path d="M43432 14868
L43244 14868
L43244 14474
L43432 14474
" />
<path d="M43675 14681
L43675 14868
" />
<path d="M43544 14474
L43675 14681
L43807 14474
" />
<path d="M43919 14849
L43975 14868
L44069 14868
L44107 14849
L44125 14831
L44144 14793
L44144 14756
L44125 14718
L44107 14699
L44069 14681
L43994 14662
L43957 14643
L43938 14624
L43919 14587
L43919 14549
L43938 14512
L43957 14493
L43994 14474
L44088 14474
L44144 14493
" />
<path d="M44275 14474
L44369 14868
L44444 14587
L44519 14868
L44613 14474
" />
<g >
</g>
</g>
<g style="fill:#000000; fill-opacity:0.0; 
stroke:#000000; stroke-width:59.0551; stroke-opacity:1; 
stroke-linecap:round; stroke-linejoin:round;">
</g>
<g style="fill:#C2C200; fill-opacity:0.0; 
stroke:#C2C200; stroke-width:59.0551; stroke-opacity:1; 
stroke-linecap:round; stroke-linejoin:round;">
</g>
<g style="fill:#C2C200; fill-opacity:0.0; 
stroke:#C2C200; stroke-width:47.2441; stroke-opacity:1; 
stroke-linecap:round; stroke-linejoin:round;">
<path d="M3088.44 1877.95 A2500 2500 0.0 0 0 588.442 4377.95" />
<path d="M35275.9 48753 A14062.5 14062.5 0.0 0 0 49338.4 34690.5" />
<path d="M3088 1877
L35275 1877
" />
<path d="M588 34690
L588 4377
" />
<path d="M35275 48752
L14650 48752
" />
<path d="M588.442 34690.5 A14062.5 14062.5 0.0 0 0 14650.9 48753" />
<path d="M49338.4 15940.5 A14062.5 14062.5 0.0 0 0 35275.9 1877.95" />
<path d="M49338 15940
L49338 34690
" />
<g >
</g>
<g >
</g>
<g >
</g>
<g >
</g>
<g >
</g>
<g >
</g>
<g >
</g>
<g >
</g>
<g >
</g>
<g >
</g>
<g >
</g>
<g >
</g>
<g >
</g>
<g >
</g>
<g >
</g>
<g >
</g>
<g >
</g>
<g >
</g>
<g >
</g>
<g >
</g>
<g >
</g>
<g >
</g>
<g >
</g>
<g >
</g>
<g >
</g>
<g >
</g>
<g >
</g>
<g >
</g>
<g >
</g>
<g >
</g>
<g >
</g>
<g >
</g>
<g >
</g>
<g >
</g>
<g >
</g>
<g >
</g>
<g >
</g>
<g >
</g>
<g >
</g>
<g >
</g>
<g >
</g>
<g >
</g>
<g >
</g>
<g >
</g>
<g >
</g>
<g >
</g>
<g >
</g>
<g >
</g>
<g >
</g>
<g >
</g>
<g >
</g>
<g >
</g>
<g >
</g>
<g >
</g>
<g >
</g>
<g >
</g>
<g >
</g>
<g >
</g>
<g >
</g>
<g >
</g>
<g >
</g>
<g >
</g>
<g >
</g>
<g >
</g>
<g >
</g>
<g >
</g>
<g >
</g>
<g >
</g>
<g >
</g>
<g >
</g>
<g >
</g>
<g >
</g>
<g >
</g>
<g >
</g>
</g> 
</svg>
