<?xml version="1.0" standalone="no"?>
 <!DOCTYPE svg PUBLIC "-//W3C//DTD SVG 1.1//EN" 
 "http://www.w3.org/Graphics/SVG/1.1/DTD/svg11.dtd"> 
<svg
  xmlns:svg="http://www.w3.org/2000/svg"
  xmlns="http://www.w3.org/2000/svg"
  xmlns:xlink="http://www.w3.org/1999/xlink"
  version="1.1"
  width="12.534900cm" height="11.917680cm" viewBox="0 0 49350 46920">
<title>SVG Picture created as keyboard_left_bottom_plate-brd.svg date 2022/03/27 15:50:58 </title>
  <desc>Picture generated by PCBNEW </desc>
<g style="fill:#000000; fill-opacity:1;stroke:#000000; stroke-opacity:1;
stroke-linecap:round; stroke-linejoin:round;"
 transform="translate(0 0) scale(1 1)">
</g>
<g style="fill:#000000; fill-opacity:0.0; 
stroke:#000000; stroke-width:-0.000393701; stroke-opacity:1; 
stroke-linecap:round; stroke-linejoin:round;">
</g>
<g style="fill:#C2C2C2; fill-opacity:0.0; 
stroke:#C2C2C2; stroke-width:-0.000393701; stroke-opacity:1; 
stroke-linecap:round; stroke-linejoin:round;">
</g>
<g style="fill:#C2C2C2; fill-opacity:0.0; 
stroke:#C2C2C2; stroke-width:19.685; stroke-opacity:1; 
stroke-linecap:round; stroke-linejoin:round;">
<circle cx="44462.6" cy="38237.2" r="964.567" /> 
<circle cx="4541.34" cy="38197.8" r="964.567" /> 
<circle cx="45643.7" cy="8237.21" r="964.567" /> 
<circle cx="3872.05" cy="8237.21" r="964.567" /> 
<g >
</g>
<g >
</g>
<g >
</g>
<g >
</g>
<g >
</g>
<g >
</g>
</g>
<g style="fill:#000000; fill-opacity:0.0; 
stroke:#000000; stroke-width:19.685; stroke-opacity:1; 
stroke-linecap:round; stroke-linejoin:round;">
</g>
<g style="fill:#C2C200; fill-opacity:0.0; 
stroke:#C2C200; stroke-width:19.685; stroke-opacity:1; 
stroke-linecap:round; stroke-linejoin:round;">
</g>
<g style="fill:#C2C200; fill-opacity:0.0; 
stroke:#C2C200; stroke-width:47.2441; stroke-opacity:1; 
stroke-linecap:round; stroke-linejoin:round;">
<path d="M34711.1 46898.6 A14062.5 14062.5 0.0 0 0 48773.6 32836.1" />
<path d="M23.6224 32836.1 A14062.5 14062.5 0.0 0 0 14086.1 46898.6" />
<path d="M14086.1 23.6224 A14062.5 14062.5 0.0 0 0 23.6224 14086.1" />
<path d="M48773.6 2523.62 A2500 2500 0.0 0 0 46273.6 23.6224" />
<path d="M23 14086
L23 32836
" />
<path d="M34711 46898
L14086 46898
" />
<path d="M48773 32836
L48773 2523
" />
<path d="M14086 23
L46273 23
" />
<g >
</g>
<g >
</g>
<g >
</g>
<g >
</g>
<g >
</g>
<g >
</g>
</g> 
</svg>
