<?xml version="1.0" standalone="no"?>
 <!DOCTYPE svg PUBLIC "-//W3C//DTD SVG 1.1//EN" 
 "http://www.w3.org/Graphics/SVG/1.1/DTD/svg11.dtd"> 
<svg
  xmlns:svg="http://www.w3.org/2000/svg"
  xmlns="http://www.w3.org/2000/svg"
  xmlns:xlink="http://www.w3.org/1999/xlink"
  version="1.1"
  width="13.159740cm" height="12.936220cm" viewBox="0 0 51810 50930">
<title>SVG Picture created as keyboard_right_top_plate-brd.svg date 2022/03/30 21:08:19 </title>
  <desc>Picture generated by PCBNEW </desc>
<g style="fill:#000000; fill-opacity:1;stroke:#000000; stroke-opacity:1;
stroke-linecap:round; stroke-linejoin:round;"
 transform="translate(0 0) scale(1 1)">
</g>
<g style="fill:#000000; fill-opacity:0.0; 
stroke:#000000; stroke-width:-0.000393701; stroke-opacity:1; 
stroke-linecap:round; stroke-linejoin:round;">
<g >
</g>
<g >
</g>
<g >
</g>
<g >
</g>
<g >
</g>
<g >
</g>
<g >
</g>
<g >
</g>
<g >
</g>
<g >
</g>
<g >
</g>
<g >
</g>
<g >
</g>
<g >
</g>
<g >
</g>
<g >
</g>
<g >
</g>
<g >
</g>
<g >
</g>
<g >
</g>
<g >
</g>
<g >
</g>
<g >
</g>
<g >
</g>
<g >
</g>
<g >
</g>
<g >
</g>
<g >
</g>
</g>
<g style="fill:#000000; fill-opacity:0.0; 
stroke:#000000; stroke-width:-0.000393701; stroke-opacity:1; 
stroke-linecap:round; stroke-linejoin:round;">
</g>
<g style="fill:#C2C2C2; fill-opacity:0.0; 
stroke:#C2C2C2; stroke-width:-0.000393701; stroke-opacity:1; 
stroke-linecap:round; stroke-linejoin:round;">
</g>
<g style="fill:#C2C2C2; fill-opacity:0.0; 
stroke:#C2C2C2; stroke-width:19.685; stroke-opacity:1; 
stroke-linecap:round; stroke-linejoin:round;">
<circle cx="46485.2" cy="38437.5" r="846.457" /> 
<circle cx="5860.17" cy="38437.5" r="846.457" /> 
<circle cx="4922.67" cy="8526.08" r="846.457" /> 
<circle cx="46896.1" cy="8526.08" r="846.457" /> 
<g >
</g>
<g >
</g>
<g >
</g>
<g >
</g>
<g >
</g>
<g >
</g>
<g >
</g>
<g >
</g>
<g >
</g>
<g >
</g>
<g >
</g>
<g >
</g>
<g >
</g>
<g >
</g>
<g >
</g>
<g >
</g>
<g >
</g>
<g >
</g>
<g >
</g>
<g >
</g>
<g >
</g>
<g >
</g>
<g >
</g>
<g >
</g>
<g >
</g>
<g >
</g>
<g >
</g>
<g >
</g>
</g>
<g style="fill:#000000; fill-opacity:0.0; 
stroke:#000000; stroke-width:19.685; stroke-opacity:1; 
stroke-linecap:round; stroke-linejoin:round;">
</g>
<g style="fill:#C2C2C2; fill-opacity:0.0; 
stroke:#C2C2C2; stroke-width:19.685; stroke-opacity:1; 
stroke-linecap:round; stroke-linejoin:round;">
</g>
<g style="fill:#C2C2C2; fill-opacity:0.0; 
stroke:#C2C2C2; stroke-width:59.0551; stroke-opacity:1; 
stroke-linecap:round; stroke-linejoin:round;">
<path d="M8089 33841
L15456 32542
" />
<path d="M9388 41207
L8089 33841
" />
<path d="M16755 39908
L9388 41207
" />
<path d="M15456 32542
L16755 39908
" />
<path d="M28037 31259
L28037 38740
" />
<path d="M28037 38740
L20557 38740
" />
<path d="M20557 38740
L20557 31259
" />
<path d="M20557 31259
L28037 31259
" />
<path d="M28057 33134
L35537 33134
" />
<path d="M28057 40615
L28057 33134
" />
<path d="M35537 40615
L28057 40615
" />
<path d="M35537 33134
L35537 40615
" />
<path d="M43037 35009
L43037 42490
" />
<path d="M43037 42490
L35557 42490
" />
<path d="M35557 42490
L35557 35009
" />
<path d="M35557 35009
L43037 35009
" />
<path d="M41182 27509
L48662 27509
" />
<path d="M41182 34990
L41182 27509
" />
<path d="M48662 34990
L41182 34990
" />
<path d="M48662 27509
L48662 34990
" />
<path d="M41162 25634
L41162 33115
" />
<path d="M41162 33115
L33682 33115
" />
<path d="M33682 33115
L33682 25634
" />
<path d="M33682 25634
L41162 25634
" />
<path d="M26182 23759
L33662 23759
" />
<path d="M26182 31240
L26182 23759
" />
<path d="M33662 31240
L26182 31240
" />
<path d="M33662 23759
L33662 31240
" />
<path d="M26162 21884
L26162 29365
" />
<path d="M26162 29365
L18682 29365
" />
<path d="M18682 29365
L18682 21884
" />
<path d="M18682 21884
L26162 21884
" />
<path d="M11182 23759
L18662 23759
" />
<path d="M11182 31240
L11182 23759
" />
<path d="M18662 31240
L11182 31240
" />
<path d="M18662 23759
L18662 31240
" />
<path d="M11162 25634
L11162 33115
" />
<path d="M11162 33115
L3682 33115
" />
<path d="M3682 33115
L3682 25634
" />
<path d="M3682 25634
L11162 25634
" />
<path d="M3682 18134
L11162 18134
" />
<path d="M3682 25615
L3682 18134
" />
<path d="M11162 25615
L3682 25615
" />
<path d="M11162 18134
L11162 25615
" />
<path d="M18662 16259
L18662 23740
" />
<path d="M18662 23740
L11182 23740
" />
<path d="M11182 23740
L11182 16259
" />
<path d="M11182 16259
L18662 16259
" />
<path d="M18682 14384
L26162 14384
" />
<path d="M18682 21865
L18682 14384
" />
<path d="M26162 21865
L18682 21865
" />
<path d="M26162 14384
L26162 21865
" />
<path d="M33662 16259
L33662 23740
" />
<path d="M33662 23740
L26182 23740
" />
<path d="M26182 23740
L26182 16259
" />
<path d="M26182 16259
L33662 16259
" />
<path d="M33682 18134
L41162 18134
" />
<path d="M33682 25615
L33682 18134
" />
<path d="M41162 25615
L33682 25615
" />
<path d="M41162 18134
L41162 25615
" />
<path d="M48662 20009
L48662 27490
" />
<path d="M48662 27490
L41182 27490
" />
<path d="M41182 27490
L41182 20009
" />
<path d="M41182 20009
L48662 20009
" />
<path d="M41182 12509
L48662 12509
" />
<path d="M41182 19990
L41182 12509
" />
<path d="M48662 19990
L41182 19990
" />
<path d="M48662 12509
L48662 19990
" />
<path d="M41162 10634
L41162 18115
" />
<path d="M41162 18115
L33682 18115
" />
<path d="M33682 18115
L33682 10634
" />
<path d="M33682 10634
L41162 10634
" />
<path d="M26182 8759
L33662 8759
" />
<path d="M26182 16240
L26182 8759
" />
<path d="M33662 16240
L26182 16240
" />
<path d="M33662 8759
L33662 16240
" />
<path d="M26162 6884
L26162 14365
" />
<path d="M26162 14365
L18682 14365
" />
<path d="M18682 14365
L18682 6884
" />
<path d="M18682 6884
L26162 6884
" />
<path d="M11182 8759
L18662 8759
" />
<path d="M11182 16240
L11182 8759
" />
<path d="M18662 16240
L11182 16240
" />
<path d="M18662 8759
L18662 16240
" />
<path d="M11162 10634
L11162 18115
" />
<path d="M11162 18115
L3682 18115
" />
<path d="M3682 18115
L3682 10634
" />
<path d="M3682 10634
L11162 10634
" />
<g >
</g>
<g >
</g>
<g >
</g>
<g >
</g>
<g >
</g>
<g >
</g>
<g >
</g>
<g >
</g>
<g >
</g>
<g >
</g>
<g >
</g>
<g >
</g>
<g >
</g>
<g >
</g>
<g >
</g>
<g >
</g>
<g >
</g>
<g >
</g>
<g >
</g>
<g >
</g>
<g >
</g>
<g >
</g>
<g >
</g>
<g >
</g>
<g >
</g>
<g >
</g>
<g >
</g>
<g >
</g>
</g>
<g style="fill:#000000; fill-opacity:0.0; 
stroke:#000000; stroke-width:59.0551; stroke-opacity:1; 
stroke-linecap:round; stroke-linejoin:round;">
</g>
<g style="fill:#C2C200; fill-opacity:0.0; 
stroke:#C2C200; stroke-width:59.0551; stroke-opacity:1; 
stroke-linecap:round; stroke-linejoin:round;">
</g>
<g style="fill:#C2C200; fill-opacity:0.0; 
stroke:#C2C200; stroke-width:47.2441; stroke-opacity:1; 
stroke-linecap:round; stroke-linejoin:round;">
<path d="M4297.67 312.5 A2500 2500 0.0 0 0 1797.67 2812.5" />
<path d="M36485.2 47187.5 A14062.5 14062.5 0.0 0 0 50547.7 33125" />
<path d="M4297 312
L36485 312
" />
<path d="M1797 33125
L1797 2812
" />
<path d="M36485 47187
L15860 47187
" />
<path d="M1797.67 33125 A14062.5 14062.5 0.0 0 0 15860.2 47187.5" />
<path d="M50547.7 14375 A14062.5 14062.5 0.0 0 0 36485.2 312.5" />
<path d="M50547 14375
L50547 33125
" />
<path d="M9339 34920
L9288 34629
" />
<path d="M9288 34629
L14599 33692
" />
<path d="M14599 33692
L14651 33983
" />
<path d="M14651 33983
L15019 33918
" />
<path d="M15019 33918
L15874 38764
" />
<path d="M15874 38764
L15505 38829
" />
<path d="M15505 38829
L15557 39120
" />
<path d="M15557 39120
L10245 40057
" />
<path d="M10245 40057
L10194 39766
" />
<path d="M10194 39766
L9825 39831
" />
<path d="M9825 39831
L8971 34985
" />
<path d="M8971 34985
L9339 34920
" />
<path d="M21226 32539
L21600 32539
" />
<path d="M21226 37460
L21226 32539
" />
<path d="M21600 37460
L21226 37460
" />
<path d="M21600 37755
L21600 37460
" />
<path d="M26994 37755
L21600 37755
" />
<path d="M26994 37460
L26994 37755
" />
<path d="M27368 37460
L26994 37460
" />
<path d="M27368 32539
L27368 37460
" />
<path d="M26994 32539
L27368 32539
" />
<path d="M26994 32244
L26994 32539
" />
<path d="M21600 32244
L26994 32244
" />
<path d="M21600 32539
L21600 32244
" />
<path d="M29100 34414
L29100 34119
" />
<path d="M29100 34119
L34494 34119
" />
<path d="M34494 34119
L34494 34414
" />
<path d="M34494 34414
L34868 34414
" />
<path d="M34868 34414
L34868 39335
" />
<path d="M34868 39335
L34494 39335
" />
<path d="M34494 39335
L34494 39630
" />
<path d="M34494 39630
L29100 39630
" />
<path d="M29100 39630
L29100 39335
" />
<path d="M29100 39335
L28726 39335
" />
<path d="M28726 39335
L28726 34414
" />
<path d="M28726 34414
L29100 34414
" />
<path d="M36226 36289
L36600 36289
" />
<path d="M36226 41210
L36226 36289
" />
<path d="M36600 41210
L36226 41210
" />
<path d="M36600 41505
L36600 41210
" />
<path d="M41994 41505
L36600 41505
" />
<path d="M41994 41210
L41994 41505
" />
<path d="M42368 41210
L41994 41210
" />
<path d="M42368 36289
L42368 41210
" />
<path d="M41994 36289
L42368 36289
" />
<path d="M41994 35994
L41994 36289
" />
<path d="M36600 35994
L41994 35994
" />
<path d="M36600 36289
L36600 35994
" />
<path d="M42225 28789
L42225 28494
" />
<path d="M42225 28494
L47619 28494
" />
<path d="M47619 28494
L47619 28789
" />
<path d="M47619 28789
L47993 28789
" />
<path d="M47993 28789
L47993 33710
" />
<path d="M47993 33710
L47619 33710
" />
<path d="M47619 33710
L47619 34005
" />
<path d="M47619 34005
L42225 34005
" />
<path d="M42225 34005
L42225 33710
" />
<path d="M42225 33710
L41851 33710
" />
<path d="M41851 33710
L41851 28789
" />
<path d="M41851 28789
L42225 28789
" />
<path d="M34351 26914
L34725 26914
" />
<path d="M34351 31835
L34351 26914
" />
<path d="M34725 31835
L34351 31835
" />
<path d="M34725 32130
L34725 31835
" />
<path d="M40119 32130
L34725 32130
" />
<path d="M40119 31835
L40119 32130
" />
<path d="M40493 31835
L40119 31835
" />
<path d="M40493 26914
L40493 31835
" />
<path d="M40119 26914
L40493 26914
" />
<path d="M40119 26619
L40119 26914
" />
<path d="M34725 26619
L40119 26619
" />
<path d="M34725 26914
L34725 26619
" />
<path d="M27225 25039
L27225 24744
" />
<path d="M27225 24744
L32619 24744
" />
<path d="M32619 24744
L32619 25039
" />
<path d="M32619 25039
L32993 25039
" />
<path d="M32993 25039
L32993 29960
" />
<path d="M32993 29960
L32619 29960
" />
<path d="M32619 29960
L32619 30255
" />
<path d="M32619 30255
L27225 30255
" />
<path d="M27225 30255
L27225 29960
" />
<path d="M27225 29960
L26851 29960
" />
<path d="M26851 29960
L26851 25039
" />
<path d="M26851 25039
L27225 25039
" />
<path d="M19351 23164
L19725 23164
" />
<path d="M19351 28085
L19351 23164
" />
<path d="M19725 28085
L19351 28085
" />
<path d="M19725 28380
L19725 28085
" />
<path d="M25119 28380
L19725 28380
" />
<path d="M25119 28085
L25119 28380
" />
<path d="M25493 28085
L25119 28085
" />
<path d="M25493 23164
L25493 28085
" />
<path d="M25119 23164
L25493 23164
" />
<path d="M25119 22869
L25119 23164
" />
<path d="M19725 22869
L25119 22869
" />
<path d="M19725 23164
L19725 22869
" />
<path d="M12225 25039
L12225 24744
" />
<path d="M12225 24744
L17619 24744
" />
<path d="M17619 24744
L17619 25039
" />
<path d="M17619 25039
L17993 25039
" />
<path d="M17993 25039
L17993 29960
" />
<path d="M17993 29960
L17619 29960
" />
<path d="M17619 29960
L17619 30255
" />
<path d="M17619 30255
L12225 30255
" />
<path d="M12225 30255
L12225 29960
" />
<path d="M12225 29960
L11851 29960
" />
<path d="M11851 29960
L11851 25039
" />
<path d="M11851 25039
L12225 25039
" />
<path d="M4351 26914
L4725 26914
" />
<path d="M4351 31835
L4351 26914
" />
<path d="M4725 31835
L4351 31835
" />
<path d="M4725 32130
L4725 31835
" />
<path d="M10119 32130
L4725 32130
" />
<path d="M10119 31835
L10119 32130
" />
<path d="M10493 31835
L10119 31835
" />
<path d="M10493 26914
L10493 31835
" />
<path d="M10119 26914
L10493 26914
" />
<path d="M10119 26619
L10119 26914
" />
<path d="M4725 26619
L10119 26619
" />
<path d="M4725 26914
L4725 26619
" />
<path d="M4725 19414
L4725 19119
" />
<path d="M4725 19119
L10119 19119
" />
<path d="M10119 19119
L10119 19414
" />
<path d="M10119 19414
L10493 19414
" />
<path d="M10493 19414
L10493 24335
" />
<path d="M10493 24335
L10119 24335
" />
<path d="M10119 24335
L10119 24630
" />
<path d="M10119 24630
L4725 24630
" />
<path d="M4725 24630
L4725 24335
" />
<path d="M4725 24335
L4351 24335
" />
<path d="M4351 24335
L4351 19414
" />
<path d="M4351 19414
L4725 19414
" />
<path d="M11851 17539
L12225 17539
" />
<path d="M11851 22460
L11851 17539
" />
<path d="M12225 22460
L11851 22460
" />
<path d="M12225 22755
L12225 22460
" />
<path d="M17619 22755
L12225 22755
" />
<path d="M17619 22460
L17619 22755
" />
<path d="M17993 22460
L17619 22460
" />
<path d="M17993 17539
L17993 22460
" />
<path d="M17619 17539
L17993 17539
" />
<path d="M17619 17244
L17619 17539
" />
<path d="M12225 17244
L17619 17244
" />
<path d="M12225 17539
L12225 17244
" />
<path d="M19725 15664
L19725 15369
" />
<path d="M19725 15369
L25119 15369
" />
<path d="M25119 15369
L25119 15664
" />
<path d="M25119 15664
L25493 15664
" />
<path d="M25493 15664
L25493 20585
" />
<path d="M25493 20585
L25119 20585
" />
<path d="M25119 20585
L25119 20880
" />
<path d="M25119 20880
L19725 20880
" />
<path d="M19725 20880
L19725 20585
" />
<path d="M19725 20585
L19351 20585
" />
<path d="M19351 20585
L19351 15664
" />
<path d="M19351 15664
L19725 15664
" />
<path d="M26851 17539
L27225 17539
" />
<path d="M26851 22460
L26851 17539
" />
<path d="M27225 22460
L26851 22460
" />
<path d="M27225 22755
L27225 22460
" />
<path d="M32619 22755
L27225 22755
" />
<path d="M32619 22460
L32619 22755
" />
<path d="M32993 22460
L32619 22460
" />
<path d="M32993 17539
L32993 22460
" />
<path d="M32619 17539
L32993 17539
" />
<path d="M32619 17244
L32619 17539
" />
<path d="M27225 17244
L32619 17244
" />
<path d="M27225 17539
L27225 17244
" />
<path d="M34725 19414
L34725 19119
" />
<path d="M34725 19119
L40119 19119
" />
<path d="M40119 19119
L40119 19414
" />
<path d="M40119 19414
L40493 19414
" />
<path d="M40493 19414
L40493 24335
" />
<path d="M40493 24335
L40119 24335
" />
<path d="M40119 24335
L40119 24630
" />
<path d="M40119 24630
L34725 24630
" />
<path d="M34725 24630
L34725 24335
" />
<path d="M34725 24335
L34351 24335
" />
<path d="M34351 24335
L34351 19414
" />
<path d="M34351 19414
L34725 19414
" />
<path d="M41851 21289
L42225 21289
" />
<path d="M41851 26210
L41851 21289
" />
<path d="M42225 26210
L41851 26210
" />
<path d="M42225 26505
L42225 26210
" />
<path d="M47619 26505
L42225 26505
" />
<path d="M47619 26210
L47619 26505
" />
<path d="M47993 26210
L47619 26210
" />
<path d="M47993 21289
L47993 26210
" />
<path d="M47619 21289
L47993 21289
" />
<path d="M47619 20994
L47619 21289
" />
<path d="M42225 20994
L47619 20994
" />
<path d="M42225 21289
L42225 20994
" />
<path d="M42225 13789
L42225 13494
" />
<path d="M42225 13494
L47619 13494
" />
<path d="M47619 13494
L47619 13789
" />
<path d="M47619 13789
L47993 13789
" />
<path d="M47993 13789
L47993 18710
" />
<path d="M47993 18710
L47619 18710
" />
<path d="M47619 18710
L47619 19005
" />
<path d="M47619 19005
L42225 19005
" />
<path d="M42225 19005
L42225 18710
" />
<path d="M42225 18710
L41851 18710
" />
<path d="M41851 18710
L41851 13789
" />
<path d="M41851 13789
L42225 13789
" />
<path d="M34351 11914
L34725 11914
" />
<path d="M34351 16835
L34351 11914
" />
<path d="M34725 16835
L34351 16835
" />
<path d="M34725 17130
L34725 16835
" />
<path d="M40119 17130
L34725 17130
" />
<path d="M40119 16835
L40119 17130
" />
<path d="M40493 16835
L40119 16835
" />
<path d="M40493 11914
L40493 16835
" />
<path d="M40119 11914
L40493 11914
" />
<path d="M40119 11619
L40119 11914
" />
<path d="M34725 11619
L40119 11619
" />
<path d="M34725 11914
L34725 11619
" />
<path d="M27225 10039
L27225 9744
" />
<path d="M27225 9744
L32619 9744
" />
<path d="M32619 9744
L32619 10039
" />
<path d="M32619 10039
L32993 10039
" />
<path d="M32993 10039
L32993 14960
" />
<path d="M32993 14960
L32619 14960
" />
<path d="M32619 14960
L32619 15255
" />
<path d="M32619 15255
L27225 15255
" />
<path d="M27225 15255
L27225 14960
" />
<path d="M27225 14960
L26851 14960
" />
<path d="M26851 14960
L26851 10039
" />
<path d="M26851 10039
L27225 10039
" />
<path d="M19351 8164
L19725 8164
" />
<path d="M19351 13085
L19351 8164
" />
<path d="M19725 13085
L19351 13085
" />
<path d="M19725 13380
L19725 13085
" />
<path d="M25119 13380
L19725 13380
" />
<path d="M25119 13085
L25119 13380
" />
<path d="M25493 13085
L25119 13085
" />
<path d="M25493 8164
L25493 13085
" />
<path d="M25119 8164
L25493 8164
" />
<path d="M25119 7869
L25119 8164
" />
<path d="M19725 7869
L25119 7869
" />
<path d="M19725 8164
L19725 7869
" />
<path d="M12225 10039
L12225 9744
" />
<path d="M12225 9744
L17619 9744
" />
<path d="M17619 9744
L17619 10039
" />
<path d="M17619 10039
L17993 10039
" />
<path d="M17993 10039
L17993 14960
" />
<path d="M17993 14960
L17619 14960
" />
<path d="M17619 14960
L17619 15255
" />
<path d="M17619 15255
L12225 15255
" />
<path d="M12225 15255
L12225 14960
" />
<path d="M12225 14960
L11851 14960
" />
<path d="M11851 14960
L11851 10039
" />
<path d="M11851 10039
L12225 10039
" />
<path d="M4351 11914
L4725 11914
" />
<path d="M4351 16835
L4351 11914
" />
<path d="M4725 16835
L4351 16835
" />
<path d="M4725 17130
L4725 16835
" />
<path d="M10119 17130
L4725 17130
" />
<path d="M10119 16835
L10119 17130
" />
<path d="M10493 16835
L10119 16835
" />
<path d="M10493 11914
L10493 16835
" />
<path d="M10119 11914
L10493 11914
" />
<path d="M10119 11619
L10119 11914
" />
<path d="M4725 11619
L10119 11619
" />
<path d="M4725 11914
L4725 11619
" />
<g >
</g>
<g >
</g>
<g >
</g>
<g >
</g>
<g >
</g>
<g >
</g>
<g >
</g>
<g >
</g>
<g >
</g>
<g >
</g>
<g >
</g>
<g >
</g>
<g >
</g>
<g >
</g>
<g >
</g>
<g >
</g>
<g >
</g>
<g >
</g>
<g >
</g>
<g >
</g>
<g >
</g>
<g >
</g>
<g >
</g>
<g >
</g>
<g >
</g>
<g >
</g>
<g >
</g>
<g >
</g>
</g> 
</svg>
