<?xml version="1.0" standalone="no"?>
 <!DOCTYPE svg PUBLIC "-//W3C//DTD SVG 1.1//EN" 
 "http://www.w3.org/Graphics/SVG/1.1/DTD/svg11.dtd"> 
<svg
  xmlns:svg="http://www.w3.org/2000/svg"
  xmlns="http://www.w3.org/2000/svg"
  xmlns:xlink="http://www.w3.org/1999/xlink"
  version="1.1"
  width="12.700000cm" height="13.335000cm" viewBox="0 0 50000 52500">
<title>SVG Picture created as keyboard_left-brd.svg date 2022/03/27 15:55:06 </title>
  <desc>Picture generated by PCBNEW </desc>
<g style="fill:#000000; fill-opacity:1;stroke:#000000; stroke-opacity:1;
stroke-linecap:round; stroke-linejoin:round;"
 transform="translate(0 0) scale(1 1)">
</g>
<g style="fill:#000000; fill-opacity:0.0; 
stroke:#000000; stroke-width:-0.000393701; stroke-opacity:1; 
stroke-linecap:round; stroke-linejoin:round;">
</g>
<g style="fill:#C2C2C2; fill-opacity:0.0; 
stroke:#C2C2C2; stroke-width:-0.000393701; stroke-opacity:1; 
stroke-linecap:round; stroke-linejoin:round;">
</g>
<g style="fill:#C2C2C2; fill-opacity:0.0; 
stroke:#C2C2C2; stroke-width:19.685; stroke-opacity:1; 
stroke-linecap:round; stroke-linejoin:round;">
<circle cx="4473.43" cy="10091.5" r="1791.34" /> 
<circle cx="46245.1" cy="10091.5" r="1791.34" /> 
<circle cx="45064" cy="40091.5" r="1791.34" /> 
<circle cx="5142.72" cy="40052.2" r="1791.34" /> 
<g >
</g>
<g >
</g>
<g >
</g>
<g >
</g>
<g >
</g>
<g >
</g>
<g >
</g>
<g >
</g>
<g >
</g>
<g >
</g>
<g >
</g>
<g >
</g>
<g >
</g>
<g >
</g>
<g >
</g>
<g >
</g>
<g >
</g>
<g >
</g>
<g >
</g>
<g >
</g>
<g >
</g>
<g >
</g>
<g >
</g>
<g >
</g>
<g >
</g>
<g >
</g>
<g >
</g>
<g >
</g>
<g >
</g>
<g >
</g>
<g >
</g>
<g >
</g>
<g >
</g>
<g >
</g>
<g >
</g>
<g >
</g>
<g >
</g>
<g >
</g>
<g >
</g>
<g >
</g>
<g >
</g>
<g >
</g>
<g >
</g>
<g >
</g>
<g >
</g>
<g >
</g>
<g >
</g>
<g >
</g>
<g >
</g>
<g >
</g>
<g >
</g>
<g >
</g>
<g >
</g>
<g >
</g>
<g >
</g>
<g >
</g>
<g >
</g>
<g >
</g>
<g >
</g>
<g >
</g>
<g >
</g>
<g >
</g>
<g >
</g>
<g >
</g>
<g >
</g>
<g >
</g>
<g >
</g>
<g >
</g>
<g >
</g>
<g >
</g>
<g >
</g>
<g >
</g>
<g >
</g>
<g >
</g>
</g>
<g style="fill:#000000; fill-opacity:0.0; 
stroke:#000000; stroke-width:19.685; stroke-opacity:1; 
stroke-linecap:round; stroke-linejoin:round;">
</g>
<g style="fill:#C2C2C2; fill-opacity:0.0; 
stroke:#C2C2C2; stroke-width:19.685; stroke-opacity:1; 
stroke-linecap:round; stroke-linejoin:round;">
</g>
<g style="fill:#C2C2C2; fill-opacity:0.0; 
stroke:#C2C2C2; stroke-width:59.0551; stroke-opacity:1; 
stroke-linecap:round; stroke-linejoin:round;">
<path d="M41167 36068
L41942 36204
" />
<path d="M41942 36204
L41805 36980
" />
<path d="M40210 41496
L40985 41633
" />
<path d="M40985 41633
L41122 40857
" />
<path d="M35694 39900
L35557 40675
" />
<path d="M35557 40675
L36332 40812
" />
<path d="M37289 35384
L36514 35247
" />
<path d="M36514 35247
L36377 36023
" />
<path d="M32015 33445
L46787 36049
" />
<path d="M46787 36049
L45484 43435
" />
<path d="M45484 43435
L30712 40831
" />
<path d="M30712 40831
L32015 33445
" />
<path d="M35329 40835
L35466 40060
" />
<path d="M41145 41861
L41281 41085
" />
<path d="M36104 40972
L35329 40835
" />
<path d="M40369 41724
L41145 41861
" />
<path d="M37130 35156
L36354 35019
" />
<path d="M36354 35019
L36218 35795
" />
<path d="M42170 36045
L42033 36820
" />
<path d="M41395 35908
L42170 36045
" />
</g>
<g style="fill:#C2C2C2; fill-opacity:0.0; 
stroke:#C2C2C2; stroke-width:60; stroke-opacity:1; 
stroke-linecap:round; stroke-linejoin:round;">
<path d="M42820 35760
L41658 42351
" />
<path d="M35841 34529
L42820 35760
" />
<path d="M34679 41120
L35841 34529
" />
<path d="M41658 42351
L34679 41120
" />
<path d="M30418 39911
L23331 39911
" />
<path d="M23331 39911
L23331 33218
" />
<path d="M23331 33218
L30418 33218
" />
<path d="M30418 33218
L30418 39911
" />
</g>
<g style="fill:#C2C2C2; fill-opacity:0.0; 
stroke:#C2C2C2; stroke-width:59.0551; stroke-opacity:1; 
stroke-linecap:round; stroke-linejoin:round;">
<path d="M29040 33612
L29827 33612
" />
<path d="M29827 33612
L29827 34400
" />
<path d="M23922 33612
L23922 34400
" />
<path d="M24709 33612
L23922 33612
" />
<path d="M29040 39518
L29827 39518
" />
<path d="M24709 39518
L23922 39518
" />
<path d="M29827 39518
L29827 38730
" />
<path d="M23922 39518
L23922 38730
" />
<path d="M16422 41393
L16422 40605
" />
<path d="M22327 41393
L22327 40605
" />
<path d="M17209 41393
L16422 41393
" />
<path d="M21540 41393
L22327 41393
" />
<path d="M17209 35487
L16422 35487
" />
<path d="M16422 35487
L16422 36275
" />
<path d="M22327 35487
L22327 36275
" />
<path d="M21540 35487
L22327 35487
" />
</g>
<g style="fill:#C2C2C2; fill-opacity:0.0; 
stroke:#C2C2C2; stroke-width:60; stroke-opacity:1; 
stroke-linecap:round; stroke-linejoin:round;">
<path d="M22918 35093
L22918 41786
" />
<path d="M15831 35093
L22918 35093
" />
<path d="M15831 41786
L15831 35093
" />
<path d="M22918 41786
L15831 41786
" />
<path d="M15418 43661
L8331 43661
" />
<path d="M8331 43661
L8331 36968
" />
<path d="M8331 36968
L15418 36968
" />
<path d="M15418 36968
L15418 43661
" />
</g>
<g style="fill:#C2C2C2; fill-opacity:0.0; 
stroke:#C2C2C2; stroke-width:59.0551; stroke-opacity:1; 
stroke-linecap:round; stroke-linejoin:round;">
<path d="M14040 37362
L14827 37362
" />
<path d="M14827 37362
L14827 38150
" />
<path d="M8922 37362
L8922 38150
" />
<path d="M9709 37362
L8922 37362
" />
<path d="M14040 43268
L14827 43268
" />
<path d="M9709 43268
L8922 43268
" />
<path d="M14827 43268
L14827 42480
" />
<path d="M8922 43268
L8922 42480
" />
<path d="M3297 35768
L3297 34980
" />
<path d="M9202 35768
L9202 34980
" />
<path d="M4084 35768
L3297 35768
" />
<path d="M8415 35768
L9202 35768
" />
<path d="M4084 29862
L3297 29862
" />
<path d="M3297 29862
L3297 30650
" />
<path d="M9202 29862
L9202 30650
" />
<path d="M8415 29862
L9202 29862
" />
</g>
<g style="fill:#C2C2C2; fill-opacity:0.0; 
stroke:#C2C2C2; stroke-width:60; stroke-opacity:1; 
stroke-linecap:round; stroke-linejoin:round;">
<path d="M9793 29468
L9793 36161
" />
<path d="M2706 29468
L9793 29468
" />
<path d="M2706 36161
L2706 29468
" />
<path d="M9793 36161
L2706 36161
" />
<path d="M17293 34286
L10206 34286
" />
<path d="M10206 34286
L10206 27593
" />
<path d="M10206 27593
L17293 27593
" />
<path d="M17293 27593
L17293 34286
" />
</g>
<g style="fill:#C2C2C2; fill-opacity:0.0; 
stroke:#C2C2C2; stroke-width:59.0551; stroke-opacity:1; 
stroke-linecap:round; stroke-linejoin:round;">
<path d="M15915 27987
L16702 27987
" />
<path d="M16702 27987
L16702 28775
" />
<path d="M10797 27987
L10797 28775
" />
<path d="M11584 27987
L10797 27987
" />
<path d="M15915 33893
L16702 33893
" />
<path d="M11584 33893
L10797 33893
" />
<path d="M16702 33893
L16702 33105
" />
<path d="M10797 33893
L10797 33105
" />
<path d="M18297 32018
L18297 31230
" />
<path d="M24202 32018
L24202 31230
" />
<path d="M19084 32018
L18297 32018
" />
<path d="M23415 32018
L24202 32018
" />
<path d="M19084 26112
L18297 26112
" />
<path d="M18297 26112
L18297 26900
" />
<path d="M24202 26112
L24202 26900
" />
<path d="M23415 26112
L24202 26112
" />
</g>
<g style="fill:#C2C2C2; fill-opacity:0.0; 
stroke:#C2C2C2; stroke-width:60; stroke-opacity:1; 
stroke-linecap:round; stroke-linejoin:round;">
<path d="M24793 25718
L24793 32411
" />
<path d="M17706 25718
L24793 25718
" />
<path d="M17706 32411
L17706 25718
" />
<path d="M24793 32411
L17706 32411
" />
<path d="M32293 30536
L25206 30536
" />
<path d="M25206 30536
L25206 23843
" />
<path d="M25206 23843
L32293 23843
" />
<path d="M32293 23843
L32293 30536
" />
</g>
<g style="fill:#C2C2C2; fill-opacity:0.0; 
stroke:#C2C2C2; stroke-width:59.0551; stroke-opacity:1; 
stroke-linecap:round; stroke-linejoin:round;">
<path d="M30915 24237
L31702 24237
" />
<path d="M31702 24237
L31702 25025
" />
<path d="M25797 24237
L25797 25025
" />
<path d="M26584 24237
L25797 24237
" />
<path d="M30915 30143
L31702 30143
" />
<path d="M26584 30143
L25797 30143
" />
<path d="M31702 30143
L31702 29355
" />
<path d="M25797 30143
L25797 29355
" />
<path d="M33297 32018
L33297 31230
" />
<path d="M39202 32018
L39202 31230
" />
<path d="M34084 32018
L33297 32018
" />
<path d="M38415 32018
L39202 32018
" />
<path d="M34084 26112
L33297 26112
" />
<path d="M33297 26112
L33297 26900
" />
<path d="M39202 26112
L39202 26900
" />
<path d="M38415 26112
L39202 26112
" />
</g>
<g style="fill:#C2C2C2; fill-opacity:0.0; 
stroke:#C2C2C2; stroke-width:60; stroke-opacity:1; 
stroke-linecap:round; stroke-linejoin:round;">
<path d="M39793 25718
L39793 32411
" />
<path d="M32706 25718
L39793 25718
" />
<path d="M32706 32411
L32706 25718
" />
<path d="M39793 32411
L32706 32411
" />
<path d="M47293 34286
L40206 34286
" />
<path d="M40206 34286
L40206 27593
" />
<path d="M40206 27593
L47293 27593
" />
<path d="M47293 27593
L47293 34286
" />
</g>
<g style="fill:#C2C2C2; fill-opacity:0.0; 
stroke:#C2C2C2; stroke-width:59.0551; stroke-opacity:1; 
stroke-linecap:round; stroke-linejoin:round;">
<path d="M45915 27987
L46702 27987
" />
<path d="M46702 27987
L46702 28775
" />
<path d="M40797 27987
L40797 28775
" />
<path d="M41584 27987
L40797 27987
" />
<path d="M45915 33893
L46702 33893
" />
<path d="M41584 33893
L40797 33893
" />
<path d="M46702 33893
L46702 33105
" />
<path d="M40797 33893
L40797 33105
" />
<path d="M40797 26393
L40797 25605
" />
<path d="M46702 26393
L46702 25605
" />
<path d="M41584 26393
L40797 26393
" />
<path d="M45915 26393
L46702 26393
" />
<path d="M41584 20487
L40797 20487
" />
<path d="M40797 20487
L40797 21275
" />
<path d="M46702 20487
L46702 21275
" />
<path d="M45915 20487
L46702 20487
" />
</g>
<g style="fill:#C2C2C2; fill-opacity:0.0; 
stroke:#C2C2C2; stroke-width:60; stroke-opacity:1; 
stroke-linecap:round; stroke-linejoin:round;">
<path d="M47293 20093
L47293 26786
" />
<path d="M40206 20093
L47293 20093
" />
<path d="M40206 26786
L40206 20093
" />
<path d="M47293 26786
L40206 26786
" />
<path d="M39793 24911
L32706 24911
" />
<path d="M32706 24911
L32706 18218
" />
<path d="M32706 18218
L39793 18218
" />
<path d="M39793 18218
L39793 24911
" />
</g>
<g style="fill:#C2C2C2; fill-opacity:0.0; 
stroke:#C2C2C2; stroke-width:59.0551; stroke-opacity:1; 
stroke-linecap:round; stroke-linejoin:round;">
<path d="M38415 18612
L39202 18612
" />
<path d="M39202 18612
L39202 19400
" />
<path d="M33297 18612
L33297 19400
" />
<path d="M34084 18612
L33297 18612
" />
<path d="M38415 24518
L39202 24518
" />
<path d="M34084 24518
L33297 24518
" />
<path d="M39202 24518
L39202 23730
" />
<path d="M33297 24518
L33297 23730
" />
<path d="M25797 22643
L25797 21855
" />
<path d="M31702 22643
L31702 21855
" />
<path d="M26584 22643
L25797 22643
" />
<path d="M30915 22643
L31702 22643
" />
<path d="M26584 16737
L25797 16737
" />
<path d="M25797 16737
L25797 17525
" />
<path d="M31702 16737
L31702 17525
" />
<path d="M30915 16737
L31702 16737
" />
</g>
<g style="fill:#C2C2C2; fill-opacity:0.0; 
stroke:#C2C2C2; stroke-width:60; stroke-opacity:1; 
stroke-linecap:round; stroke-linejoin:round;">
<path d="M32293 16343
L32293 23036
" />
<path d="M25206 16343
L32293 16343
" />
<path d="M25206 23036
L25206 16343
" />
<path d="M32293 23036
L25206 23036
" />
<path d="M24793 24911
L17706 24911
" />
<path d="M17706 24911
L17706 18218
" />
<path d="M17706 18218
L24793 18218
" />
<path d="M24793 18218
L24793 24911
" />
</g>
<g style="fill:#C2C2C2; fill-opacity:0.0; 
stroke:#C2C2C2; stroke-width:59.0551; stroke-opacity:1; 
stroke-linecap:round; stroke-linejoin:round;">
<path d="M23415 18612
L24202 18612
" />
<path d="M24202 18612
L24202 19400
" />
<path d="M18297 18612
L18297 19400
" />
<path d="M19084 18612
L18297 18612
" />
<path d="M23415 24518
L24202 24518
" />
<path d="M19084 24518
L18297 24518
" />
<path d="M24202 24518
L24202 23730
" />
<path d="M18297 24518
L18297 23730
" />
<path d="M10797 26393
L10797 25605
" />
<path d="M16702 26393
L16702 25605
" />
<path d="M11584 26393
L10797 26393
" />
<path d="M15915 26393
L16702 26393
" />
<path d="M11584 20487
L10797 20487
" />
<path d="M10797 20487
L10797 21275
" />
<path d="M16702 20487
L16702 21275
" />
<path d="M15915 20487
L16702 20487
" />
</g>
<g style="fill:#C2C2C2; fill-opacity:0.0; 
stroke:#C2C2C2; stroke-width:60; stroke-opacity:1; 
stroke-linecap:round; stroke-linejoin:round;">
<path d="M17293 20093
L17293 26786
" />
<path d="M10206 20093
L17293 20093
" />
<path d="M10206 26786
L10206 20093
" />
<path d="M17293 26786
L10206 26786
" />
<path d="M9793 28661
L2706 28661
" />
<path d="M2706 28661
L2706 21968
" />
<path d="M2706 21968
L9793 21968
" />
<path d="M9793 21968
L9793 28661
" />
</g>
<g style="fill:#C2C2C2; fill-opacity:0.0; 
stroke:#C2C2C2; stroke-width:59.0551; stroke-opacity:1; 
stroke-linecap:round; stroke-linejoin:round;">
<path d="M8415 22362
L9202 22362
" />
<path d="M9202 22362
L9202 23150
" />
<path d="M3297 22362
L3297 23150
" />
<path d="M4084 22362
L3297 22362
" />
<path d="M8415 28268
L9202 28268
" />
<path d="M4084 28268
L3297 28268
" />
<path d="M9202 28268
L9202 27480
" />
<path d="M3297 28268
L3297 27480
" />
<path d="M3297 20768
L3297 19980
" />
<path d="M9202 20768
L9202 19980
" />
<path d="M4084 20768
L3297 20768
" />
<path d="M8415 20768
L9202 20768
" />
<path d="M4084 14862
L3297 14862
" />
<path d="M3297 14862
L3297 15650
" />
<path d="M9202 14862
L9202 15650
" />
<path d="M8415 14862
L9202 14862
" />
</g>
<g style="fill:#C2C2C2; fill-opacity:0.0; 
stroke:#C2C2C2; stroke-width:60; stroke-opacity:1; 
stroke-linecap:round; stroke-linejoin:round;">
<path d="M9793 14468
L9793 21161
" />
<path d="M2706 14468
L9793 14468
" />
<path d="M2706 21161
L2706 14468
" />
<path d="M9793 21161
L2706 21161
" />
<path d="M17293 19286
L10206 19286
" />
<path d="M10206 19286
L10206 12593
" />
<path d="M10206 12593
L17293 12593
" />
<path d="M17293 12593
L17293 19286
" />
</g>
<g style="fill:#C2C2C2; fill-opacity:0.0; 
stroke:#C2C2C2; stroke-width:59.0551; stroke-opacity:1; 
stroke-linecap:round; stroke-linejoin:round;">
<path d="M15915 12987
L16702 12987
" />
<path d="M16702 12987
L16702 13775
" />
<path d="M10797 12987
L10797 13775
" />
<path d="M11584 12987
L10797 12987
" />
<path d="M15915 18893
L16702 18893
" />
<path d="M11584 18893
L10797 18893
" />
<path d="M16702 18893
L16702 18105
" />
<path d="M10797 18893
L10797 18105
" />
<path d="M18297 17018
L18297 16230
" />
<path d="M24202 17018
L24202 16230
" />
<path d="M19084 17018
L18297 17018
" />
<path d="M23415 17018
L24202 17018
" />
<path d="M19084 11112
L18297 11112
" />
<path d="M18297 11112
L18297 11900
" />
<path d="M24202 11112
L24202 11900
" />
<path d="M23415 11112
L24202 11112
" />
</g>
<g style="fill:#C2C2C2; fill-opacity:0.0; 
stroke:#C2C2C2; stroke-width:60; stroke-opacity:1; 
stroke-linecap:round; stroke-linejoin:round;">
<path d="M24793 10718
L24793 17411
" />
<path d="M17706 10718
L24793 10718
" />
<path d="M17706 17411
L17706 10718
" />
<path d="M24793 17411
L17706 17411
" />
<path d="M32293 15536
L25206 15536
" />
<path d="M25206 15536
L25206 8843
" />
<path d="M25206 8843
L32293 8843
" />
<path d="M32293 8843
L32293 15536
" />
</g>
<g style="fill:#C2C2C2; fill-opacity:0.0; 
stroke:#C2C2C2; stroke-width:59.0551; stroke-opacity:1; 
stroke-linecap:round; stroke-linejoin:round;">
<path d="M30915 9237
L31702 9237
" />
<path d="M31702 9237
L31702 10025
" />
<path d="M25797 9237
L25797 10025
" />
<path d="M26584 9237
L25797 9237
" />
<path d="M30915 15143
L31702 15143
" />
<path d="M26584 15143
L25797 15143
" />
<path d="M31702 15143
L31702 14355
" />
<path d="M25797 15143
L25797 14355
" />
<path d="M33297 17018
L33297 16230
" />
<path d="M39202 17018
L39202 16230
" />
<path d="M34084 17018
L33297 17018
" />
<path d="M38415 17018
L39202 17018
" />
<path d="M34084 11112
L33297 11112
" />
<path d="M33297 11112
L33297 11900
" />
<path d="M39202 11112
L39202 11900
" />
<path d="M38415 11112
L39202 11112
" />
</g>
<g style="fill:#C2C2C2; fill-opacity:0.0; 
stroke:#C2C2C2; stroke-width:60; stroke-opacity:1; 
stroke-linecap:round; stroke-linejoin:round;">
<path d="M39793 10718
L39793 17411
" />
<path d="M32706 10718
L39793 10718
" />
<path d="M32706 17411
L32706 10718
" />
<path d="M39793 17411
L32706 17411
" />
</g>
<g style="fill:#C2C2C2; fill-opacity:0.0; 
stroke:#C2C2C2; stroke-width:59.0551; stroke-opacity:1; 
stroke-linecap:round; stroke-linejoin:round;">
<path d="M40797 18893
L40797 18105
" />
<path d="M46702 18893
L46702 18105
" />
<path d="M41584 18893
L40797 18893
" />
<path d="M45915 18893
L46702 18893
" />
<path d="M41584 12987
L40797 12987
" />
<path d="M40797 12987
L40797 13775
" />
<path d="M46702 12987
L46702 13775
" />
<path d="M45915 12987
L46702 12987
" />
</g>
<g style="fill:#C2C2C2; fill-opacity:0.0; 
stroke:#C2C2C2; stroke-width:60; stroke-opacity:1; 
stroke-linecap:round; stroke-linejoin:round;">
<path d="M47293 12593
L47293 19286
" />
<path d="M40206 12593
L47293 12593
" />
<path d="M40206 19286
L40206 12593
" />
<path d="M47293 19286
L40206 19286
" />
</g>
<g style="fill:#C2C2C2; fill-opacity:0.0; 
stroke:#C2C2C2; stroke-width:78.7402; stroke-opacity:1; 
stroke-linecap:round; stroke-linejoin:round;">
<path d="M13150 4540
L13150 7440
" />
<path d="M13150 7440
L11150 7440
" />
<path d="M11150 7440
L11150 4540
" />
<path d="M11150 4540
L13150 4540
" />
</g>
<g style="fill:#C2C2C2; fill-opacity:0.0; 
stroke:#C2C2C2; stroke-width:59.0551; stroke-opacity:1; 
stroke-linecap:round; stroke-linejoin:round;">
<path d="M28843 33809
L29630 33809
" />
<path d="M29630 33809
L29630 34596
" />
<path d="M28843 39321
L29630 39321
" />
<path d="M29630 39321
L29630 38533
" />
<path d="M24119 38533
L24119 39321
" />
<path d="M24119 39321
L24906 39321
" />
<path d="M24906 33809
L24119 33809
" />
<path d="M24119 33809
L24119 34596
" />
<path d="M23125 32815
L30625 32815
" />
<path d="M30625 32815
L30625 40315
" />
<path d="M30625 40315
L23125 40315
" />
<path d="M23125 40315
L23125 32815
" />
<path d="M21343 35684
L22130 35684
" />
<path d="M22130 35684
L22130 36471
" />
<path d="M21343 41196
L22130 41196
" />
<path d="M22130 41196
L22130 40408
" />
<path d="M16619 40408
L16619 41196
" />
<path d="M16619 41196
L17406 41196
" />
<path d="M17406 35684
L16619 35684
" />
<path d="M16619 35684
L16619 36471
" />
<path d="M15625 34690
L23125 34690
" />
<path d="M23125 34690
L23125 42190
" />
<path d="M23125 42190
L15625 42190
" />
<path d="M15625 42190
L15625 34690
" />
<path d="M13843 37559
L14630 37559
" />
<path d="M14630 37559
L14630 38346
" />
<path d="M13843 43071
L14630 43071
" />
<path d="M14630 43071
L14630 42283
" />
<path d="M9119 42283
L9119 43071
" />
<path d="M9119 43071
L9906 43071
" />
<path d="M9906 37559
L9119 37559
" />
<path d="M9119 37559
L9119 38346
" />
<path d="M8125 36565
L15625 36565
" />
<path d="M15625 36565
L15625 44065
" />
<path d="M15625 44065
L8125 44065
" />
<path d="M8125 44065
L8125 36565
" />
<path d="M45718 28184
L46505 28184
" />
<path d="M46505 28184
L46505 28971
" />
<path d="M45718 33696
L46505 33696
" />
<path d="M46505 33696
L46505 32908
" />
<path d="M40994 32908
L40994 33696
" />
<path d="M40994 33696
L41781 33696
" />
<path d="M41781 28184
L40994 28184
" />
<path d="M40994 28184
L40994 28971
" />
<path d="M40000 27190
L47500 27190
" />
<path d="M47500 27190
L47500 34690
" />
<path d="M47500 34690
L40000 34690
" />
<path d="M40000 34690
L40000 27190
" />
<path d="M38218 26309
L39005 26309
" />
<path d="M39005 26309
L39005 27096
" />
<path d="M38218 31821
L39005 31821
" />
<path d="M39005 31821
L39005 31033
" />
<path d="M33494 31033
L33494 31821
" />
<path d="M33494 31821
L34281 31821
" />
<path d="M34281 26309
L33494 26309
" />
<path d="M33494 26309
L33494 27096
" />
<path d="M32500 25315
L40000 25315
" />
<path d="M40000 25315
L40000 32815
" />
<path d="M40000 32815
L32500 32815
" />
<path d="M32500 32815
L32500 25315
" />
<path d="M30718 24434
L31505 24434
" />
<path d="M31505 24434
L31505 25221
" />
<path d="M30718 29946
L31505 29946
" />
<path d="M31505 29946
L31505 29158
" />
<path d="M25994 29158
L25994 29946
" />
<path d="M25994 29946
L26781 29946
" />
<path d="M26781 24434
L25994 24434
" />
<path d="M25994 24434
L25994 25221
" />
<path d="M25000 23440
L32500 23440
" />
<path d="M32500 23440
L32500 30940
" />
<path d="M32500 30940
L25000 30940
" />
<path d="M25000 30940
L25000 23440
" />
<path d="M23218 26309
L24005 26309
" />
<path d="M24005 26309
L24005 27096
" />
<path d="M23218 31821
L24005 31821
" />
<path d="M24005 31821
L24005 31033
" />
<path d="M18494 31033
L18494 31821
" />
<path d="M18494 31821
L19281 31821
" />
<path d="M19281 26309
L18494 26309
" />
<path d="M18494 26309
L18494 27096
" />
<path d="M17500 25315
L25000 25315
" />
<path d="M25000 25315
L25000 32815
" />
<path d="M25000 32815
L17500 32815
" />
<path d="M17500 32815
L17500 25315
" />
<path d="M15718 28184
L16505 28184
" />
<path d="M16505 28184
L16505 28971
" />
<path d="M15718 33696
L16505 33696
" />
<path d="M16505 33696
L16505 32908
" />
<path d="M10994 32908
L10994 33696
" />
<path d="M10994 33696
L11781 33696
" />
<path d="M11781 28184
L10994 28184
" />
<path d="M10994 28184
L10994 28971
" />
<path d="M10000 27190
L17500 27190
" />
<path d="M17500 27190
L17500 34690
" />
<path d="M17500 34690
L10000 34690
" />
<path d="M10000 34690
L10000 27190
" />
<path d="M8218 30059
L9005 30059
" />
<path d="M9005 30059
L9005 30846
" />
<path d="M8218 35571
L9005 35571
" />
<path d="M9005 35571
L9005 34783
" />
<path d="M3494 34783
L3494 35571
" />
<path d="M3494 35571
L4281 35571
" />
<path d="M4281 30059
L3494 30059
" />
<path d="M3494 30059
L3494 30846
" />
<path d="M2500 29065
L10000 29065
" />
<path d="M10000 29065
L10000 36565
" />
<path d="M10000 36565
L2500 36565
" />
<path d="M2500 36565
L2500 29065
" />
<path d="M45718 20684
L46505 20684
" />
<path d="M46505 20684
L46505 21471
" />
<path d="M45718 26196
L46505 26196
" />
<path d="M46505 26196
L46505 25408
" />
<path d="M40994 25408
L40994 26196
" />
<path d="M40994 26196
L41781 26196
" />
<path d="M41781 20684
L40994 20684
" />
<path d="M40994 20684
L40994 21471
" />
<path d="M40000 19690
L47500 19690
" />
<path d="M47500 19690
L47500 27190
" />
<path d="M47500 27190
L40000 27190
" />
<path d="M40000 27190
L40000 19690
" />
<path d="M38218 18809
L39005 18809
" />
<path d="M39005 18809
L39005 19596
" />
<path d="M38218 24321
L39005 24321
" />
<path d="M39005 24321
L39005 23533
" />
<path d="M33494 23533
L33494 24321
" />
<path d="M33494 24321
L34281 24321
" />
<path d="M34281 18809
L33494 18809
" />
<path d="M33494 18809
L33494 19596
" />
<path d="M32500 17815
L40000 17815
" />
<path d="M40000 17815
L40000 25315
" />
<path d="M40000 25315
L32500 25315
" />
<path d="M32500 25315
L32500 17815
" />
<path d="M30718 16934
L31505 16934
" />
<path d="M31505 16934
L31505 17721
" />
<path d="M30718 22446
L31505 22446
" />
<path d="M31505 22446
L31505 21658
" />
<path d="M25994 21658
L25994 22446
" />
<path d="M25994 22446
L26781 22446
" />
<path d="M26781 16934
L25994 16934
" />
<path d="M25994 16934
L25994 17721
" />
<path d="M25000 15940
L32500 15940
" />
<path d="M32500 15940
L32500 23440
" />
<path d="M32500 23440
L25000 23440
" />
<path d="M25000 23440
L25000 15940
" />
<path d="M23218 18809
L24005 18809
" />
<path d="M24005 18809
L24005 19596
" />
<path d="M23218 24321
L24005 24321
" />
<path d="M24005 24321
L24005 23533
" />
<path d="M18494 23533
L18494 24321
" />
<path d="M18494 24321
L19281 24321
" />
<path d="M19281 18809
L18494 18809
" />
<path d="M18494 18809
L18494 19596
" />
<path d="M17500 17815
L25000 17815
" />
<path d="M25000 17815
L25000 25315
" />
<path d="M25000 25315
L17500 25315
" />
<path d="M17500 25315
L17500 17815
" />
<path d="M15718 20684
L16505 20684
" />
<path d="M16505 20684
L16505 21471
" />
<path d="M15718 26196
L16505 26196
" />
<path d="M16505 26196
L16505 25408
" />
<path d="M10994 25408
L10994 26196
" />
<path d="M10994 26196
L11781 26196
" />
<path d="M11781 20684
L10994 20684
" />
<path d="M10994 20684
L10994 21471
" />
<path d="M10000 19690
L17500 19690
" />
<path d="M17500 19690
L17500 27190
" />
<path d="M17500 27190
L10000 27190
" />
<path d="M10000 27190
L10000 19690
" />
<path d="M8218 22559
L9005 22559
" />
<path d="M9005 22559
L9005 23346
" />
<path d="M8218 28071
L9005 28071
" />
<path d="M9005 28071
L9005 27283
" />
<path d="M3494 27283
L3494 28071
" />
<path d="M3494 28071
L4281 28071
" />
<path d="M4281 22559
L3494 22559
" />
<path d="M3494 22559
L3494 23346
" />
<path d="M2500 21565
L10000 21565
" />
<path d="M10000 21565
L10000 29065
" />
<path d="M10000 29065
L2500 29065
" />
<path d="M2500 29065
L2500 21565
" />
<path d="M45718 13184
L46505 13184
" />
<path d="M46505 13184
L46505 13971
" />
<path d="M45718 18696
L46505 18696
" />
<path d="M46505 18696
L46505 17908
" />
<path d="M40994 17908
L40994 18696
" />
<path d="M40994 18696
L41781 18696
" />
<path d="M41781 13184
L40994 13184
" />
<path d="M40994 13184
L40994 13971
" />
<path d="M40000 12190
L47500 12190
" />
<path d="M47500 12190
L47500 19690
" />
<path d="M47500 19690
L40000 19690
" />
<path d="M40000 19690
L40000 12190
" />
<path d="M38218 11309
L39005 11309
" />
<path d="M39005 11309
L39005 12096
" />
<path d="M38218 16821
L39005 16821
" />
<path d="M39005 16821
L39005 16033
" />
<path d="M33494 16033
L33494 16821
" />
<path d="M33494 16821
L34281 16821
" />
<path d="M34281 11309
L33494 11309
" />
<path d="M33494 11309
L33494 12096
" />
<path d="M32500 10315
L40000 10315
" />
<path d="M40000 10315
L40000 17815
" />
<path d="M40000 17815
L32500 17815
" />
<path d="M32500 17815
L32500 10315
" />
<path d="M30718 9434
L31505 9434
" />
<path d="M31505 9434
L31505 10221
" />
<path d="M30718 14946
L31505 14946
" />
<path d="M31505 14946
L31505 14158
" />
<path d="M25994 14158
L25994 14946
" />
<path d="M25994 14946
L26781 14946
" />
<path d="M26781 9434
L25994 9434
" />
<path d="M25994 9434
L25994 10221
" />
<path d="M25000 8440
L32500 8440
" />
<path d="M32500 8440
L32500 15940
" />
<path d="M32500 15940
L25000 15940
" />
<path d="M25000 15940
L25000 8440
" />
<path d="M23218 11309
L24005 11309
" />
<path d="M24005 11309
L24005 12096
" />
<path d="M23218 16821
L24005 16821
" />
<path d="M24005 16821
L24005 16033
" />
<path d="M18494 16033
L18494 16821
" />
<path d="M18494 16821
L19281 16821
" />
<path d="M19281 11309
L18494 11309
" />
<path d="M18494 11309
L18494 12096
" />
<path d="M17500 10315
L25000 10315
" />
<path d="M25000 10315
L25000 17815
" />
<path d="M25000 17815
L17500 17815
" />
<path d="M17500 17815
L17500 10315
" />
<path d="M15718 13184
L16505 13184
" />
<path d="M16505 13184
L16505 13971
" />
<path d="M15718 18696
L16505 18696
" />
<path d="M16505 18696
L16505 17908
" />
<path d="M10994 17908
L10994 18696
" />
<path d="M10994 18696
L11781 18696
" />
<path d="M11781 13184
L10994 13184
" />
<path d="M10994 13184
L10994 13971
" />
<path d="M10000 12190
L17500 12190
" />
<path d="M17500 12190
L17500 19690
" />
<path d="M17500 19690
L10000 19690
" />
<path d="M10000 19690
L10000 12190
" />
<path d="M8218 15059
L9005 15059
" />
<path d="M9005 15059
L9005 15846
" />
<path d="M8218 20571
L9005 20571
" />
<path d="M9005 20571
L9005 19783
" />
<path d="M3494 19783
L3494 20571
" />
<path d="M3494 20571
L4281 20571
" />
<path d="M4281 15059
L3494 15059
" />
<path d="M3494 15059
L3494 15846
" />
<path d="M2500 14065
L10000 14065
" />
<path d="M10000 14065
L10000 21565
" />
<path d="M10000 21565
L2500 21565
" />
<path d="M2500 21565
L2500 14065
" />
<g >
</g>
<g >
</g>
<g >
</g>
<g >
</g>
<g >
</g>
<g >
</g>
<g >
</g>
<g >
</g>
<g >
</g>
<g >
</g>
<g >
</g>
<g >
</g>
<g >
</g>
<g >
</g>
<g >
</g>
<g >
</g>
<g >
</g>
<g >
</g>
<g >
</g>
<g >
</g>
<g >
</g>
<g >
</g>
<g >
</g>
<g >
</g>
<g >
</g>
<g >
</g>
<g >
</g>
<g >
</g>
<g >
</g>
<g >
</g>
<g >
</g>
<g >
</g>
<g >
</g>
<g >
</g>
<g >
</g>
<g >
</g>
<g >
</g>
<g >
</g>
<g >
</g>
<g >
</g>
<g >
</g>
<g >
</g>
<g >
</g>
<g >
</g>
<g >
</g>
<g >
</g>
<g >
</g>
<g >
</g>
<g >
</g>
<g >
</g>
<g >
</g>
<g >
</g>
<g >
</g>
<g >
</g>
<g >
</g>
<g >
</g>
<g >
</g>
<g >
</g>
<g >
</g>
<g >
</g>
<g >
</g>
<g >
</g>
<g >
</g>
<g >
</g>
<g >
</g>
<g >
</g>
<g >
</g>
<g >
</g>
<g >
</g>
<g >
</g>
<g >
</g>
<g >
</g>
<g >
</g>
</g>
<g style="fill:#C2C2C2; fill-opacity:0.0; 
stroke:#C2C2C2; stroke-width:59.0551; stroke-opacity:1; 
stroke-linecap:round; stroke-linejoin:round;">
<g transform="rotate(10 39292.7 35362.9)">
<text x="39292.7" y="35559.8"
textLength="1912.26" font-size="524.934" lengthAdjust="spacingAndGlyphs"
text-anchor="middle" opacity="0">KEYSW</text>
</g>
<path d="M38412 35388
L38480 35000
" />
<path d="M38633 35427
L38506 35176
" />
<path d="M38702 35039
L38441 35222
" />
<path d="M38835 35253
L38965 35276
" />
<path d="M38984 35489
L38800 35456
L38868 35069
L39053 35101
" />
<path d="M39257 35347
L39224 35531
" />
<path d="M39163 35121
L39257 35347
L39422 35166
" />
<path d="M39468 35555
L39520 35583
L39612 35600
L39652 35588
L39674 35573
L39699 35539
L39705 35502
L39693 35462
L39678 35440
L39645 35415
L39574 35384
L39540 35359
L39525 35337
L39513 35297
L39520 35260
L39545 35226
L39566 35211
L39607 35199
L39699 35215
L39751 35243
" />
<path d="M39883 35248
L39907 35652
L40030 35388
L40055 35678
L40216 35306
" />
</g>
<g style="fill:#C2C2C2; fill-opacity:0.0; 
stroke:#C2C2C2; stroke-width:78.7402; stroke-opacity:1; 
stroke-linecap:round; stroke-linejoin:round;">
<g transform="rotate(10 39238.4 35670.7)">
<text x="39238.4" y="35867.5"
textLength="807.93" font-size="524.934" lengthAdjust="spacingAndGlyphs"
text-anchor="middle" opacity="0">1u</text>
</g>
<path d="M39142 35834
L38921 35795
" />
<path d="M39032 35815
L39100 35427
L39053 35476
L39010 35506
L38970 35518
" />
<path d="M39520 35634
L39475 35893
" />
<path d="M39354 35605
L39318 35808
L39330 35848
L39364 35873
L39419 35883
L39459 35871
L39481 35856
" />
</g>
<g style="fill:#C2C2C2; fill-opacity:0.0; 
stroke:#C2C2C2; stroke-width:59.0551; stroke-opacity:1; 
stroke-linecap:round; stroke-linejoin:round;">
<g transform="rotate(10 38567.1 39477.6)">
<text x="38567.1" y="39674.5"
textLength="1789.65" font-size="524.934" lengthAdjust="spacingAndGlyphs"
text-anchor="middle" opacity="0">REF**</text>
</g>
<path d="M38019 39561
L37922 39354
" />
<path d="M37797 39522
L37866 39135
L38013 39161
L38047 39186
L38062 39207
L38074 39247
L38064 39303
L38039 39337
L38018 39352
L37977 39364
L37830 39338
" />
<path d="M38221 39388
L38350 39410
" />
<path d="M38370 39623
L38185 39591
L38253 39203
L38438 39235
" />
<path d="M38701 39472
L38572 39449
" />
<path d="M38536 39653
L38604 39265
L38789 39297
" />
<path d="M38992 39333
L38976 39425
" />
<path d="M38890 39372
L38976 39425
L39074 39405
" />
<path d="M38907 39490
L38976 39425
L39018 39509
" />
<path d="M39287 39385
L39271 39478
" />
<path d="M39185 39424
L39271 39478
L39370 39457
" />
<path d="M39202 39542
L39271 39478
L39313 39561
" />
</g>
<g style="fill:#C2C2C2; fill-opacity:0.0; 
stroke:#C2C2C2; stroke-width:78.7402; stroke-opacity:1; 
stroke-linecap:round; stroke-linejoin:round;">
<text x="26875" y="33949.8"
textLength="807.93" font-size="524.934" lengthAdjust="spacingAndGlyphs"
text-anchor="middle" opacity="0">1u</text>
<path d="M26809 33931
L26584 33931
" />
<path d="M26696 33931
L26696 33537
L26659 33593
L26621 33631
L26584 33649
" />
<path d="M27146 33668
L27146 33931
" />
<path d="M26978 33668
L26978 33874
L26996 33912
L27034 33931
L27090 33931
L27128 33912
L27146 33893
" />
</g>
<g style="fill:#C2C2C2; fill-opacity:0.0; 
stroke:#C2C2C2; stroke-width:59.0551; stroke-opacity:1; 
stroke-linecap:round; stroke-linejoin:round;">
<text x="26875" y="37815.5"
textLength="1789.65" font-size="524.934" lengthAdjust="spacingAndGlyphs"
text-anchor="middle" opacity="0">REF**</text>
<path d="M26350 37796
L26218 37609
" />
<path d="M26125 37796
L26125 37403
L26275 37403
L26312 37421
L26331 37440
L26350 37477
L26350 37534
L26331 37571
L26312 37590
L26275 37609
L26125 37609
" />
<path d="M26518 37590
L26650 37590
" />
<path d="M26706 37796
L26518 37796
L26518 37403
L26706 37403
" />
<path d="M27006 37590
L26875 37590
" />
<path d="M26875 37796
L26875 37403
L27062 37403
" />
<path d="M27268 37403
L27268 37496
" />
<path d="M27174 37459
L27268 37496
L27362 37459
" />
<path d="M27212 37571
L27268 37496
L27324 37571
" />
<path d="M27568 37403
L27568 37496
" />
<path d="M27474 37459
L27568 37496
L27662 37459
" />
<path d="M27512 37571
L27568 37496
L27624 37571
" />
</g>
<g style="fill:#C2C2C2; fill-opacity:0.0; 
stroke:#C2C2C2; stroke-width:78.7402; stroke-opacity:1; 
stroke-linecap:round; stroke-linejoin:round;">
<text x="19375" y="35824.8"
textLength="807.93" font-size="524.934" lengthAdjust="spacingAndGlyphs"
text-anchor="middle" opacity="0">1u</text>
<path d="M19309 35806
L19084 35806
" />
<path d="M19196 35806
L19196 35412
L19159 35468
L19121 35506
L19084 35524
" />
<path d="M19646 35543
L19646 35806
" />
<path d="M19478 35543
L19478 35749
L19496 35787
L19534 35806
L19590 35806
L19628 35787
L19646 35768
" />
</g>
<g style="fill:#C2C2C2; fill-opacity:0.0; 
stroke:#C2C2C2; stroke-width:59.0551; stroke-opacity:1; 
stroke-linecap:round; stroke-linejoin:round;">
<text x="19375" y="39690.5"
textLength="1789.65" font-size="524.934" lengthAdjust="spacingAndGlyphs"
text-anchor="middle" opacity="0">REF**</text>
<path d="M18850 39671
L18718 39484
" />
<path d="M18625 39671
L18625 39278
L18775 39278
L18812 39296
L18831 39315
L18850 39352
L18850 39409
L18831 39446
L18812 39465
L18775 39484
L18625 39484
" />
<path d="M19018 39465
L19150 39465
" />
<path d="M19206 39671
L19018 39671
L19018 39278
L19206 39278
" />
<path d="M19506 39465
L19375 39465
" />
<path d="M19375 39671
L19375 39278
L19562 39278
" />
<path d="M19768 39278
L19768 39371
" />
<path d="M19674 39334
L19768 39371
L19862 39334
" />
<path d="M19712 39446
L19768 39371
L19824 39446
" />
<path d="M20068 39278
L20068 39371
" />
<path d="M19974 39334
L20068 39371
L20162 39334
" />
<path d="M20012 39446
L20068 39371
L20124 39446
" />
</g>
<g style="fill:#C2C2C2; fill-opacity:0.0; 
stroke:#C2C2C2; stroke-width:78.7402; stroke-opacity:1; 
stroke-linecap:round; stroke-linejoin:round;">
<text x="11875" y="37699.8"
textLength="807.93" font-size="524.934" lengthAdjust="spacingAndGlyphs"
text-anchor="middle" opacity="0">1u</text>
<path d="M11809 37681
L11584 37681
" />
<path d="M11696 37681
L11696 37287
L11659 37343
L11621 37381
L11584 37399
" />
<path d="M12146 37418
L12146 37681
" />
<path d="M11978 37418
L11978 37624
L11996 37662
L12034 37681
L12090 37681
L12128 37662
L12146 37643
" />
</g>
<g style="fill:#C2C2C2; fill-opacity:0.0; 
stroke:#C2C2C2; stroke-width:59.0551; stroke-opacity:1; 
stroke-linecap:round; stroke-linejoin:round;">
<text x="11875" y="41565.5"
textLength="1789.65" font-size="524.934" lengthAdjust="spacingAndGlyphs"
text-anchor="middle" opacity="0">REF**</text>
<path d="M11350 41546
L11218 41359
" />
<path d="M11125 41546
L11125 41153
L11275 41153
L11312 41171
L11331 41190
L11350 41227
L11350 41284
L11331 41321
L11312 41340
L11275 41359
L11125 41359
" />
<path d="M11518 41340
L11650 41340
" />
<path d="M11706 41546
L11518 41546
L11518 41153
L11706 41153
" />
<path d="M12006 41340
L11875 41340
" />
<path d="M11875 41546
L11875 41153
L12062 41153
" />
<path d="M12268 41153
L12268 41246
" />
<path d="M12174 41209
L12268 41246
L12362 41209
" />
<path d="M12212 41321
L12268 41246
L12324 41321
" />
<path d="M12568 41153
L12568 41246
" />
<path d="M12474 41209
L12568 41246
L12662 41209
" />
<path d="M12512 41321
L12568 41246
L12624 41321
" />
</g>
<g style="fill:#C2C2C2; fill-opacity:0.0; 
stroke:#C2C2C2; stroke-width:78.7402; stroke-opacity:1; 
stroke-linecap:round; stroke-linejoin:round;">
<text x="6250" y="30199.8"
textLength="807.93" font-size="524.934" lengthAdjust="spacingAndGlyphs"
text-anchor="middle" opacity="0">1u</text>
<path d="M6184 30181
L5959 30181
" />
<path d="M6071 30181
L6071 29787
L6034 29843
L5996 29881
L5959 29899
" />
<path d="M6521 29918
L6521 30181
" />
<path d="M6353 29918
L6353 30124
L6371 30162
L6409 30181
L6465 30181
L6503 30162
L6521 30143
" />
</g>
<g style="fill:#C2C2C2; fill-opacity:0.0; 
stroke:#C2C2C2; stroke-width:59.0551; stroke-opacity:1; 
stroke-linecap:round; stroke-linejoin:round;">
<text x="6250" y="34065.5"
textLength="1789.65" font-size="524.934" lengthAdjust="spacingAndGlyphs"
text-anchor="middle" opacity="0">REF**</text>
<path d="M5725 34046
L5593 33859
" />
<path d="M5500 34046
L5500 33653
L5650 33653
L5687 33671
L5706 33690
L5725 33727
L5725 33784
L5706 33821
L5687 33840
L5650 33859
L5500 33859
" />
<path d="M5893 33840
L6025 33840
" />
<path d="M6081 34046
L5893 34046
L5893 33653
L6081 33653
" />
<path d="M6381 33840
L6250 33840
" />
<path d="M6250 34046
L6250 33653
L6437 33653
" />
<path d="M6643 33653
L6643 33746
" />
<path d="M6549 33709
L6643 33746
L6737 33709
" />
<path d="M6587 33821
L6643 33746
L6699 33821
" />
<path d="M6943 33653
L6943 33746
" />
<path d="M6849 33709
L6943 33746
L7037 33709
" />
<path d="M6887 33821
L6943 33746
L6999 33821
" />
</g>
<g style="fill:#C2C2C2; fill-opacity:0.0; 
stroke:#C2C2C2; stroke-width:78.7402; stroke-opacity:1; 
stroke-linecap:round; stroke-linejoin:round;">
<text x="13750" y="28324.8"
textLength="807.93" font-size="524.934" lengthAdjust="spacingAndGlyphs"
text-anchor="middle" opacity="0">1u</text>
<path d="M13684 28306
L13459 28306
" />
<path d="M13571 28306
L13571 27912
L13534 27968
L13496 28006
L13459 28024
" />
<path d="M14021 28043
L14021 28306
" />
<path d="M13853 28043
L13853 28249
L13871 28287
L13909 28306
L13965 28306
L14003 28287
L14021 28268
" />
</g>
<g style="fill:#C2C2C2; fill-opacity:0.0; 
stroke:#C2C2C2; stroke-width:59.0551; stroke-opacity:1; 
stroke-linecap:round; stroke-linejoin:round;">
<text x="13750" y="32190.5"
textLength="1789.65" font-size="524.934" lengthAdjust="spacingAndGlyphs"
text-anchor="middle" opacity="0">REF**</text>
<path d="M13225 32171
L13093 31984
" />
<path d="M13000 32171
L13000 31778
L13150 31778
L13187 31796
L13206 31815
L13225 31852
L13225 31909
L13206 31946
L13187 31965
L13150 31984
L13000 31984
" />
<path d="M13393 31965
L13525 31965
" />
<path d="M13581 32171
L13393 32171
L13393 31778
L13581 31778
" />
<path d="M13881 31965
L13750 31965
" />
<path d="M13750 32171
L13750 31778
L13937 31778
" />
<path d="M14143 31778
L14143 31871
" />
<path d="M14049 31834
L14143 31871
L14237 31834
" />
<path d="M14087 31946
L14143 31871
L14199 31946
" />
<path d="M14443 31778
L14443 31871
" />
<path d="M14349 31834
L14443 31871
L14537 31834
" />
<path d="M14387 31946
L14443 31871
L14499 31946
" />
</g>
<g style="fill:#C2C2C2; fill-opacity:0.0; 
stroke:#C2C2C2; stroke-width:78.7402; stroke-opacity:1; 
stroke-linecap:round; stroke-linejoin:round;">
<text x="21250" y="26449.8"
textLength="807.93" font-size="524.934" lengthAdjust="spacingAndGlyphs"
text-anchor="middle" opacity="0">1u</text>
<path d="M21184 26431
L20959 26431
" />
<path d="M21071 26431
L21071 26037
L21034 26093
L20996 26131
L20959 26149
" />
<path d="M21521 26168
L21521 26431
" />
<path d="M21353 26168
L21353 26374
L21371 26412
L21409 26431
L21465 26431
L21503 26412
L21521 26393
" />
</g>
<g style="fill:#C2C2C2; fill-opacity:0.0; 
stroke:#C2C2C2; stroke-width:59.0551; stroke-opacity:1; 
stroke-linecap:round; stroke-linejoin:round;">
<text x="21250" y="30315.5"
textLength="1789.65" font-size="524.934" lengthAdjust="spacingAndGlyphs"
text-anchor="middle" opacity="0">REF**</text>
<path d="M20725 30296
L20593 30109
" />
<path d="M20500 30296
L20500 29903
L20650 29903
L20687 29921
L20706 29940
L20725 29977
L20725 30034
L20706 30071
L20687 30090
L20650 30109
L20500 30109
" />
<path d="M20893 30090
L21025 30090
" />
<path d="M21081 30296
L20893 30296
L20893 29903
L21081 29903
" />
<path d="M21381 30090
L21250 30090
" />
<path d="M21250 30296
L21250 29903
L21437 29903
" />
<path d="M21643 29903
L21643 29996
" />
<path d="M21549 29959
L21643 29996
L21737 29959
" />
<path d="M21587 30071
L21643 29996
L21699 30071
" />
<path d="M21943 29903
L21943 29996
" />
<path d="M21849 29959
L21943 29996
L22037 29959
" />
<path d="M21887 30071
L21943 29996
L21999 30071
" />
</g>
<g style="fill:#C2C2C2; fill-opacity:0.0; 
stroke:#C2C2C2; stroke-width:78.7402; stroke-opacity:1; 
stroke-linecap:round; stroke-linejoin:round;">
<text x="28750" y="24574.8"
textLength="807.93" font-size="524.934" lengthAdjust="spacingAndGlyphs"
text-anchor="middle" opacity="0">1u</text>
<path d="M28684 24556
L28459 24556
" />
<path d="M28571 24556
L28571 24162
L28534 24218
L28496 24256
L28459 24274
" />
<path d="M29021 24293
L29021 24556
" />
<path d="M28853 24293
L28853 24499
L28871 24537
L28909 24556
L28965 24556
L29003 24537
L29021 24518
" />
</g>
<g style="fill:#C2C2C2; fill-opacity:0.0; 
stroke:#C2C2C2; stroke-width:59.0551; stroke-opacity:1; 
stroke-linecap:round; stroke-linejoin:round;">
<text x="28750" y="28440.5"
textLength="1789.65" font-size="524.934" lengthAdjust="spacingAndGlyphs"
text-anchor="middle" opacity="0">REF**</text>
<path d="M28225 28421
L28093 28234
" />
<path d="M28000 28421
L28000 28028
L28150 28028
L28187 28046
L28206 28065
L28225 28102
L28225 28159
L28206 28196
L28187 28215
L28150 28234
L28000 28234
" />
<path d="M28393 28215
L28525 28215
" />
<path d="M28581 28421
L28393 28421
L28393 28028
L28581 28028
" />
<path d="M28881 28215
L28750 28215
" />
<path d="M28750 28421
L28750 28028
L28937 28028
" />
<path d="M29143 28028
L29143 28121
" />
<path d="M29049 28084
L29143 28121
L29237 28084
" />
<path d="M29087 28196
L29143 28121
L29199 28196
" />
<path d="M29443 28028
L29443 28121
" />
<path d="M29349 28084
L29443 28121
L29537 28084
" />
<path d="M29387 28196
L29443 28121
L29499 28196
" />
</g>
<g style="fill:#C2C2C2; fill-opacity:0.0; 
stroke:#C2C2C2; stroke-width:78.7402; stroke-opacity:1; 
stroke-linecap:round; stroke-linejoin:round;">
<text x="36250" y="26449.8"
textLength="807.93" font-size="524.934" lengthAdjust="spacingAndGlyphs"
text-anchor="middle" opacity="0">1u</text>
<path d="M36184 26431
L35959 26431
" />
<path d="M36071 26431
L36071 26037
L36034 26093
L35996 26131
L35959 26149
" />
<path d="M36521 26168
L36521 26431
" />
<path d="M36353 26168
L36353 26374
L36371 26412
L36409 26431
L36465 26431
L36503 26412
L36521 26393
" />
</g>
<g style="fill:#C2C2C2; fill-opacity:0.0; 
stroke:#C2C2C2; stroke-width:59.0551; stroke-opacity:1; 
stroke-linecap:round; stroke-linejoin:round;">
<text x="36250" y="30315.5"
textLength="1789.65" font-size="524.934" lengthAdjust="spacingAndGlyphs"
text-anchor="middle" opacity="0">REF**</text>
<path d="M35725 30296
L35593 30109
" />
<path d="M35500 30296
L35500 29903
L35650 29903
L35687 29921
L35706 29940
L35725 29977
L35725 30034
L35706 30071
L35687 30090
L35650 30109
L35500 30109
" />
<path d="M35893 30090
L36025 30090
" />
<path d="M36081 30296
L35893 30296
L35893 29903
L36081 29903
" />
<path d="M36381 30090
L36250 30090
" />
<path d="M36250 30296
L36250 29903
L36437 29903
" />
<path d="M36643 29903
L36643 29996
" />
<path d="M36549 29959
L36643 29996
L36737 29959
" />
<path d="M36587 30071
L36643 29996
L36699 30071
" />
<path d="M36943 29903
L36943 29996
" />
<path d="M36849 29959
L36943 29996
L37037 29959
" />
<path d="M36887 30071
L36943 29996
L36999 30071
" />
</g>
<g style="fill:#C2C2C2; fill-opacity:0.0; 
stroke:#C2C2C2; stroke-width:78.7402; stroke-opacity:1; 
stroke-linecap:round; stroke-linejoin:round;">
<text x="43750" y="28324.8"
textLength="807.93" font-size="524.934" lengthAdjust="spacingAndGlyphs"
text-anchor="middle" opacity="0">1u</text>
<path d="M43684 28306
L43459 28306
" />
<path d="M43571 28306
L43571 27912
L43534 27968
L43496 28006
L43459 28024
" />
<path d="M44021 28043
L44021 28306
" />
<path d="M43853 28043
L43853 28249
L43871 28287
L43909 28306
L43965 28306
L44003 28287
L44021 28268
" />
<text x="43750" y="20824.8"
textLength="833.521" font-size="524.934" lengthAdjust="spacingAndGlyphs"
text-anchor="middle" opacity="0">1u</text>
<path d="M43684 20806
L43459 20806
" />
<path d="M43571 20806
L43571 20412
L43534 20468
L43496 20506
L43459 20524
" />
<path d="M44021 20543
L44021 20806
" />
<path d="M43853 20543
L43853 20749
L43871 20787
L43909 20806
L43965 20806
L44003 20787
L44021 20768
" />
</g>
<g style="fill:#C2C2C2; fill-opacity:0.0; 
stroke:#C2C2C2; stroke-width:59.0551; stroke-opacity:1; 
stroke-linecap:round; stroke-linejoin:round;">
<text x="43750" y="24690.5"
textLength="1789.65" font-size="524.934" lengthAdjust="spacingAndGlyphs"
text-anchor="middle" opacity="0">REF**</text>
<path d="M43225 24671
L43093 24484
" />
<path d="M43000 24671
L43000 24278
L43150 24278
L43187 24296
L43206 24315
L43225 24352
L43225 24409
L43206 24446
L43187 24465
L43150 24484
L43000 24484
" />
<path d="M43393 24465
L43525 24465
" />
<path d="M43581 24671
L43393 24671
L43393 24278
L43581 24278
" />
<path d="M43881 24465
L43750 24465
" />
<path d="M43750 24671
L43750 24278
L43937 24278
" />
<path d="M44143 24278
L44143 24371
" />
<path d="M44049 24334
L44143 24371
L44237 24334
" />
<path d="M44087 24446
L44143 24371
L44199 24446
" />
<path d="M44443 24278
L44443 24371
" />
<path d="M44349 24334
L44443 24371
L44537 24334
" />
<path d="M44387 24446
L44443 24371
L44499 24446
" />
</g>
<g style="fill:#C2C2C2; fill-opacity:0.0; 
stroke:#C2C2C2; stroke-width:78.7402; stroke-opacity:1; 
stroke-linecap:round; stroke-linejoin:round;">
<text x="36250" y="18949.8"
textLength="807.93" font-size="524.934" lengthAdjust="spacingAndGlyphs"
text-anchor="middle" opacity="0">1u</text>
<path d="M36184 18931
L35959 18931
" />
<path d="M36071 18931
L36071 18537
L36034 18593
L35996 18631
L35959 18649
" />
<path d="M36521 18668
L36521 18931
" />
<path d="M36353 18668
L36353 18874
L36371 18912
L36409 18931
L36465 18931
L36503 18912
L36521 18893
" />
</g>
<g style="fill:#C2C2C2; fill-opacity:0.0; 
stroke:#C2C2C2; stroke-width:59.0551; stroke-opacity:1; 
stroke-linecap:round; stroke-linejoin:round;">
<text x="36250" y="22815.5"
textLength="1789.65" font-size="524.934" lengthAdjust="spacingAndGlyphs"
text-anchor="middle" opacity="0">REF**</text>
<path d="M35725 22796
L35593 22609
" />
<path d="M35500 22796
L35500 22403
L35650 22403
L35687 22421
L35706 22440
L35725 22477
L35725 22534
L35706 22571
L35687 22590
L35650 22609
L35500 22609
" />
<path d="M35893 22590
L36025 22590
" />
<path d="M36081 22796
L35893 22796
L35893 22403
L36081 22403
" />
<path d="M36381 22590
L36250 22590
" />
<path d="M36250 22796
L36250 22403
L36437 22403
" />
<path d="M36643 22403
L36643 22496
" />
<path d="M36549 22459
L36643 22496
L36737 22459
" />
<path d="M36587 22571
L36643 22496
L36699 22571
" />
<path d="M36943 22403
L36943 22496
" />
<path d="M36849 22459
L36943 22496
L37037 22459
" />
<path d="M36887 22571
L36943 22496
L36999 22571
" />
</g>
<g style="fill:#C2C2C2; fill-opacity:0.0; 
stroke:#C2C2C2; stroke-width:78.7402; stroke-opacity:1; 
stroke-linecap:round; stroke-linejoin:round;">
<text x="28750" y="17074.8"
textLength="807.93" font-size="524.934" lengthAdjust="spacingAndGlyphs"
text-anchor="middle" opacity="0">1u</text>
<path d="M28684 17056
L28459 17056
" />
<path d="M28571 17056
L28571 16662
L28534 16718
L28496 16756
L28459 16774
" />
<path d="M29021 16793
L29021 17056
" />
<path d="M28853 16793
L28853 16999
L28871 17037
L28909 17056
L28965 17056
L29003 17037
L29021 17018
" />
</g>
<g style="fill:#C2C2C2; fill-opacity:0.0; 
stroke:#C2C2C2; stroke-width:59.0551; stroke-opacity:1; 
stroke-linecap:round; stroke-linejoin:round;">
<text x="28750" y="20940.5"
textLength="1789.65" font-size="524.934" lengthAdjust="spacingAndGlyphs"
text-anchor="middle" opacity="0">REF**</text>
<path d="M28225 20921
L28093 20734
" />
<path d="M28000 20921
L28000 20528
L28150 20528
L28187 20546
L28206 20565
L28225 20602
L28225 20659
L28206 20696
L28187 20715
L28150 20734
L28000 20734
" />
<path d="M28393 20715
L28525 20715
" />
<path d="M28581 20921
L28393 20921
L28393 20528
L28581 20528
" />
<path d="M28881 20715
L28750 20715
" />
<path d="M28750 20921
L28750 20528
L28937 20528
" />
<path d="M29143 20528
L29143 20621
" />
<path d="M29049 20584
L29143 20621
L29237 20584
" />
<path d="M29087 20696
L29143 20621
L29199 20696
" />
<path d="M29443 20528
L29443 20621
" />
<path d="M29349 20584
L29443 20621
L29537 20584
" />
<path d="M29387 20696
L29443 20621
L29499 20696
" />
</g>
<g style="fill:#C2C2C2; fill-opacity:0.0; 
stroke:#C2C2C2; stroke-width:78.7402; stroke-opacity:1; 
stroke-linecap:round; stroke-linejoin:round;">
<text x="21250" y="18949.8"
textLength="807.93" font-size="524.934" lengthAdjust="spacingAndGlyphs"
text-anchor="middle" opacity="0">1u</text>
<path d="M21184 18931
L20959 18931
" />
<path d="M21071 18931
L21071 18537
L21034 18593
L20996 18631
L20959 18649
" />
<path d="M21521 18668
L21521 18931
" />
<path d="M21353 18668
L21353 18874
L21371 18912
L21409 18931
L21465 18931
L21503 18912
L21521 18893
" />
</g>
<g style="fill:#C2C2C2; fill-opacity:0.0; 
stroke:#C2C2C2; stroke-width:59.0551; stroke-opacity:1; 
stroke-linecap:round; stroke-linejoin:round;">
<text x="21250" y="22815.5"
textLength="1789.65" font-size="524.934" lengthAdjust="spacingAndGlyphs"
text-anchor="middle" opacity="0">REF**</text>
<path d="M20725 22796
L20593 22609
" />
<path d="M20500 22796
L20500 22403
L20650 22403
L20687 22421
L20706 22440
L20725 22477
L20725 22534
L20706 22571
L20687 22590
L20650 22609
L20500 22609
" />
<path d="M20893 22590
L21025 22590
" />
<path d="M21081 22796
L20893 22796
L20893 22403
L21081 22403
" />
<path d="M21381 22590
L21250 22590
" />
<path d="M21250 22796
L21250 22403
L21437 22403
" />
<path d="M21643 22403
L21643 22496
" />
<path d="M21549 22459
L21643 22496
L21737 22459
" />
<path d="M21587 22571
L21643 22496
L21699 22571
" />
<path d="M21943 22403
L21943 22496
" />
<path d="M21849 22459
L21943 22496
L22037 22459
" />
<path d="M21887 22571
L21943 22496
L21999 22571
" />
</g>
<g style="fill:#C2C2C2; fill-opacity:0.0; 
stroke:#C2C2C2; stroke-width:78.7402; stroke-opacity:1; 
stroke-linecap:round; stroke-linejoin:round;">
<text x="13750" y="20824.8"
textLength="807.93" font-size="524.934" lengthAdjust="spacingAndGlyphs"
text-anchor="middle" opacity="0">1u</text>
<path d="M13684 20806
L13459 20806
" />
<path d="M13571 20806
L13571 20412
L13534 20468
L13496 20506
L13459 20524
" />
<path d="M14021 20543
L14021 20806
" />
<path d="M13853 20543
L13853 20749
L13871 20787
L13909 20806
L13965 20806
L14003 20787
L14021 20768
" />
</g>
<g style="fill:#C2C2C2; fill-opacity:0.0; 
stroke:#C2C2C2; stroke-width:59.0551; stroke-opacity:1; 
stroke-linecap:round; stroke-linejoin:round;">
<text x="13750" y="24690.5"
textLength="1789.65" font-size="524.934" lengthAdjust="spacingAndGlyphs"
text-anchor="middle" opacity="0">REF**</text>
<path d="M13225 24671
L13093 24484
" />
<path d="M13000 24671
L13000 24278
L13150 24278
L13187 24296
L13206 24315
L13225 24352
L13225 24409
L13206 24446
L13187 24465
L13150 24484
L13000 24484
" />
<path d="M13393 24465
L13525 24465
" />
<path d="M13581 24671
L13393 24671
L13393 24278
L13581 24278
" />
<path d="M13881 24465
L13750 24465
" />
<path d="M13750 24671
L13750 24278
L13937 24278
" />
<path d="M14143 24278
L14143 24371
" />
<path d="M14049 24334
L14143 24371
L14237 24334
" />
<path d="M14087 24446
L14143 24371
L14199 24446
" />
<path d="M14443 24278
L14443 24371
" />
<path d="M14349 24334
L14443 24371
L14537 24334
" />
<path d="M14387 24446
L14443 24371
L14499 24446
" />
</g>
<g style="fill:#C2C2C2; fill-opacity:0.0; 
stroke:#C2C2C2; stroke-width:78.7402; stroke-opacity:1; 
stroke-linecap:round; stroke-linejoin:round;">
<text x="6250" y="22699.8"
textLength="807.93" font-size="524.934" lengthAdjust="spacingAndGlyphs"
text-anchor="middle" opacity="0">1u</text>
<path d="M6184 22681
L5959 22681
" />
<path d="M6071 22681
L6071 22287
L6034 22343
L5996 22381
L5959 22399
" />
<path d="M6521 22418
L6521 22681
" />
<path d="M6353 22418
L6353 22624
L6371 22662
L6409 22681
L6465 22681
L6503 22662
L6521 22643
" />
</g>
<g style="fill:#C2C2C2; fill-opacity:0.0; 
stroke:#C2C2C2; stroke-width:59.0551; stroke-opacity:1; 
stroke-linecap:round; stroke-linejoin:round;">
<text x="6250" y="26565.5"
textLength="1789.65" font-size="524.934" lengthAdjust="spacingAndGlyphs"
text-anchor="middle" opacity="0">REF**</text>
<path d="M5725 26546
L5593 26359
" />
<path d="M5500 26546
L5500 26153
L5650 26153
L5687 26171
L5706 26190
L5725 26227
L5725 26284
L5706 26321
L5687 26340
L5650 26359
L5500 26359
" />
<path d="M5893 26340
L6025 26340
" />
<path d="M6081 26546
L5893 26546
L5893 26153
L6081 26153
" />
<path d="M6381 26340
L6250 26340
" />
<path d="M6250 26546
L6250 26153
L6437 26153
" />
<path d="M6643 26153
L6643 26246
" />
<path d="M6549 26209
L6643 26246
L6737 26209
" />
<path d="M6587 26321
L6643 26246
L6699 26321
" />
<path d="M6943 26153
L6943 26246
" />
<path d="M6849 26209
L6943 26246
L7037 26209
" />
<path d="M6887 26321
L6943 26246
L6999 26321
" />
</g>
<g style="fill:#C2C2C2; fill-opacity:0.0; 
stroke:#C2C2C2; stroke-width:78.7402; stroke-opacity:1; 
stroke-linecap:round; stroke-linejoin:round;">
<text x="6250" y="15199.8"
textLength="807.93" font-size="524.934" lengthAdjust="spacingAndGlyphs"
text-anchor="middle" opacity="0">1u</text>
<path d="M6184 15181
L5959 15181
" />
<path d="M6071 15181
L6071 14787
L6034 14843
L5996 14881
L5959 14899
" />
<path d="M6521 14918
L6521 15181
" />
<path d="M6353 14918
L6353 15124
L6371 15162
L6409 15181
L6465 15181
L6503 15162
L6521 15143
" />
</g>
<g style="fill:#C2C2C2; fill-opacity:0.0; 
stroke:#C2C2C2; stroke-width:59.0551; stroke-opacity:1; 
stroke-linecap:round; stroke-linejoin:round;">
<text x="6250" y="19065.5"
textLength="1789.65" font-size="524.934" lengthAdjust="spacingAndGlyphs"
text-anchor="middle" opacity="0">REF**</text>
<path d="M5725 19046
L5593 18859
" />
<path d="M5500 19046
L5500 18653
L5650 18653
L5687 18671
L5706 18690
L5725 18727
L5725 18784
L5706 18821
L5687 18840
L5650 18859
L5500 18859
" />
<path d="M5893 18840
L6025 18840
" />
<path d="M6081 19046
L5893 19046
L5893 18653
L6081 18653
" />
<path d="M6381 18840
L6250 18840
" />
<path d="M6250 19046
L6250 18653
L6437 18653
" />
<path d="M6643 18653
L6643 18746
" />
<path d="M6549 18709
L6643 18746
L6737 18709
" />
<path d="M6587 18821
L6643 18746
L6699 18821
" />
<path d="M6943 18653
L6943 18746
" />
<path d="M6849 18709
L6943 18746
L7037 18709
" />
<path d="M6887 18821
L6943 18746
L6999 18821
" />
</g>
<g style="fill:#C2C2C2; fill-opacity:0.0; 
stroke:#C2C2C2; stroke-width:78.7402; stroke-opacity:1; 
stroke-linecap:round; stroke-linejoin:round;">
<text x="13750" y="13324.8"
textLength="807.93" font-size="524.934" lengthAdjust="spacingAndGlyphs"
text-anchor="middle" opacity="0">1u</text>
<path d="M13684 13306
L13459 13306
" />
<path d="M13571 13306
L13571 12912
L13534 12968
L13496 13006
L13459 13024
" />
<path d="M14021 13043
L14021 13306
" />
<path d="M13853 13043
L13853 13249
L13871 13287
L13909 13306
L13965 13306
L14003 13287
L14021 13268
" />
</g>
<g style="fill:#C2C2C2; fill-opacity:0.0; 
stroke:#C2C2C2; stroke-width:59.0551; stroke-opacity:1; 
stroke-linecap:round; stroke-linejoin:round;">
<text x="13750" y="17190.5"
textLength="1789.65" font-size="524.934" lengthAdjust="spacingAndGlyphs"
text-anchor="middle" opacity="0">REF**</text>
<path d="M13225 17171
L13093 16984
" />
<path d="M13000 17171
L13000 16778
L13150 16778
L13187 16796
L13206 16815
L13225 16852
L13225 16909
L13206 16946
L13187 16965
L13150 16984
L13000 16984
" />
<path d="M13393 16965
L13525 16965
" />
<path d="M13581 17171
L13393 17171
L13393 16778
L13581 16778
" />
<path d="M13881 16965
L13750 16965
" />
<path d="M13750 17171
L13750 16778
L13937 16778
" />
<path d="M14143 16778
L14143 16871
" />
<path d="M14049 16834
L14143 16871
L14237 16834
" />
<path d="M14087 16946
L14143 16871
L14199 16946
" />
<path d="M14443 16778
L14443 16871
" />
<path d="M14349 16834
L14443 16871
L14537 16834
" />
<path d="M14387 16946
L14443 16871
L14499 16946
" />
</g>
<g style="fill:#C2C2C2; fill-opacity:0.0; 
stroke:#C2C2C2; stroke-width:78.7402; stroke-opacity:1; 
stroke-linecap:round; stroke-linejoin:round;">
<text x="21250" y="11449.8"
textLength="807.93" font-size="524.934" lengthAdjust="spacingAndGlyphs"
text-anchor="middle" opacity="0">1u</text>
<path d="M21184 11431
L20959 11431
" />
<path d="M21071 11431
L21071 11037
L21034 11093
L20996 11131
L20959 11149
" />
<path d="M21521 11168
L21521 11431
" />
<path d="M21353 11168
L21353 11374
L21371 11412
L21409 11431
L21465 11431
L21503 11412
L21521 11393
" />
</g>
<g style="fill:#C2C2C2; fill-opacity:0.0; 
stroke:#C2C2C2; stroke-width:59.0551; stroke-opacity:1; 
stroke-linecap:round; stroke-linejoin:round;">
<text x="21250" y="15315.5"
textLength="1789.65" font-size="524.934" lengthAdjust="spacingAndGlyphs"
text-anchor="middle" opacity="0">REF**</text>
<path d="M20725 15296
L20593 15109
" />
<path d="M20500 15296
L20500 14903
L20650 14903
L20687 14921
L20706 14940
L20725 14977
L20725 15034
L20706 15071
L20687 15090
L20650 15109
L20500 15109
" />
<path d="M20893 15090
L21025 15090
" />
<path d="M21081 15296
L20893 15296
L20893 14903
L21081 14903
" />
<path d="M21381 15090
L21250 15090
" />
<path d="M21250 15296
L21250 14903
L21437 14903
" />
<path d="M21643 14903
L21643 14996
" />
<path d="M21549 14959
L21643 14996
L21737 14959
" />
<path d="M21587 15071
L21643 14996
L21699 15071
" />
<path d="M21943 14903
L21943 14996
" />
<path d="M21849 14959
L21943 14996
L22037 14959
" />
<path d="M21887 15071
L21943 14996
L21999 15071
" />
</g>
<g style="fill:#C2C2C2; fill-opacity:0.0; 
stroke:#C2C2C2; stroke-width:78.7402; stroke-opacity:1; 
stroke-linecap:round; stroke-linejoin:round;">
<text x="28750" y="9574.8"
textLength="807.93" font-size="524.934" lengthAdjust="spacingAndGlyphs"
text-anchor="middle" opacity="0">1u</text>
<path d="M28684 9556
L28459 9556
" />
<path d="M28571 9556
L28571 9162
L28534 9218
L28496 9256
L28459 9274
" />
<path d="M29021 9293
L29021 9556
" />
<path d="M28853 9293
L28853 9499
L28871 9537
L28909 9556
L28965 9556
L29003 9537
L29021 9518
" />
</g>
<g style="fill:#C2C2C2; fill-opacity:0.0; 
stroke:#C2C2C2; stroke-width:59.0551; stroke-opacity:1; 
stroke-linecap:round; stroke-linejoin:round;">
<text x="28750" y="13440.5"
textLength="1789.65" font-size="524.934" lengthAdjust="spacingAndGlyphs"
text-anchor="middle" opacity="0">REF**</text>
<path d="M28225 13421
L28093 13234
" />
<path d="M28000 13421
L28000 13028
L28150 13028
L28187 13046
L28206 13065
L28225 13102
L28225 13159
L28206 13196
L28187 13215
L28150 13234
L28000 13234
" />
<path d="M28393 13215
L28525 13215
" />
<path d="M28581 13421
L28393 13421
L28393 13028
L28581 13028
" />
<path d="M28881 13215
L28750 13215
" />
<path d="M28750 13421
L28750 13028
L28937 13028
" />
<path d="M29143 13028
L29143 13121
" />
<path d="M29049 13084
L29143 13121
L29237 13084
" />
<path d="M29087 13196
L29143 13121
L29199 13196
" />
<path d="M29443 13028
L29443 13121
" />
<path d="M29349 13084
L29443 13121
L29537 13084
" />
<path d="M29387 13196
L29443 13121
L29499 13196
" />
</g>
<g style="fill:#C2C2C2; fill-opacity:0.0; 
stroke:#C2C2C2; stroke-width:78.7402; stroke-opacity:1; 
stroke-linecap:round; stroke-linejoin:round;">
<text x="36250" y="11449.8"
textLength="807.93" font-size="524.934" lengthAdjust="spacingAndGlyphs"
text-anchor="middle" opacity="0">1u</text>
<path d="M36184 11431
L35959 11431
" />
<path d="M36071 11431
L36071 11037
L36034 11093
L35996 11131
L35959 11149
" />
<path d="M36521 11168
L36521 11431
" />
<path d="M36353 11168
L36353 11374
L36371 11412
L36409 11431
L36465 11431
L36503 11412
L36521 11393
" />
</g>
<g style="fill:#C2C2C2; fill-opacity:0.0; 
stroke:#C2C2C2; stroke-width:59.0551; stroke-opacity:1; 
stroke-linecap:round; stroke-linejoin:round;">
<text x="36250" y="15315.5"
textLength="1789.65" font-size="524.934" lengthAdjust="spacingAndGlyphs"
text-anchor="middle" opacity="0">REF**</text>
<path d="M35725 15296
L35593 15109
" />
<path d="M35500 15296
L35500 14903
L35650 14903
L35687 14921
L35706 14940
L35725 14977
L35725 15034
L35706 15071
L35687 15090
L35650 15109
L35500 15109
" />
<path d="M35893 15090
L36025 15090
" />
<path d="M36081 15296
L35893 15296
L35893 14903
L36081 14903
" />
<path d="M36381 15090
L36250 15090
" />
<path d="M36250 15296
L36250 14903
L36437 14903
" />
<path d="M36643 14903
L36643 14996
" />
<path d="M36549 14959
L36643 14996
L36737 14959
" />
<path d="M36587 15071
L36643 14996
L36699 15071
" />
<path d="M36943 14903
L36943 14996
" />
<path d="M36849 14959
L36943 14996
L37037 14959
" />
<path d="M36887 15071
L36943 14996
L36999 15071
" />
</g>
<g style="fill:#C2C2C2; fill-opacity:0.0; 
stroke:#C2C2C2; stroke-width:78.7402; stroke-opacity:1; 
stroke-linecap:round; stroke-linejoin:round;">
<text x="43750" y="13324.8"
textLength="807.93" font-size="524.934" lengthAdjust="spacingAndGlyphs"
text-anchor="middle" opacity="0">1u</text>
<path d="M43684 13306
L43459 13306
" />
<path d="M43571 13306
L43571 12912
L43534 12968
L43496 13006
L43459 13024
" />
<path d="M44021 13043
L44021 13306
" />
<path d="M43853 13043
L43853 13249
L43871 13287
L43909 13306
L43965 13306
L44003 13287
L44021 13268
" />
</g>
<g style="fill:#C2C2C2; fill-opacity:0.0; 
stroke:#C2C2C2; stroke-width:59.0551; stroke-opacity:1; 
stroke-linecap:round; stroke-linejoin:round;">
<text x="43750" y="17190.5"
textLength="1789.65" font-size="524.934" lengthAdjust="spacingAndGlyphs"
text-anchor="middle" opacity="0">REF**</text>
<path d="M43225 17171
L43093 16984
" />
<path d="M43000 17171
L43000 16778
L43150 16778
L43187 16796
L43206 16815
L43225 16852
L43225 16909
L43206 16946
L43187 16965
L43150 16984
L43000 16984
" />
<path d="M43393 16965
L43525 16965
" />
<path d="M43581 17171
L43393 17171
L43393 16778
L43581 16778
" />
<path d="M43881 16965
L43750 16965
" />
<path d="M43750 17171
L43750 16778
L43937 16778
" />
<path d="M44143 16778
L44143 16871
" />
<path d="M44049 16834
L44143 16871
L44237 16834
" />
<path d="M44087 16946
L44143 16871
L44199 16946
" />
<path d="M44443 16778
L44443 16871
" />
<path d="M44349 16834
L44443 16871
L44537 16834
" />
<path d="M44387 16946
L44443 16871
L44499 16946
" />
<text x="37812.5" y="8290.35"
textLength="864.173" font-size="524.934" lengthAdjust="spacingAndGlyphs"
text-anchor="middle" opacity="0">U2</text>
<path d="M37512 7877
L37512 8196
L37531 8234
L37550 8252
L37587 8271
L37662 8271
L37700 8252
L37718 8234
L37737 8196
L37737 7877
" />
<path d="M37906 7915
L37924 7896
L37962 7877
L38056 7877
L38093 7896
L38112 7915
L38131 7952
L38131 7990
L38112 8046
L37887 8271
L38131 8271
" />
<text x="26875" y="33637.3"
textLength="1989.03" font-size="524.934" lengthAdjust="spacingAndGlyphs"
text-anchor="middle" opacity="0">KEYSW</text>
<path d="M26012 33618
L26012 33224
" />
<path d="M26237 33618
L26068 33393
" />
<path d="M26237 33224
L26012 33449
" />
<path d="M26406 33412
L26537 33412
" />
<path d="M26593 33618
L26406 33618
L26406 33224
L26593 33224
" />
<path d="M26837 33431
L26837 33618
" />
<path d="M26706 33224
L26837 33431
L26968 33224
" />
<path d="M27081 33599
L27137 33618
L27231 33618
L27268 33599
L27287 33581
L27306 33543
L27306 33506
L27287 33468
L27268 33449
L27231 33431
L27156 33412
L27118 33393
L27099 33374
L27081 33337
L27081 33299
L27099 33262
L27118 33243
L27156 33224
L27249 33224
L27306 33243
" />
<path d="M27437 33224
L27531 33618
L27606 33337
L27681 33618
L27774 33224
" />
<text x="19375" y="35512.3"
textLength="1989.03" font-size="524.934" lengthAdjust="spacingAndGlyphs"
text-anchor="middle" opacity="0">KEYSW</text>
<path d="M18512 35493
L18512 35099
" />
<path d="M18737 35493
L18568 35268
" />
<path d="M18737 35099
L18512 35324
" />
<path d="M18906 35287
L19037 35287
" />
<path d="M19093 35493
L18906 35493
L18906 35099
L19093 35099
" />
<path d="M19337 35306
L19337 35493
" />
<path d="M19206 35099
L19337 35306
L19468 35099
" />
<path d="M19581 35474
L19637 35493
L19731 35493
L19768 35474
L19787 35456
L19806 35418
L19806 35381
L19787 35343
L19768 35324
L19731 35306
L19656 35287
L19618 35268
L19599 35249
L19581 35212
L19581 35174
L19599 35137
L19618 35118
L19656 35099
L19749 35099
L19806 35118
" />
<path d="M19937 35099
L20031 35493
L20106 35212
L20181 35493
L20274 35099
" />
<text x="11875" y="37387.3"
textLength="1989.03" font-size="524.934" lengthAdjust="spacingAndGlyphs"
text-anchor="middle" opacity="0">KEYSW</text>
<path d="M11012 37368
L11012 36974
" />
<path d="M11237 37368
L11068 37143
" />
<path d="M11237 36974
L11012 37199
" />
<path d="M11406 37162
L11537 37162
" />
<path d="M11593 37368
L11406 37368
L11406 36974
L11593 36974
" />
<path d="M11837 37181
L11837 37368
" />
<path d="M11706 36974
L11837 37181
L11968 36974
" />
<path d="M12081 37349
L12137 37368
L12231 37368
L12268 37349
L12287 37331
L12306 37293
L12306 37256
L12287 37218
L12268 37199
L12231 37181
L12156 37162
L12118 37143
L12099 37124
L12081 37087
L12081 37049
L12099 37012
L12118 36993
L12156 36974
L12249 36974
L12306 36993
" />
<path d="M12437 36974
L12531 37368
L12606 37087
L12681 37368
L12774 36974
" />
<text x="43750" y="28012.3"
textLength="1989.03" font-size="524.934" lengthAdjust="spacingAndGlyphs"
text-anchor="middle" opacity="0">KEYSW</text>
<path d="M42887 27993
L42887 27599
" />
<path d="M43112 27993
L42943 27768
" />
<path d="M43112 27599
L42887 27824
" />
<path d="M43281 27787
L43412 27787
" />
<path d="M43468 27993
L43281 27993
L43281 27599
L43468 27599
" />
<path d="M43712 27806
L43712 27993
" />
<path d="M43581 27599
L43712 27806
L43843 27599
" />
<path d="M43956 27974
L44012 27993
L44106 27993
L44143 27974
L44162 27956
L44181 27918
L44181 27881
L44162 27843
L44143 27824
L44106 27806
L44031 27787
L43993 27768
L43974 27749
L43956 27712
L43956 27674
L43974 27637
L43993 27618
L44031 27599
L44124 27599
L44181 27618
" />
<path d="M44312 27599
L44406 27993
L44481 27712
L44556 27993
L44649 27599
" />
<text x="36250" y="26137.3"
textLength="1989.03" font-size="524.934" lengthAdjust="spacingAndGlyphs"
text-anchor="middle" opacity="0">KEYSW</text>
<path d="M35387 26118
L35387 25724
" />
<path d="M35612 26118
L35443 25893
" />
<path d="M35612 25724
L35387 25949
" />
<path d="M35781 25912
L35912 25912
" />
<path d="M35968 26118
L35781 26118
L35781 25724
L35968 25724
" />
<path d="M36212 25931
L36212 26118
" />
<path d="M36081 25724
L36212 25931
L36343 25724
" />
<path d="M36456 26099
L36512 26118
L36606 26118
L36643 26099
L36662 26081
L36681 26043
L36681 26006
L36662 25968
L36643 25949
L36606 25931
L36531 25912
L36493 25893
L36474 25874
L36456 25837
L36456 25799
L36474 25762
L36493 25743
L36531 25724
L36624 25724
L36681 25743
" />
<path d="M36812 25724
L36906 26118
L36981 25837
L37056 26118
L37149 25724
" />
<text x="28750" y="24262.3"
textLength="1989.03" font-size="524.934" lengthAdjust="spacingAndGlyphs"
text-anchor="middle" opacity="0">KEYSW</text>
<path d="M27887 24243
L27887 23849
" />
<path d="M28112 24243
L27943 24018
" />
<path d="M28112 23849
L27887 24074
" />
<path d="M28281 24037
L28412 24037
" />
<path d="M28468 24243
L28281 24243
L28281 23849
L28468 23849
" />
<path d="M28712 24056
L28712 24243
" />
<path d="M28581 23849
L28712 24056
L28843 23849
" />
<path d="M28956 24224
L29012 24243
L29106 24243
L29143 24224
L29162 24206
L29181 24168
L29181 24131
L29162 24093
L29143 24074
L29106 24056
L29031 24037
L28993 24018
L28974 23999
L28956 23962
L28956 23924
L28974 23887
L28993 23868
L29031 23849
L29124 23849
L29181 23868
" />
<path d="M29312 23849
L29406 24243
L29481 23962
L29556 24243
L29649 23849
" />
<text x="21250" y="26137.3"
textLength="1989.03" font-size="524.934" lengthAdjust="spacingAndGlyphs"
text-anchor="middle" opacity="0">KEYSW</text>
<path d="M20387 26118
L20387 25724
" />
<path d="M20612 26118
L20443 25893
" />
<path d="M20612 25724
L20387 25949
" />
<path d="M20781 25912
L20912 25912
" />
<path d="M20968 26118
L20781 26118
L20781 25724
L20968 25724
" />
<path d="M21212 25931
L21212 26118
" />
<path d="M21081 25724
L21212 25931
L21343 25724
" />
<path d="M21456 26099
L21512 26118
L21606 26118
L21643 26099
L21662 26081
L21681 26043
L21681 26006
L21662 25968
L21643 25949
L21606 25931
L21531 25912
L21493 25893
L21474 25874
L21456 25837
L21456 25799
L21474 25762
L21493 25743
L21531 25724
L21624 25724
L21681 25743
" />
<path d="M21812 25724
L21906 26118
L21981 25837
L22056 26118
L22149 25724
" />
<text x="13750" y="28012.3"
textLength="1989.03" font-size="524.934" lengthAdjust="spacingAndGlyphs"
text-anchor="middle" opacity="0">KEYSW</text>
<path d="M12887 27993
L12887 27599
" />
<path d="M13112 27993
L12943 27768
" />
<path d="M13112 27599
L12887 27824
" />
<path d="M13281 27787
L13412 27787
" />
<path d="M13468 27993
L13281 27993
L13281 27599
L13468 27599
" />
<path d="M13712 27806
L13712 27993
" />
<path d="M13581 27599
L13712 27806
L13843 27599
" />
<path d="M13956 27974
L14012 27993
L14106 27993
L14143 27974
L14162 27956
L14181 27918
L14181 27881
L14162 27843
L14143 27824
L14106 27806
L14031 27787
L13993 27768
L13974 27749
L13956 27712
L13956 27674
L13974 27637
L13993 27618
L14031 27599
L14124 27599
L14181 27618
" />
<path d="M14312 27599
L14406 27993
L14481 27712
L14556 27993
L14649 27599
" />
<text x="6250" y="29887.3"
textLength="1989.03" font-size="524.934" lengthAdjust="spacingAndGlyphs"
text-anchor="middle" opacity="0">KEYSW</text>
<path d="M5387 29868
L5387 29474
" />
<path d="M5612 29868
L5443 29643
" />
<path d="M5612 29474
L5387 29699
" />
<path d="M5781 29662
L5912 29662
" />
<path d="M5968 29868
L5781 29868
L5781 29474
L5968 29474
" />
<path d="M6212 29681
L6212 29868
" />
<path d="M6081 29474
L6212 29681
L6343 29474
" />
<path d="M6456 29849
L6512 29868
L6606 29868
L6643 29849
L6662 29831
L6681 29793
L6681 29756
L6662 29718
L6643 29699
L6606 29681
L6531 29662
L6493 29643
L6474 29624
L6456 29587
L6456 29549
L6474 29512
L6493 29493
L6531 29474
L6624 29474
L6681 29493
" />
<path d="M6812 29474
L6906 29868
L6981 29587
L7056 29868
L7149 29474
" />
<text x="43750" y="20512.3"
textLength="1989.03" font-size="524.934" lengthAdjust="spacingAndGlyphs"
text-anchor="middle" opacity="0">KEYSW</text>
<path d="M42887 20493
L42887 20099
" />
<path d="M43112 20493
L42943 20268
" />
<path d="M43112 20099
L42887 20324
" />
<path d="M43281 20287
L43412 20287
" />
<path d="M43468 20493
L43281 20493
L43281 20099
L43468 20099
" />
<path d="M43712 20306
L43712 20493
" />
<path d="M43581 20099
L43712 20306
L43843 20099
" />
<path d="M43956 20474
L44012 20493
L44106 20493
L44143 20474
L44162 20456
L44181 20418
L44181 20381
L44162 20343
L44143 20324
L44106 20306
L44031 20287
L43993 20268
L43974 20249
L43956 20212
L43956 20174
L43974 20137
L43993 20118
L44031 20099
L44124 20099
L44181 20118
" />
<path d="M44312 20099
L44406 20493
L44481 20212
L44556 20493
L44649 20099
" />
<text x="36250" y="18637.3"
textLength="1989.03" font-size="524.934" lengthAdjust="spacingAndGlyphs"
text-anchor="middle" opacity="0">KEYSW</text>
<path d="M35387 18618
L35387 18224
" />
<path d="M35612 18618
L35443 18393
" />
<path d="M35612 18224
L35387 18449
" />
<path d="M35781 18412
L35912 18412
" />
<path d="M35968 18618
L35781 18618
L35781 18224
L35968 18224
" />
<path d="M36212 18431
L36212 18618
" />
<path d="M36081 18224
L36212 18431
L36343 18224
" />
<path d="M36456 18599
L36512 18618
L36606 18618
L36643 18599
L36662 18581
L36681 18543
L36681 18506
L36662 18468
L36643 18449
L36606 18431
L36531 18412
L36493 18393
L36474 18374
L36456 18337
L36456 18299
L36474 18262
L36493 18243
L36531 18224
L36624 18224
L36681 18243
" />
<path d="M36812 18224
L36906 18618
L36981 18337
L37056 18618
L37149 18224
" />
<text x="28750" y="16762.3"
textLength="1989.03" font-size="524.934" lengthAdjust="spacingAndGlyphs"
text-anchor="middle" opacity="0">KEYSW</text>
<path d="M27887 16743
L27887 16349
" />
<path d="M28112 16743
L27943 16518
" />
<path d="M28112 16349
L27887 16574
" />
<path d="M28281 16537
L28412 16537
" />
<path d="M28468 16743
L28281 16743
L28281 16349
L28468 16349
" />
<path d="M28712 16556
L28712 16743
" />
<path d="M28581 16349
L28712 16556
L28843 16349
" />
<path d="M28956 16724
L29012 16743
L29106 16743
L29143 16724
L29162 16706
L29181 16668
L29181 16631
L29162 16593
L29143 16574
L29106 16556
L29031 16537
L28993 16518
L28974 16499
L28956 16462
L28956 16424
L28974 16387
L28993 16368
L29031 16349
L29124 16349
L29181 16368
" />
<path d="M29312 16349
L29406 16743
L29481 16462
L29556 16743
L29649 16349
" />
<text x="21250" y="18637.3"
textLength="1989.03" font-size="524.934" lengthAdjust="spacingAndGlyphs"
text-anchor="middle" opacity="0">KEYSW</text>
<path d="M20387 18618
L20387 18224
" />
<path d="M20612 18618
L20443 18393
" />
<path d="M20612 18224
L20387 18449
" />
<path d="M20781 18412
L20912 18412
" />
<path d="M20968 18618
L20781 18618
L20781 18224
L20968 18224
" />
<path d="M21212 18431
L21212 18618
" />
<path d="M21081 18224
L21212 18431
L21343 18224
" />
<path d="M21456 18599
L21512 18618
L21606 18618
L21643 18599
L21662 18581
L21681 18543
L21681 18506
L21662 18468
L21643 18449
L21606 18431
L21531 18412
L21493 18393
L21474 18374
L21456 18337
L21456 18299
L21474 18262
L21493 18243
L21531 18224
L21624 18224
L21681 18243
" />
<path d="M21812 18224
L21906 18618
L21981 18337
L22056 18618
L22149 18224
" />
<text x="13750" y="20512.3"
textLength="1989.03" font-size="524.934" lengthAdjust="spacingAndGlyphs"
text-anchor="middle" opacity="0">KEYSW</text>
<path d="M12887 20493
L12887 20099
" />
<path d="M13112 20493
L12943 20268
" />
<path d="M13112 20099
L12887 20324
" />
<path d="M13281 20287
L13412 20287
" />
<path d="M13468 20493
L13281 20493
L13281 20099
L13468 20099
" />
<path d="M13712 20306
L13712 20493
" />
<path d="M13581 20099
L13712 20306
L13843 20099
" />
<path d="M13956 20474
L14012 20493
L14106 20493
L14143 20474
L14162 20456
L14181 20418
L14181 20381
L14162 20343
L14143 20324
L14106 20306
L14031 20287
L13993 20268
L13974 20249
L13956 20212
L13956 20174
L13974 20137
L13993 20118
L14031 20099
L14124 20099
L14181 20118
" />
<path d="M14312 20099
L14406 20493
L14481 20212
L14556 20493
L14649 20099
" />
<text x="6250" y="22387.3"
textLength="1989.03" font-size="524.934" lengthAdjust="spacingAndGlyphs"
text-anchor="middle" opacity="0">KEYSW</text>
<path d="M5387 22368
L5387 21974
" />
<path d="M5612 22368
L5443 22143
" />
<path d="M5612 21974
L5387 22199
" />
<path d="M5781 22162
L5912 22162
" />
<path d="M5968 22368
L5781 22368
L5781 21974
L5968 21974
" />
<path d="M6212 22181
L6212 22368
" />
<path d="M6081 21974
L6212 22181
L6343 21974
" />
<path d="M6456 22349
L6512 22368
L6606 22368
L6643 22349
L6662 22331
L6681 22293
L6681 22256
L6662 22218
L6643 22199
L6606 22181
L6531 22162
L6493 22143
L6474 22124
L6456 22087
L6456 22049
L6474 22012
L6493 21993
L6531 21974
L6624 21974
L6681 21993
" />
<path d="M6812 21974
L6906 22368
L6981 22087
L7056 22368
L7149 21974
" />
<text x="43750" y="13012.3"
textLength="1989.03" font-size="524.934" lengthAdjust="spacingAndGlyphs"
text-anchor="middle" opacity="0">KEYSW</text>
<path d="M42887 12993
L42887 12599
" />
<path d="M43112 12993
L42943 12768
" />
<path d="M43112 12599
L42887 12824
" />
<path d="M43281 12787
L43412 12787
" />
<path d="M43468 12993
L43281 12993
L43281 12599
L43468 12599
" />
<path d="M43712 12806
L43712 12993
" />
<path d="M43581 12599
L43712 12806
L43843 12599
" />
<path d="M43956 12974
L44012 12993
L44106 12993
L44143 12974
L44162 12956
L44181 12918
L44181 12881
L44162 12843
L44143 12824
L44106 12806
L44031 12787
L43993 12768
L43974 12749
L43956 12712
L43956 12674
L43974 12637
L43993 12618
L44031 12599
L44124 12599
L44181 12618
" />
<path d="M44312 12599
L44406 12993
L44481 12712
L44556 12993
L44649 12599
" />
<text x="36250" y="11137.3"
textLength="1989.03" font-size="524.934" lengthAdjust="spacingAndGlyphs"
text-anchor="middle" opacity="0">KEYSW</text>
<path d="M35387 11118
L35387 10724
" />
<path d="M35612 11118
L35443 10893
" />
<path d="M35612 10724
L35387 10949
" />
<path d="M35781 10912
L35912 10912
" />
<path d="M35968 11118
L35781 11118
L35781 10724
L35968 10724
" />
<path d="M36212 10931
L36212 11118
" />
<path d="M36081 10724
L36212 10931
L36343 10724
" />
<path d="M36456 11099
L36512 11118
L36606 11118
L36643 11099
L36662 11081
L36681 11043
L36681 11006
L36662 10968
L36643 10949
L36606 10931
L36531 10912
L36493 10893
L36474 10874
L36456 10837
L36456 10799
L36474 10762
L36493 10743
L36531 10724
L36624 10724
L36681 10743
" />
<path d="M36812 10724
L36906 11118
L36981 10837
L37056 11118
L37149 10724
" />
<text x="28750" y="9262.3"
textLength="1989.03" font-size="524.934" lengthAdjust="spacingAndGlyphs"
text-anchor="middle" opacity="0">KEYSW</text>
<path d="M27887 9243
L27887 8849
" />
<path d="M28112 9243
L27943 9018
" />
<path d="M28112 8849
L27887 9074
" />
<path d="M28281 9037
L28412 9037
" />
<path d="M28468 9243
L28281 9243
L28281 8849
L28468 8849
" />
<path d="M28712 9056
L28712 9243
" />
<path d="M28581 8849
L28712 9056
L28843 8849
" />
<path d="M28956 9224
L29012 9243
L29106 9243
L29143 9224
L29162 9206
L29181 9168
L29181 9131
L29162 9093
L29143 9074
L29106 9056
L29031 9037
L28993 9018
L28974 8999
L28956 8962
L28956 8924
L28974 8887
L28993 8868
L29031 8849
L29124 8849
L29181 8868
" />
<path d="M29312 8849
L29406 9243
L29481 8962
L29556 9243
L29649 8849
" />
<text x="21250" y="11137.3"
textLength="1989.03" font-size="524.934" lengthAdjust="spacingAndGlyphs"
text-anchor="middle" opacity="0">KEYSW</text>
<path d="M20387 11118
L20387 10724
" />
<path d="M20612 11118
L20443 10893
" />
<path d="M20612 10724
L20387 10949
" />
<path d="M20781 10912
L20912 10912
" />
<path d="M20968 11118
L20781 11118
L20781 10724
L20968 10724
" />
<path d="M21212 10931
L21212 11118
" />
<path d="M21081 10724
L21212 10931
L21343 10724
" />
<path d="M21456 11099
L21512 11118
L21606 11118
L21643 11099
L21662 11081
L21681 11043
L21681 11006
L21662 10968
L21643 10949
L21606 10931
L21531 10912
L21493 10893
L21474 10874
L21456 10837
L21456 10799
L21474 10762
L21493 10743
L21531 10724
L21624 10724
L21681 10743
" />
<path d="M21812 10724
L21906 11118
L21981 10837
L22056 11118
L22149 10724
" />
<text x="13750" y="13012.3"
textLength="1989.03" font-size="524.934" lengthAdjust="spacingAndGlyphs"
text-anchor="middle" opacity="0">KEYSW</text>
<path d="M12887 12993
L12887 12599
" />
<path d="M13112 12993
L12943 12768
" />
<path d="M13112 12599
L12887 12824
" />
<path d="M13281 12787
L13412 12787
" />
<path d="M13468 12993
L13281 12993
L13281 12599
L13468 12599
" />
<path d="M13712 12806
L13712 12993
" />
<path d="M13581 12599
L13712 12806
L13843 12599
" />
<path d="M13956 12974
L14012 12993
L14106 12993
L14143 12974
L14162 12956
L14181 12918
L14181 12881
L14162 12843
L14143 12824
L14106 12806
L14031 12787
L13993 12768
L13974 12749
L13956 12712
L13956 12674
L13974 12637
L13993 12618
L14031 12599
L14124 12599
L14181 12618
" />
<path d="M14312 12599
L14406 12993
L14481 12712
L14556 12993
L14649 12599
" />
<text x="6250" y="14887.3"
textLength="1989.03" font-size="524.934" lengthAdjust="spacingAndGlyphs"
text-anchor="middle" opacity="0">KEYSW</text>
<path d="M5387 14868
L5387 14474
" />
<path d="M5612 14868
L5443 14643
" />
<path d="M5612 14474
L5387 14699
" />
<path d="M5781 14662
L5912 14662
" />
<path d="M5968 14868
L5781 14868
L5781 14474
L5968 14474
" />
<path d="M6212 14681
L6212 14868
" />
<path d="M6081 14474
L6212 14681
L6343 14474
" />
<path d="M6456 14849
L6512 14868
L6606 14868
L6643 14849
L6662 14831
L6681 14793
L6681 14756
L6662 14718
L6643 14699
L6606 14681
L6531 14662
L6493 14643
L6474 14624
L6456 14587
L6456 14549
L6474 14512
L6493 14493
L6531 14474
L6624 14474
L6681 14493
" />
<path d="M6812 14474
L6906 14868
L6981 14587
L7056 14868
L7149 14474
" />
<g >
</g>
</g>
<g style="fill:#000000; fill-opacity:0.0; 
stroke:#000000; stroke-width:59.0551; stroke-opacity:1; 
stroke-linecap:round; stroke-linejoin:round;">
</g>
<g style="fill:#C2C200; fill-opacity:0.0; 
stroke:#C2C200; stroke-width:59.0551; stroke-opacity:1; 
stroke-linecap:round; stroke-linejoin:round;">
</g>
<g style="fill:#C2C200; fill-opacity:0.0; 
stroke:#C2C200; stroke-width:47.2441; stroke-opacity:1; 
stroke-linecap:round; stroke-linejoin:round;">
<path d="M35312.5 48753 A14062.5 14062.5 0.0 0 0 49375 34690.5" />
<path d="M625 34690.5 A14062.5 14062.5 0.0 0 0 14687.5 48753" />
<path d="M14687.5 1877.95 A14062.5 14062.5 0.0 0 0 625 15940.5" />
<path d="M49375 4377.95 A2500 2500 0.0 0 0 46875 1877.95" />
<path d="M625 15940
L625 34690
" />
<path d="M35312 48752
L14687 48752
" />
<path d="M49375 34690
L49375 4377
" />
<path d="M14687 1877
L46875 1877
" />
<g >
</g>
<g >
</g>
<g >
</g>
<g >
</g>
<g >
</g>
<g >
</g>
<g >
</g>
<g >
</g>
<g >
</g>
<g >
</g>
<g >
</g>
<g >
</g>
<g >
</g>
<g >
</g>
<g >
</g>
<g >
</g>
<g >
</g>
<g >
</g>
<g >
</g>
<g >
</g>
<g >
</g>
<g >
</g>
<g >
</g>
<g >
</g>
<g >
</g>
<g >
</g>
<g >
</g>
<g >
</g>
<g >
</g>
<g >
</g>
<g >
</g>
<g >
</g>
<g >
</g>
<g >
</g>
<g >
</g>
<g >
</g>
<g >
</g>
<g >
</g>
<g >
</g>
<g >
</g>
<g >
</g>
<g >
</g>
<g >
</g>
<g >
</g>
<g >
</g>
<g >
</g>
<g >
</g>
<g >
</g>
<g >
</g>
<g >
</g>
<g >
</g>
<g >
</g>
<g >
</g>
<g >
</g>
<g >
</g>
<g >
</g>
<g >
</g>
<g >
</g>
<g >
</g>
<g >
</g>
<g >
</g>
<g >
</g>
<g >
</g>
<g >
</g>
<g >
</g>
<g >
</g>
<g >
</g>
<g >
</g>
<g >
</g>
<g >
</g>
<g >
</g>
<g >
</g>
<g >
</g>
<g >
</g>
</g> 
</svg>
