<?xml version="1.0" standalone="no"?>
 <!DOCTYPE svg PUBLIC "-//W3C//DTD SVG 1.1//EN" 
 "http://www.w3.org/Graphics/SVG/1.1/DTD/svg11.dtd"> 
<svg
  xmlns:svg="http://www.w3.org/2000/svg"
  xmlns="http://www.w3.org/2000/svg"
  xmlns:xlink="http://www.w3.org/1999/xlink"
  version="1.1"
  width="13.159740cm" height="11.917680cm" viewBox="0 0 51810 46920">
<title>SVG Picture created as keyboard_right_bottom_plate-brd.svg date 2022/03/27 15:53:50 </title>
  <desc>Picture generated by PCBNEW </desc>
<g style="fill:#000000; fill-opacity:1;stroke:#000000; stroke-opacity:1;
stroke-linecap:round; stroke-linejoin:round;"
 transform="translate(0 0) scale(1 1)">
</g>
<g style="fill:#000000; fill-opacity:0.0; 
stroke:#000000; stroke-width:-0.000393701; stroke-opacity:1; 
stroke-linecap:round; stroke-linejoin:round;">
</g>
<g style="fill:#C2C2C2; fill-opacity:0.0; 
stroke:#C2C2C2; stroke-width:-0.000393701; stroke-opacity:1; 
stroke-linecap:round; stroke-linejoin:round;">
</g>
<g style="fill:#C2C2C2; fill-opacity:0.0; 
stroke:#C2C2C2; stroke-width:19.685; stroke-opacity:1; 
stroke-linecap:round; stroke-linejoin:round;">
<circle cx="46485.2" cy="38148.6" r="846.457" /> 
<circle cx="5860.17" cy="38148.6" r="846.457" /> 
<circle cx="4922.67" cy="8237.21" r="846.457" /> 
<circle cx="46896.1" cy="8237.21" r="846.457" /> 
<g >
</g>
<g >
</g>
<g >
</g>
<g >
</g>
<g >
</g>
<g >
</g>
</g>
<g style="fill:#000000; fill-opacity:0.0; 
stroke:#000000; stroke-width:19.685; stroke-opacity:1; 
stroke-linecap:round; stroke-linejoin:round;">
</g>
<g style="fill:#C2C200; fill-opacity:0.0; 
stroke:#C2C200; stroke-width:19.685; stroke-opacity:1; 
stroke-linecap:round; stroke-linejoin:round;">
</g>
<g style="fill:#C2C200; fill-opacity:0.0; 
stroke:#C2C200; stroke-width:47.2441; stroke-opacity:1; 
stroke-linecap:round; stroke-linejoin:round;">
<path d="M4297.67 23.6224 A2500 2500 0.0 0 0 1797.67 2523.62" />
<path d="M36485.2 46898.6 A14062.5 14062.5 0.0 0 0 50547.7 32836.1" />
<path d="M4297 23
L36485 23
" />
<path d="M1797 32836
L1797 2523
" />
<path d="M36485 46898
L15860 46898
" />
<path d="M1797.67 32836.1 A14062.5 14062.5 0.0 0 0 15860.2 46898.6" />
<path d="M50547.7 14086.1 A14062.5 14062.5 0.0 0 0 36485.2 23.6224" />
<path d="M50547 14086
L50547 32836
" />
<g >
</g>
<g >
</g>
<g >
</g>
<g >
</g>
<g >
</g>
<g >
</g>
</g> 
</svg>
